<svg width="90" height="90" viewBox="0 0 90 90" fill="none" xmlns="http://www.w3.org/2000/svg">
<g clip-path="url(#clip0_14_227)">
<path d="M0 0H90V90H0V0Z" fill="#74ACDF"/>
<path d="M0 30.0059H90V60.0117H0V30.0059Z" fill="white"/>
<path d="M44.424 45.234L49.554 56.394C49.554 56.394 49.644 56.61 49.788 56.556C49.932 56.484 49.842 56.268 49.842 56.268L45.576 44.748M45.45 49.104C45.378 50.796 46.422 51.732 46.296 53.244C46.152 54.774 46.98 55.62 47.196 56.214C47.376 56.808 46.98 57.15 47.142 57.24C47.322 57.33 47.682 56.862 47.574 56.016C47.448 55.188 46.818 54.936 46.962 53.082C47.106 51.228 46.206 50.796 46.422 49.122" fill="#F6B40E"/>
<path d="M44.424 45.234L49.554 56.394C49.554 56.394 49.644 56.61 49.788 56.556C49.932 56.484 49.842 56.268 49.842 56.268L45.576 44.748M45.45 49.104C45.378 50.796 46.422 51.732 46.296 53.244C46.152 54.774 46.98 55.62 47.196 56.214C47.376 56.808 46.98 57.15 47.142 57.24C47.322 57.33 47.682 56.862 47.574 56.016C47.448 55.188 46.818 54.936 46.962 53.082C47.106 51.228 46.206 50.796 46.422 49.122" stroke="#85340A" stroke-width="0.1408"/>
<path d="M44.3783 44.9958L44.847 57.2694C44.847 57.2694 44.8475 57.5034 45.0012 57.5086C45.1618 57.4972 45.1613 57.2632 45.1613 57.2632L45.6286 44.9876M43.8452 48.9638C43.1312 50.4995 43.7375 51.7637 43.0425 53.1124C42.324 54.4708 42.7652 55.5693 42.7374 56.2008C42.6764 56.8184 42.1797 56.9828 42.2949 57.128C42.4268 57.28 42.9384 56.9854 43.1624 56.1625C43.3629 55.3493 42.8773 54.8754 43.7198 53.2176C44.5623 51.5598 43.8962 50.8163 44.7363 49.3524" fill="#F6B40E"/>
<path d="M44.3783 44.9958L44.847 57.2694C44.847 57.2694 44.8475 57.5034 45.0012 57.5086C45.1618 57.4972 45.1613 57.2632 45.1613 57.2632L45.6286 44.9876M43.8452 48.9638C43.1312 50.4995 43.7375 51.7637 43.0425 53.1124C42.324 54.4708 42.7652 55.5693 42.7374 56.2008C42.6764 56.8184 42.1797 56.9828 42.2949 57.128C42.4268 57.28 42.9384 56.9854 43.1624 56.1625C43.3629 55.3493 42.8773 54.8754 43.7198 53.2176C44.5623 51.5598 43.8962 50.8163 44.7363 49.3524" stroke="#85340A" stroke-width="0.1408"/>
<path d="M44.4273 44.7581L40.1634 56.2769C40.1634 56.2769 40.0743 56.4933 40.2143 56.5569C40.367 56.6078 40.4561 56.3915 40.4561 56.3915L45.5855 45.2291M42.4162 48.2201C41.1689 49.3657 41.2453 50.7657 40.087 51.7458C38.9033 52.7258 38.8906 53.9095 38.6233 54.4823C38.3306 55.0296 37.8087 54.9914 37.8596 55.1696C37.9233 55.3605 38.5088 55.2841 39.0306 54.6096C39.527 53.935 39.2597 53.3113 40.6725 52.1022C42.0853 50.893 41.7544 49.9511 43.0908 48.9202" fill="#F6B40E"/>
<path d="M44.4273 44.7581L40.1634 56.2769C40.1634 56.2769 40.0743 56.4933 40.2143 56.5569C40.367 56.6078 40.4561 56.3915 40.4561 56.3915L45.5855 45.2291M42.4162 48.2201C41.1689 49.3657 41.2453 50.7657 40.087 51.7458C38.9033 52.7258 38.8906 53.9095 38.6233 54.4823C38.3306 55.0296 37.8087 54.9914 37.8596 55.1696C37.9233 55.3605 38.5088 55.2841 39.0306 54.6096C39.527 53.935 39.2597 53.3113 40.6725 52.1022C42.0853 50.893 41.7544 49.9511 43.0908 48.9202" stroke="#85340A" stroke-width="0.1408"/>
<path d="M44.5634 44.5574L36.2161 53.5676C36.2161 53.5676 36.0509 53.7334 36.1559 53.8458C36.2776 53.9513 36.4427 53.7855 36.4427 53.7855L45.4532 45.4357M41.3806 46.9863C39.7899 47.5672 39.3246 48.89 37.8795 49.3522C36.4109 49.8046 35.9461 50.8934 35.48 51.3202C35.0001 51.7139 34.5326 51.4789 34.5114 51.663C34.4972 51.8637 35.0673 52.0172 35.8076 51.5937C36.5243 51.1604 36.5161 50.4819 38.284 49.9055C40.052 49.329 40.1067 48.3322 41.7359 47.8912" fill="#F6B40E"/>
<path d="M44.5634 44.5574L36.2161 53.5676C36.2161 53.5676 36.0509 53.7334 36.1559 53.8458C36.2776 53.9513 36.4427 53.7855 36.4427 53.7855L45.4532 45.4357M41.3806 46.9863C39.7899 47.5672 39.3246 48.89 37.8795 49.3522C36.4109 49.8046 35.9461 50.8934 35.48 51.3202C35.0001 51.7139 34.5326 51.4789 34.5114 51.663C34.4972 51.8637 35.0673 52.0172 35.8076 51.5937C36.5243 51.1604 36.5161 50.4819 38.284 49.9055C40.052 49.329 40.1067 48.3322 41.7359 47.8912" stroke="#85340A" stroke-width="0.1408"/>
<path d="M45.774 49.392C45.864 51.012 46.782 51.732 46.602 53.226C46.998 52.056 46.044 51.138 46.098 49.41M44.712 45.126L48.222 52.794L45.288 44.892" fill="#85340A"/>
<path d="M44.0344 49.3538C43.4976 50.885 44.0701 51.9015 43.3321 53.2129C44.1457 52.2835 43.6156 51.0703 44.3268 49.4945M44.6857 45.0062L44.9941 53.4337L45.3074 45.0104" fill="#85340A"/>
<path d="M42.4417 48.6529C41.3598 49.8621 41.4998 51.0203 40.3161 51.9494C41.4235 51.4021 41.398 50.0784 42.6581 48.8947M44.7073 44.8854L41.7671 52.7895L45.28 45.1273" fill="#85340A"/>
<path d="M41.2385 47.3958C39.7763 48.0989 39.4624 49.2226 38.0132 49.628C39.2457 49.5461 39.7287 48.3134 41.3459 47.702M44.7734 44.7821L39.0323 50.9593L45.21 45.2247" fill="#85340A"/>
<path d="M44.766 44.424L33.606 49.554C33.606 49.554 33.39 49.644 33.444 49.788C33.516 49.932 33.732 49.842 33.732 49.842L45.252 45.576M40.896 45.45C39.204 45.378 38.268 46.422 36.756 46.296C35.226 46.152 34.38 46.98 33.786 47.196C33.192 47.376 32.85 46.98 32.76 47.142C32.67 47.322 33.138 47.682 33.984 47.574C34.812 47.448 35.064 46.818 36.918 46.962C38.772 47.106 39.204 46.206 40.878 46.422" fill="#F6B40E"/>
<path d="M44.766 44.424L33.606 49.554C33.606 49.554 33.39 49.644 33.444 49.788C33.516 49.932 33.732 49.842 33.732 49.842L45.252 45.576M40.896 45.45C39.204 45.378 38.268 46.422 36.756 46.296C35.226 46.152 34.38 46.98 33.786 47.196C33.192 47.376 32.85 46.98 32.76 47.142C32.67 47.322 33.138 47.682 33.984 47.574C34.812 47.448 35.064 46.818 36.918 46.962C38.772 47.106 39.204 46.206 40.878 46.422" stroke="#85340A" stroke-width="0.1408"/>
<path d="M45.0042 44.3783L32.7306 44.847C32.7306 44.847 32.4966 44.8475 32.4914 45.0012C32.5028 45.1618 32.7368 45.1613 32.7368 45.1613L45.0124 45.6286M41.0362 43.8452C39.5005 43.1312 38.2363 43.7375 36.8876 43.0425C35.5292 42.324 34.4307 42.7652 33.7992 42.7374C33.1816 42.6764 33.0172 42.1797 32.872 42.2949C32.72 42.4268 33.0146 42.9384 33.8375 43.1624C34.6507 43.3629 35.1246 42.8773 36.7824 43.7198C38.4402 44.5623 39.1837 43.8962 40.6476 44.7363" fill="#F6B40E"/>
<path d="M45.0042 44.3783L32.7306 44.847C32.7306 44.847 32.4966 44.8475 32.4914 45.0012C32.5028 45.1618 32.7368 45.1613 32.7368 45.1613L45.0124 45.6286M41.0362 43.8452C39.5005 43.1312 38.2363 43.7375 36.8876 43.0425C35.5292 42.324 34.4307 42.7652 33.7992 42.7374C33.1816 42.6764 33.0172 42.1797 32.872 42.2949C32.72 42.4268 33.0146 42.9384 33.8375 43.1624C34.6507 43.3629 35.1246 42.8773 36.7824 43.7198C38.4402 44.5623 39.1837 43.8962 40.6476 44.7363" stroke="#85340A" stroke-width="0.1408"/>
<path d="M45.2418 44.4272L33.7231 40.1634C33.7231 40.1634 33.5067 40.0743 33.443 40.2143C33.3921 40.367 33.6085 40.4561 33.6085 40.4561L44.7709 45.5855M41.7798 42.4162C40.6343 41.1689 39.2342 41.2452 38.2542 40.087C37.2741 38.9033 36.0905 38.8906 35.5177 38.6233C34.9704 38.3306 35.0086 37.8087 34.8304 37.8596C34.6395 37.9233 34.7158 38.5087 35.3904 39.0306C36.065 39.527 36.6887 39.2597 37.8978 40.6725C39.107 42.0853 40.0488 41.7544 41.0798 43.0908" fill="#F6B40E"/>
<path d="M45.2418 44.4272L33.7231 40.1634C33.7231 40.1634 33.5067 40.0743 33.443 40.2143C33.3921 40.367 33.6085 40.4561 33.6085 40.4561L44.7709 45.5855M41.7798 42.4162C40.6343 41.1689 39.2342 41.2452 38.2542 40.087C37.2741 38.9033 36.0905 38.8906 35.5177 38.6233C34.9704 38.3306 35.0086 37.8087 34.8304 37.8596C34.6395 37.9233 34.7158 38.5087 35.3904 39.0306C36.065 39.527 36.6887 39.2597 37.8978 40.6725C39.107 42.0853 40.0488 41.7544 41.0798 43.0908" stroke="#85340A" stroke-width="0.1408"/>
<path d="M45.4426 44.5634L36.4324 36.2161C36.4324 36.2161 36.2666 36.0509 36.1542 36.1559C36.0487 36.2776 36.2145 36.4427 36.2145 36.4427L44.5643 45.4532M43.0137 41.3806C42.4328 39.7899 41.11 39.3246 40.6478 37.8795C40.1954 36.4109 39.1066 35.9461 38.6798 35.48C38.2861 35.0001 38.5211 34.5326 38.337 34.5114C38.1363 34.4972 37.9828 35.0673 38.4063 35.8076C38.8396 36.5243 39.5181 36.5161 40.0945 38.284C40.671 40.052 41.6678 40.1067 42.1088 41.7359" fill="#F6B40E"/>
<path d="M45.4426 44.5634L36.4324 36.2161C36.4324 36.2161 36.2666 36.0509 36.1542 36.1559C36.0487 36.2776 36.2145 36.4427 36.2145 36.4427L44.5643 45.4532M43.0137 41.3806C42.4328 39.7899 41.11 39.3246 40.6478 37.8795C40.1954 36.4109 39.1066 35.9461 38.6798 35.48C38.2861 35.0001 38.5211 34.5326 38.337 34.5114C38.1363 34.4972 37.9828 35.0673 38.4063 35.8076C38.8396 36.5243 39.5181 36.5161 40.0945 38.284C40.671 40.052 41.6678 40.1067 42.1088 41.7359" stroke="#85340A" stroke-width="0.1408"/>
<path d="M40.608 45.774C38.988 45.864 38.268 46.782 36.774 46.602C37.944 46.998 38.862 46.044 40.59 46.098M44.874 44.712L37.206 48.222L45.108 45.288" fill="#85340A"/>
<path d="M40.6461 44.0343C39.115 43.4975 38.0985 44.0701 36.7871 43.3321C37.7165 44.1457 38.9297 43.6156 40.5055 44.3267M44.9938 44.6857L36.5663 44.9941L44.9896 45.3074" fill="#85340A"/>
<path d="M41.3471 42.4416C40.1379 41.3598 38.9797 41.4998 38.0506 40.3161C38.5979 41.4234 39.9216 41.398 41.1053 42.658M45.1146 44.7072L37.2105 41.7671L44.8727 45.28" fill="#85340A"/>
<path d="M42.6042 41.2385C41.9011 39.7763 40.7774 39.4624 40.372 38.0132C40.4539 39.2457 41.6866 39.7287 42.2979 41.3459M45.2179 44.7734L39.0406 39.0323L44.7752 45.21" fill="#85340A"/>
<path d="M45.576 44.766L40.446 33.606C40.446 33.606 40.356 33.39 40.212 33.444C40.068 33.516 40.158 33.732 40.158 33.732L44.424 45.252M44.55 40.896C44.622 39.204 43.578 38.268 43.704 36.756C43.848 35.226 43.02 34.38 42.804 33.786C42.624 33.192 43.02 32.85 42.858 32.76C42.678 32.67 42.318 33.138 42.426 33.984C42.552 34.812 43.182 35.064 43.038 36.918C42.894 38.772 43.794 39.204 43.578 40.878" fill="#F6B40E"/>
<path d="M45.576 44.766L40.446 33.606C40.446 33.606 40.356 33.39 40.212 33.444C40.068 33.516 40.158 33.732 40.158 33.732L44.424 45.252M44.55 40.896C44.622 39.204 43.578 38.268 43.704 36.756C43.848 35.226 43.02 34.38 42.804 33.786C42.624 33.192 43.02 32.85 42.858 32.76C42.678 32.67 42.318 33.138 42.426 33.984C42.552 34.812 43.182 35.064 43.038 36.918C42.894 38.772 43.794 39.204 43.578 40.878" stroke="#85340A" stroke-width="0.1408"/>
<path d="M45.6217 45.0042L45.1529 32.7306C45.1529 32.7306 45.1524 32.4966 44.9987 32.4914C44.8381 32.5028 44.8386 32.7368 44.8386 32.7368L44.3714 45.0124M46.1548 41.0362C46.8688 39.5005 46.2624 38.2363 46.9575 36.8876C47.676 35.5292 47.2348 34.4307 47.2625 33.7992C47.3236 33.1816 47.8203 33.0172 47.7051 32.872C47.5732 32.72 47.0615 33.0146 46.8376 33.8375C46.6371 34.6507 47.1227 35.1246 46.2802 36.7824C45.4376 38.4402 46.1038 39.1837 45.2636 40.6476" fill="#F6B40E"/>
<path d="M45.6217 45.0042L45.1529 32.7306C45.1529 32.7306 45.1524 32.4966 44.9987 32.4914C44.8381 32.5028 44.8386 32.7368 44.8386 32.7368L44.3714 45.0124M46.1548 41.0362C46.8688 39.5005 46.2624 38.2363 46.9575 36.8876C47.676 35.5292 47.2348 34.4307 47.2625 33.7992C47.3236 33.1816 47.8203 33.0172 47.7051 32.872C47.5732 32.72 47.0615 33.0146 46.8376 33.8375C46.6371 34.6507 47.1227 35.1246 46.2802 36.7824C45.4376 38.4402 46.1038 39.1837 45.2636 40.6476" stroke="#85340A" stroke-width="0.1408"/>
<path d="M45.5727 45.2419L49.8366 33.7231C49.8366 33.7231 49.9257 33.5067 49.7857 33.4431C49.633 33.3922 49.5439 33.6085 49.5439 33.6085L44.4145 44.7709M47.5838 41.7799C48.8311 40.6343 48.7547 39.2343 49.913 38.2542C51.0967 37.2742 51.1094 36.0905 51.3767 35.5177C51.6694 34.9704 52.1913 35.0086 52.1404 34.8304C52.0767 34.6395 51.4912 34.7159 50.9694 35.3904C50.473 36.065 50.7403 36.6887 49.3275 37.8978C47.9147 39.107 48.2456 40.0489 46.9092 41.0798" fill="#F6B40E"/>
<path d="M45.5727 45.2419L49.8366 33.7231C49.8366 33.7231 49.9257 33.5067 49.7857 33.4431C49.633 33.3922 49.5439 33.6085 49.5439 33.6085L44.4145 44.7709M47.5838 41.7799C48.8311 40.6343 48.7547 39.2343 49.913 38.2542C51.0967 37.2742 51.1094 36.0905 51.3767 35.5177C51.6694 34.9704 52.1913 35.0086 52.1404 34.8304C52.0767 34.6395 51.4912 34.7159 50.9694 35.3904C50.473 36.065 50.7403 36.6887 49.3275 37.8978C47.9147 39.107 48.2456 40.0489 46.9092 41.0798" stroke="#85340A" stroke-width="0.1408"/>
<path d="M45.4366 45.4426L53.7839 36.4324C53.7839 36.4324 53.9491 36.2666 53.8441 36.1542C53.7224 36.0487 53.5573 36.2145 53.5573 36.2145L44.5468 44.5643M48.6194 43.0137C50.2101 42.4328 50.6754 41.11 52.1205 40.6478C53.5891 40.1954 54.0539 39.1066 54.52 38.6798C54.9999 38.2861 55.4674 38.5211 55.4886 38.337C55.5028 38.1363 54.9327 37.9828 54.1924 38.4063C53.4757 38.8396 53.4839 39.5181 51.716 40.0945C49.948 40.671 49.8933 41.6678 48.2641 42.1088" fill="#F6B40E"/>
<path d="M45.4366 45.4426L53.7839 36.4324C53.7839 36.4324 53.9491 36.2666 53.8441 36.1542C53.7224 36.0487 53.5573 36.2145 53.5573 36.2145L44.5468 44.5643M48.6194 43.0137C50.2101 42.4328 50.6754 41.11 52.1205 40.6478C53.5891 40.1954 54.0539 39.1066 54.52 38.6798C54.9999 38.2861 55.4674 38.5211 55.4886 38.337C55.5028 38.1363 54.9327 37.9828 54.1924 38.4063C53.4757 38.8396 53.4839 39.5181 51.716 40.0945C49.948 40.671 49.8933 41.6678 48.2641 42.1088" stroke="#85340A" stroke-width="0.1408"/>
<path d="M44.226 40.608C44.136 38.988 43.218 38.268 43.398 36.774C43.002 37.944 43.956 38.862 43.902 40.59M45.288 44.874L41.778 37.206L44.712 45.108" fill="#85340A"/>
<path d="M45.9656 40.6462C46.5024 39.115 45.9299 38.0985 46.6679 36.7871C45.8543 37.7165 46.3844 38.9297 45.6732 40.5055M45.3143 44.9938L45.0059 36.5663L44.6926 44.9896" fill="#85340A"/>
<path d="M47.5583 41.3471C48.6402 40.1379 48.5002 38.9797 49.6839 38.0506C48.5765 38.5979 48.602 39.9216 47.3419 41.1053M45.2927 45.1146L48.2329 37.2105L44.72 44.8727" fill="#85340A"/>
<path d="M48.7615 42.6042C50.2237 41.9011 50.5376 40.7774 51.9868 40.372C50.7543 40.4539 50.2713 41.6866 48.6541 42.298M45.2266 45.2179L50.9677 39.0407L44.79 44.7753" fill="#85340A"/>
<path d="M45.234 45.576L56.394 40.446C56.394 40.446 56.61 40.356 56.556 40.212C56.484 40.068 56.268 40.158 56.268 40.158L44.748 44.424M49.104 44.55C50.796 44.622 51.732 43.578 53.244 43.704C54.774 43.848 55.62 43.02 56.214 42.804C56.808 42.624 57.15 43.02 57.24 42.858C57.33 42.678 56.862 42.318 56.016 42.426C55.188 42.552 54.936 43.182 53.082 43.038C51.228 42.894 50.796 43.794 49.122 43.578" fill="#F6B40E"/>
<path d="M45.234 45.576L56.394 40.446C56.394 40.446 56.61 40.356 56.556 40.212C56.484 40.068 56.268 40.158 56.268 40.158L44.748 44.424M49.104 44.55C50.796 44.622 51.732 43.578 53.244 43.704C54.774 43.848 55.62 43.02 56.214 42.804C56.808 42.624 57.15 43.02 57.24 42.858C57.33 42.678 56.862 42.318 56.016 42.426C55.188 42.552 54.936 43.182 53.082 43.038C51.228 42.894 50.796 43.794 49.122 43.578" stroke="#85340A" stroke-width="0.1408"/>
<path d="M44.9958 45.6217L57.2694 45.153C57.2694 45.153 57.5034 45.1525 57.5086 44.9988C57.4972 44.8382 57.2632 44.8387 57.2632 44.8387L44.9876 44.3714M48.9638 46.1548C50.4995 46.8688 51.7637 46.2625 53.1124 46.9575C54.4708 47.676 55.5693 47.2348 56.2008 47.2626C56.8184 47.3236 56.9828 47.8203 57.128 47.7051C57.28 47.5732 56.9854 47.0616 56.1625 46.8376C55.3493 46.6371 54.8754 47.1227 53.2176 46.2802C51.5598 45.4377 50.8163 46.1038 49.3524 45.2637" fill="#F6B40E"/>
<path d="M44.9958 45.6217L57.2694 45.153C57.2694 45.153 57.5034 45.1525 57.5086 44.9988C57.4972 44.8382 57.2632 44.8387 57.2632 44.8387L44.9876 44.3714M48.9638 46.1548C50.4995 46.8688 51.7637 46.2625 53.1124 46.9575C54.4708 47.676 55.5693 47.2348 56.2008 47.2626C56.8184 47.3236 56.9828 47.8203 57.128 47.7051C57.28 47.5732 56.9854 47.0616 56.1625 46.8376C55.3493 46.6371 54.8754 47.1227 53.2176 46.2802C51.5598 45.4377 50.8163 46.1038 49.3524 45.2637" stroke="#85340A" stroke-width="0.1408"/>
<path d="M44.7582 45.5728L56.2769 49.8366C56.2769 49.8366 56.4933 49.9257 56.557 49.7857C56.6079 49.633 56.3915 49.5439 56.3915 49.5439L45.2291 44.4145M48.2202 47.5838C49.3657 48.8311 50.7658 48.7548 51.7458 49.913C52.7259 51.0967 53.9095 51.1094 54.4823 51.3767C55.0296 51.6694 54.9914 52.1913 55.1696 52.1404C55.3605 52.0767 55.2842 51.4913 54.6096 50.9694C53.935 50.473 53.3113 50.7403 52.1022 49.3275C50.893 47.9147 49.9512 48.2456 48.9202 46.9092" fill="#F6B40E"/>
<path d="M44.7582 45.5728L56.2769 49.8366C56.2769 49.8366 56.4933 49.9257 56.557 49.7857C56.6079 49.633 56.3915 49.5439 56.3915 49.5439L45.2291 44.4145M48.2202 47.5838C49.3657 48.8311 50.7658 48.7548 51.7458 49.913C52.7259 51.0967 53.9095 51.1094 54.4823 51.3767C55.0296 51.6694 54.9914 52.1913 55.1696 52.1404C55.3605 52.0767 55.2842 51.4913 54.6096 50.9694C53.935 50.473 53.3113 50.7403 52.1022 49.3275C50.893 47.9147 49.9512 48.2456 48.9202 46.9092" stroke="#85340A" stroke-width="0.1408"/>
<path d="M44.5574 45.4366L53.5676 53.7839C53.5676 53.7839 53.7334 53.9491 53.8458 53.8441C53.9513 53.7224 53.7855 53.5573 53.7855 53.5573L45.4357 44.5468M46.9863 48.6194C47.5672 50.2101 48.89 50.6754 49.3522 52.1205C49.8046 53.5891 50.8934 54.0539 51.3202 54.52C51.7139 54.9999 51.4789 55.4674 51.663 55.4886C51.8637 55.5028 52.0172 54.9327 51.5937 54.1924C51.1604 53.4757 50.4819 53.4839 49.9055 51.716C49.329 49.948 48.3322 49.8933 47.8912 48.2641" fill="#F6B40E"/>
<path d="M44.5574 45.4366L53.5676 53.7839C53.5676 53.7839 53.7334 53.9491 53.8458 53.8441C53.9513 53.7224 53.7855 53.5573 53.7855 53.5573L45.4357 44.5468M46.9863 48.6194C47.5672 50.2101 48.89 50.6754 49.3522 52.1205C49.8046 53.5891 50.8934 54.0539 51.3202 54.52C51.7139 54.9999 51.4789 55.4674 51.663 55.4886C51.8637 55.5028 52.0172 54.9327 51.5937 54.1924C51.1604 53.4757 50.4819 53.4839 49.9055 51.716C49.329 49.948 48.3322 49.8933 47.8912 48.2641" stroke="#85340A" stroke-width="0.1408"/>
<path d="M49.392 44.226C51.012 44.136 51.732 43.218 53.226 43.398C52.056 43.002 51.138 43.956 49.41 43.902M45.126 45.288L52.794 41.778L44.892 44.712" fill="#85340A"/>
<path d="M49.3539 45.9657C50.885 46.5025 51.9015 45.9299 53.2129 46.6679C52.2835 45.8543 51.0703 46.3844 49.4945 45.6733M45.0062 45.3143L53.4337 45.0059L45.0104 44.6926" fill="#85340A"/>
<path d="M48.6529 47.5584C49.8621 48.6402 51.0203 48.5002 51.9494 49.6839C51.4021 48.5766 50.0784 48.602 48.8947 47.342M44.8854 45.2928L52.7895 48.2329L45.1273 44.72" fill="#85340A"/>
<path d="M47.3958 48.7615C48.0989 50.2237 49.2226 50.5376 49.628 51.9868C49.5461 50.7543 48.3134 50.2713 47.7021 48.6541M44.7821 45.2266L50.9594 50.9677L45.2248 44.79" fill="#85340A"/>
<path d="M45 49.9922C47.7571 49.9922 49.9922 47.7571 49.9922 45C49.9922 42.2429 47.7571 40.0078 45 40.0078C42.2429 40.0078 40.0078 42.2429 40.0078 45C40.0078 47.7571 42.2429 49.9922 45 49.9922Z" fill="#F6B40E" stroke="#85340A" stroke-width="0.1875"/>
<path d="M46.7051 43.9453C46.3535 43.9453 46.0371 44.0859 45.8438 44.3848C46.2305 44.7363 47.0742 44.7715 47.6543 44.3496C47.5329 44.2187 47.3862 44.1138 47.223 44.0412C47.0598 43.9687 46.8836 43.9301 46.7051 43.9277V43.9453ZM46.7051 44.0156C47.0391 44.0156 47.3379 44.1563 47.3906 44.3145C47.0039 44.7363 46.3887 44.7012 46.002 44.3848C46.1777 44.1211 46.4414 44.0156 46.7051 44.0156Z" fill="#843511"/>
<path d="M46.7754 43.6992C46.2832 43.6992 46.1601 43.8047 45.9316 43.998C45.7031 44.1914 45.5801 44.1562 45.5449 44.1914C45.5098 44.2266 45.5449 44.3496 45.6152 44.3145C45.7031 44.2617 45.8613 44.1914 46.0898 43.998C46.3183 43.8223 46.5469 43.8223 46.793 43.8223C47.4609 43.8223 47.8476 44.3848 47.9355 44.3496C48.0058 44.3145 47.5488 43.6992 46.7754 43.6992Z" fill="#85340A"/>
<path d="M48.1641 43.9278C47.2852 43.1543 46.1602 43.0488 45.5449 43.6113C45.401 43.8028 45.3046 44.0257 45.2637 44.2617C45.1758 44.7012 45.3164 45.1758 45.668 45.668C45.6152 45.668 45.5449 45.6856 45.4922 45.7383C45.1934 45.1406 45.0879 44.543 45.1934 43.9805L45.3164 43.541C46.1602 42.8379 47.3203 42.7676 48.1641 43.9278Z" fill="#85340A"/>
<path d="M46.6875 44.666C46.8817 44.666 47.0391 44.5086 47.0391 44.3145C47.0391 44.1203 46.8817 43.9629 46.6875 43.9629C46.4933 43.9629 46.3359 44.1203 46.3359 44.3145C46.3359 44.5086 46.4933 44.666 46.6875 44.666Z" fill="#85340A"/>
<path d="M47.6895 44.543C47.0391 45.0352 46.3887 45 46.002 44.7715C45.6152 44.543 45.6152 44.4551 45.7031 44.4551C45.7734 44.4551 45.8613 44.543 46.1602 44.7012C46.4766 44.8418 46.9336 44.8418 47.707 44.5254L47.6895 44.543Z" fill="#85340A"/>
<path d="M44.2266 45.7031C44.1677 45.7114 44.1119 45.7345 44.0644 45.7703C44.0169 45.806 43.9792 45.8532 43.9549 45.9075C43.9305 45.9617 43.9204 46.0213 43.9253 46.0805C43.9303 46.1398 43.9502 46.1968 43.9832 46.2463C44.0161 46.2957 44.0611 46.336 44.1139 46.3634C44.1667 46.3907 44.2256 46.4043 44.285 46.4027C44.3444 46.4011 44.4025 46.3845 44.4538 46.3544C44.505 46.3242 44.5478 46.2816 44.5781 46.2305C44.7188 46.3359 44.8945 46.3359 45 46.3359H45.0527C45.1406 46.3359 45.334 46.3359 45.457 46.2305C45.5273 46.3184 45.6328 46.3711 45.7383 46.3711C45.819 46.3632 45.8946 46.3276 45.9521 46.2704C46.0096 46.2131 46.0455 46.1378 46.0538 46.0571C46.062 45.9764 46.0422 45.8953 45.9975 45.8276C45.9528 45.7598 45.8861 45.7097 45.8086 45.6855C45.8965 45.7207 45.9668 45.8086 45.9668 45.9141C45.9668 45.977 45.9418 46.0374 45.8973 46.0819C45.8528 46.1264 45.7924 46.1514 45.7295 46.1514C45.6666 46.1514 45.6062 46.1264 45.5617 46.0819C45.5172 46.0374 45.4922 45.977 45.4922 45.9141C45.4517 46.0068 45.3855 46.0859 45.3014 46.142C45.2172 46.1981 45.1187 46.2288 45.0176 46.2305C44.9179 46.2231 44.8218 46.1901 44.7387 46.1346C44.6555 46.0792 44.5881 46.0032 44.543 45.9141C44.543 46.0371 44.4375 46.1426 44.3145 46.1426C44.2538 46.1519 44.192 46.1368 44.1426 46.1005C44.0931 46.0642 44.0601 46.0098 44.0508 45.9492C44.0415 45.8886 44.0566 45.8268 44.0929 45.7773C44.1291 45.7279 44.1835 45.6949 44.2441 45.6855L44.2266 45.7031ZM44.6133 46.7227C44.2266 46.7227 44.0859 47.0742 43.7344 47.3027C43.9102 47.2148 44.0859 47.0742 44.3496 46.916C44.6133 46.7578 44.8418 46.9512 45 46.9512C45.1582 46.9512 45.3867 46.7578 45.6504 46.916C45.9141 47.0742 46.0723 47.2148 46.2656 47.3027C45.9141 47.0566 45.7734 46.7227 45.3867 46.7227C45.2523 46.7328 45.121 46.7686 45 46.8281C44.8242 46.7578 44.6836 46.7227 44.6133 46.7227Z" fill="#85340A"/>
<path d="M44.4727 47.1621C44.332 47.1621 44.1211 47.2148 43.8398 47.3027C44.543 47.127 44.6836 47.373 45 47.373C45.2988 47.373 45.457 47.1445 46.1602 47.3027C45.3867 47.0566 45.2285 47.2148 45 47.2148C44.8418 47.2148 44.7363 47.1621 44.4727 47.1621Z" fill="#85340A"/>
<path d="M43.875 47.2852H43.7344C44.543 47.373 44.1562 47.8301 45 47.8301C45.8437 47.8301 45.457 47.373 46.2656 47.3027C45.4219 47.2148 45.6855 47.7246 45 47.7246C44.3496 47.7246 44.543 47.2852 43.875 47.2852Z" fill="#85340A"/>
<path d="M41.8887 43.9278C42.7676 43.1543 43.8926 43.0488 44.5078 43.6113C44.6518 43.8028 44.7482 44.0257 44.7891 44.2617C44.877 44.7012 44.7363 45.1758 44.3848 45.668C44.4375 45.668 44.5078 45.6856 44.5605 45.7383C44.8594 45.1406 44.9648 44.543 44.8594 43.9805L44.7363 43.541C43.8926 42.8379 42.7324 42.7676 41.8887 43.9278Z" fill="#85340A"/>
<path d="M43.2774 43.6992C43.7695 43.6992 43.8926 43.8047 44.1211 43.998C44.3496 44.1914 44.4727 44.1562 44.5078 44.1914C44.543 44.2266 44.5078 44.3496 44.4375 44.3145C44.3496 44.2617 44.1914 44.1914 43.9629 43.998C43.7344 43.8223 43.5059 43.8223 43.2598 43.8223C42.5918 43.8223 42.2051 44.3848 42.1172 44.3496C42.0469 44.3145 42.5039 43.6992 43.2774 43.6992Z" fill="#85340A"/>
<path d="M43.2598 43.9453C42.9082 43.9453 42.5918 44.0859 42.3984 44.3848C42.7852 44.7363 43.6289 44.7715 44.209 44.3496C44.0876 44.2187 43.9408 44.1138 43.7777 44.0412C43.6145 43.9687 43.4383 43.9301 43.2598 43.9277V43.9453ZM43.2598 44.0156C43.5938 44.0156 43.8926 44.1563 43.9453 44.3145C43.5586 44.7363 42.9434 44.7012 42.5566 44.3848C42.7324 44.1211 42.9961 44.0156 43.2598 44.0156Z" fill="#843511"/>
<path d="M43.2949 44.666C43.4891 44.666 43.6465 44.5086 43.6465 44.3145C43.6465 44.1203 43.4891 43.9629 43.2949 43.9629C43.1008 43.9629 42.9434 44.1203 42.9434 44.3145C42.9434 44.5086 43.1008 44.666 43.2949 44.666Z" fill="#85340A"/>
<path d="M42.3633 44.543C43.0137 45.0352 43.6641 45 44.0508 44.7715C44.4375 44.543 44.4375 44.4551 44.3496 44.4551C44.2793 44.4551 44.1914 44.543 43.8926 44.7012C43.5762 44.8418 43.1191 44.8418 42.3457 44.5254L42.3633 44.543Z" fill="#85340A"/>
</g>
<defs>
<clipPath id="clip0_14_227">
<rect width="90" height="90" rx="45" fill="white"/>
</clipPath>
</defs>
</svg>
