<svg width="90" height="90" viewBox="0 0 90 90" fill="none" xmlns="http://www.w3.org/2000/svg">
<g clip-path="url(#clip0_14_1703)">
<path fill-rule="evenodd" clip-rule="evenodd" d="M0 0H90V90H0V0Z" fill="#229E45"/>
<path fill-rule="evenodd" clip-rule="evenodd" d="M45.9492 71.2617L86.3438 45.0352L45.7031 18.7383L5.15039 45.1055L45.9492 71.2617Z" fill="#F8E509"/>
<path fill-rule="evenodd" clip-rule="evenodd" d="M63.5449 45C63.616 47.2887 63.2262 49.5684 62.3988 51.7036C61.5715 53.8387 60.3234 55.7858 58.7287 57.4291C57.1339 59.0724 55.2252 60.3783 53.1158 61.2694C51.0064 62.1604 48.7395 62.6184 46.4496 62.616C44.1598 62.6137 41.8937 62.151 39.7862 61.2557C37.6787 60.3603 35.7726 59.0504 34.1813 57.4038C32.59 55.7573 31.3459 53.8076 30.5229 51.6708C29.6999 49.5339 29.3149 47.2534 29.3906 44.9648C29.5374 40.5306 31.4032 36.3274 34.5935 33.2442C37.7837 30.161 42.0482 28.4396 46.4848 28.4442C50.9214 28.4487 55.1823 30.1789 58.3662 33.2686C61.5501 36.3584 63.4073 40.5655 63.5449 45Z" fill="#2B49A3"/>
<path fill-rule="evenodd" clip-rule="evenodd" d="M40.834 55.2305L40.3066 54.9141L39.7617 55.1953L39.8848 54.5801L39.4629 54.1406L40.0605 54.0703L40.3418 53.5078L40.6055 54.0879L41.2031 54.1934L40.7461 54.6152M52.2949 58.1309L51.7676 57.8145L51.2051 58.0957L51.3281 57.4805L50.9062 57.041L51.5215 56.9707L51.8027 56.4082L52.0488 56.9883L52.6465 57.0937L52.207 57.5156M47.3555 53.4902L46.8984 53.2266L46.4238 53.4551L46.5293 52.9277L46.1777 52.541L46.6875 52.4883L46.9336 52.0137L47.1445 52.5059L47.6719 52.5938L47.2852 52.9453M58.9219 51.8203L58.4648 51.5566L58.0078 51.7852L58.1133 51.2754L57.7617 50.9063L58.2715 50.8359L58.5 50.3789L58.7285 50.8535L59.2383 50.9414L58.8516 51.293M47.1445 48.3574L46.6172 48.041L46.0723 48.3223L46.1953 47.707L45.7734 47.2676L46.3711 47.1973L46.6523 46.6523L46.916 47.2148L47.5137 47.3203L47.0566 47.7422M33.0469 43.0664L32.5195 42.75L31.9922 43.0312L32.0977 42.416L31.6758 41.9766L32.291 41.9062L32.5723 41.3437L32.8184 41.9238L33.416 42.0293L32.9766 42.4512M34.752 50.0977L34.2246 49.7988L33.6797 50.0625L33.8027 49.4648L33.3809 49.0078L33.9785 48.9375L34.2598 48.4102L34.5234 48.9551L35.1211 49.0781L34.6641 49.4824M52.3477 40.4648L51.8906 40.2012L51.3984 40.4297L51.5039 39.9023L51.1523 39.498L51.6797 39.4453L51.9258 38.9531L52.1543 39.4629L52.6816 39.5508L52.2773 39.9199M51.3984 45.0527L50.9766 44.8242L50.6074 45L50.6777 44.5781L50.3965 44.2793L50.8184 44.2266L51.0117 43.8398L51.1875 44.2441L51.6094 44.3145L51.293 44.5957M32.2383 51.3633L31.8867 51.1523L31.5176 51.3281L31.5879 50.9238L31.3066 50.625L31.7285 50.5898L31.9043 50.2383L32.0801 50.5898L32.4844 50.6777L32.1855 50.959M59.0098 52.9805L58.7109 52.8398L58.4121 52.9629L58.4824 52.6641L58.2539 52.4355L58.5879 52.4004L58.7461 52.1367L58.8691 52.418L59.2031 52.4707L58.957 52.6816" fill="#FFFFEF"/>
<path fill-rule="evenodd" clip-rule="evenodd" d="M32.2559 51.3809L31.9043 51.1699L31.5352 51.3457L31.623 50.9414L31.3242 50.6426L31.7285 50.6074L31.9219 50.2559L32.0977 50.6074L32.502 50.6953L32.2031 50.9766" fill="#FFFFEF"/>
<path fill-rule="evenodd" clip-rule="evenodd" d="M32.2559 51.3809L31.9043 51.1699L31.5352 51.3457L31.623 50.9414L31.3242 50.6426L31.7285 50.6074L31.9219 50.2559L32.0977 50.6074L32.502 50.6953L32.2031 50.9766M37.8633 51.3809L37.5117 51.1699L37.1602 51.3457L37.2305 50.9414L36.9492 50.6426L37.3535 50.6074L37.5293 50.2383L37.7051 50.6074L38.1094 50.6953L37.8105 50.9766M37.1602 53.2617L36.8086 53.0508L36.457 53.2266L36.5273 52.8223L36.2461 52.5234L36.6504 52.4707L36.8262 52.1191L37.002 52.4707L37.4063 52.5586L37.1074 52.8398M48.832 49.8516L48.4805 49.6406L48.1113 49.8164L48.1816 49.4121L47.9004 49.1133L48.3047 49.0781L48.498 48.709L48.6738 49.0781L49.0605 49.1484L48.7617 49.4297M45.4043 49.8516L45.0527 49.6406L44.6836 49.8164L44.7715 49.4121L44.4902 49.1133L44.8945 49.0781L45.0703 48.709L45.2461 49.0781L45.6504 49.1484L45.3516 49.4297M36.123 48.6562L35.9121 48.5332L35.6836 48.6387L35.7187 48.375L35.543 48.1992L35.8066 48.1641L35.9297 47.9355L36.0176 48.1816L36.2812 48.2168L36.1055 48.3926M58.5703 54.4922L58.2188 54.2988L57.8496 54.4746L57.9375 54.0703L57.6562 53.7715L58.0605 53.7188L58.2363 53.3672L58.4121 53.7188L58.8164 53.8066L58.5176 54.0879M55.7051 54.8613L55.4238 54.6855L55.125 54.8613L55.1953 54.5098L54.9492 54.2637L55.3008 54.2285L55.4414 53.9297L55.582 54.2285L55.9336 54.2988L55.6699 54.5273M57.0762 54.8438L56.7949 54.668L56.5137 54.8262L56.5664 54.5098L56.3555 54.2812L56.6719 54.2461L56.8125 53.9648L56.9355 54.2461L57.252 54.2988L57.0234 54.5273M60.9258 51.4687L60.6621 51.3105L60.3809 51.4512L60.4512 51.1523L60.2402 50.9238L60.5391 50.8887L60.6797 50.625L60.8027 50.9063L61.1016 50.959L60.873 51.1699M55.7227 56.7598L55.3711 56.5664L55.0195 56.7422L55.1074 56.3555L54.8262 56.0918L55.2129 56.0391L55.4062 55.7051L55.582 56.0566L55.9512 56.127L55.6699 56.373M55.7402 58.2891L55.4238 58.1133L55.1074 58.2715L55.1777 57.8848L54.9316 57.6211L55.2832 57.5684L55.459 57.2344L55.5996 57.5859L55.9512 57.6562L55.6875 57.9023M53.1387 54.8438L52.875 54.6855L52.5938 54.8262L52.6641 54.5098L52.4531 54.2988L52.752 54.2637L52.8926 53.9824L53.0156 54.2637L53.3144 54.3164L53.0859 54.5273M50.7129 54.8438L50.4492 54.6855L50.168 54.8262L50.2383 54.5098L50.0273 54.2988L50.3262 54.2637L50.4668 53.9824L50.5898 54.2637L50.8887 54.3164L50.6777 54.5273M46.582 51.2227L46.3184 51.0645L46.0371 51.2051L46.1074 50.9063L45.8965 50.6777L46.1953 50.6426L46.3359 50.3789L46.459 50.6602L46.7578 50.7129L46.5293 50.9063M47.0391 58.5527L46.8105 58.4297L46.582 58.5527L46.6348 58.2891L46.459 58.1133L46.7051 58.0605L46.8281 57.832L46.9336 58.0781L47.1973 58.1133L47.0039 58.2891M40.8164 46.6875L40.2891 46.3887L39.7441 46.6523L39.8672 46.0547L39.4453 45.5977L40.043 45.5273L40.3242 44.9824L40.5879 45.5449L41.1855 45.6504L40.7285 46.0723" fill="#FFFFEF"/>
<path fill-rule="evenodd" clip-rule="evenodd" d="M62.4199 51.1523C62.7507 50.2905 63.0094 49.4027 63.1934 48.498C54.123 40.5176 43.998 36.4219 31.2012 37.2656C30.7427 38.1615 30.3662 39.0969 30.0762 40.0605C35.9469 39.4677 41.8764 40.1503 47.4588 42.0616C53.0412 43.973 58.1447 47.068 62.4199 51.1348V51.1523Z" fill="white"/>
<path d="M58.3418 46.6523L58.6582 46.8281C58.6089 46.926 58.5965 47.0383 58.623 47.1445C58.6406 47.2148 58.7109 47.3027 58.7988 47.3555C58.9043 47.4258 58.9922 47.4609 59.0801 47.4609C59.1504 47.4609 59.2207 47.4082 59.2559 47.3555C59.2734 47.3203 59.291 47.2852 59.2734 47.2324L59.2207 47.0918L59.0098 46.8633C58.8977 46.7493 58.8134 46.6109 58.7637 46.459C58.7329 46.3446 58.7444 46.223 58.7961 46.1165C58.8478 46.0099 58.9361 45.9256 59.0449 45.8789C59.1387 45.8374 59.2429 45.8251 59.3438 45.8437C59.4707 45.8714 59.5904 45.9253 59.6953 46.002C59.8477 46.1091 59.969 46.2546 60.0469 46.4238C60.0682 46.5017 60.0713 46.5833 60.0561 46.6626C60.0408 46.7418 60.0076 46.8165 59.959 46.8809L59.6426 46.6875C59.6777 46.5996 59.6953 46.5117 59.6777 46.4414C59.6602 46.3887 59.5898 46.3184 59.502 46.2656C59.4141 46.1953 59.3262 46.1777 59.2559 46.1777C59.2355 46.1784 59.2155 46.1834 59.1973 46.1925C59.1791 46.2016 59.1631 46.2146 59.1504 46.2305C59.1382 46.2483 59.1303 46.2686 59.1273 46.2899C59.1242 46.3113 59.1261 46.333 59.1328 46.3535C59.1328 46.4238 59.2207 46.5293 59.3438 46.6523L59.6074 47.0039C59.6554 47.0914 59.6775 47.1907 59.6713 47.2902C59.6651 47.3898 59.6307 47.4856 59.5723 47.5664C59.5109 47.6535 59.4253 47.7208 59.3262 47.7598C59.2216 47.8076 59.1044 47.8199 58.9922 47.7949C58.8589 47.761 58.7334 47.7013 58.623 47.6191C58.457 47.5195 58.3323 47.3635 58.2715 47.1797C58.2188 47.0215 58.2363 46.8457 58.3418 46.6523ZM56.7949 45.6504L57.1465 45.8262C57.1053 45.9138 57.0929 46.0123 57.1113 46.1074C57.1289 46.1953 57.1992 46.2832 57.2871 46.3359C57.3926 46.4063 57.4805 46.4238 57.5684 46.4063C57.6387 46.4063 57.709 46.3711 57.7441 46.3008C57.7608 46.2683 57.767 46.2314 57.7617 46.1953C57.7617 46.1426 57.7441 46.1074 57.6914 46.0547L57.4805 45.8262C57.3647 45.7186 57.2746 45.5865 57.2168 45.4395C57.1935 45.3697 57.1861 45.2955 57.1953 45.2225C57.2044 45.1495 57.2298 45.0795 57.2695 45.0176C57.3217 44.9402 57.3949 44.8792 57.4805 44.8418C57.5746 44.8013 57.6784 44.7891 57.7793 44.8066C57.8848 44.8066 57.9902 44.8594 58.1309 44.9473C58.3066 45.0703 58.4473 45.1934 58.4824 45.3516C58.5087 45.4268 58.5177 45.507 58.5085 45.5861C58.4994 45.6653 58.4724 45.7414 58.4297 45.8086L58.0957 45.6152C58.1484 45.5273 58.1484 45.4395 58.1309 45.3867C58.0957 45.3164 58.043 45.2637 57.9551 45.2109C57.8796 45.1527 57.7867 45.1217 57.6914 45.1231C57.6696 45.1257 57.6486 45.1334 57.6303 45.1456C57.612 45.1579 57.5968 45.1742 57.5859 45.1934C57.5766 45.2125 57.5718 45.2336 57.5718 45.2549C57.5718 45.2762 57.5766 45.2972 57.5859 45.3164C57.5859 45.3691 57.6738 45.4746 57.7969 45.6152C57.9375 45.7383 58.0254 45.8613 58.0781 45.9316C58.1322 46.0195 58.1594 46.1212 58.1563 46.2243C58.1532 46.3274 58.1199 46.4273 58.0605 46.5117C58.0007 46.6028 57.9157 46.6746 57.8158 46.7183C57.716 46.762 57.6056 46.7757 57.498 46.7578C57.36 46.7309 57.2286 46.6772 57.1113 46.5996C56.9429 46.5063 56.8123 46.3571 56.7422 46.1777C56.6921 46.0016 56.711 45.8131 56.7949 45.6504ZM54.8965 45.1231L55.8809 43.541L57.0586 44.2441L56.8828 44.5254L56.0391 43.998L55.8105 44.3496L56.6191 44.8418L56.4434 45.1231L55.6523 44.6309L55.3887 45.0703L56.2676 45.5977L56.1094 45.8789L54.8965 45.1231ZM52.1191 42.8555L52.2773 42.5742L52.9805 42.9609L52.6465 43.6113C52.3615 43.6745 52.0634 43.6373 51.8027 43.5059C51.6455 43.4243 51.5122 43.3031 51.416 43.1543C51.3231 43.0201 51.274 42.8605 51.2754 42.6973C51.2754 42.5215 51.3281 42.3633 51.416 42.2051C51.4971 42.0427 51.6181 41.9036 51.7676 41.8008C51.8906 41.6953 52.0664 41.6426 52.2422 41.6426C52.3652 41.6426 52.5234 41.6953 52.6816 41.7656C52.8549 41.8471 52.9969 41.9828 53.0859 42.1523C53.1562 42.293 53.1738 42.4512 53.1387 42.627L52.7695 42.5215C52.7894 42.4322 52.7769 42.3388 52.7344 42.2578C52.6876 42.1716 52.6134 42.1036 52.5234 42.0645C52.4611 42.0258 52.3911 42.0011 52.3183 41.992C52.2455 41.9829 52.1715 41.9896 52.1016 42.0117C51.9785 42.0645 51.8555 42.1875 51.75 42.3633C51.6643 42.5249 51.6335 42.71 51.6621 42.8906C51.6973 43.0313 51.7852 43.1367 51.9434 43.207L52.1719 43.2773H52.4004L52.5059 43.0664L52.1191 42.8555ZM40.0254 39.8672L40.3066 38.0039L40.8691 38.0918L41.0098 39.4102L41.5371 38.1797L42.082 38.2676L41.8184 40.1309L41.4668 40.0781L41.6777 38.6191L41.0977 40.0254L40.7461 39.9727L40.5879 38.4434L40.377 39.9199L40.0254 39.8672ZM38.1445 39.6387L38.3203 37.7754L39.6914 37.8984L39.6738 38.2148L38.6543 38.127L38.6191 38.5313L39.5508 38.6191L39.5332 38.9355L38.6016 38.8477L38.5488 39.375L39.5859 39.4629L39.5508 39.7793L38.1445 39.6387Z" fill="#309E3A"/>
<path d="M31.8867 38.4609C31.8867 38.2851 31.9219 38.1094 31.9746 37.9863L32.1504 37.7402L32.4141 37.5644C32.5439 37.5198 32.6814 37.5019 32.8184 37.5117C32.9404 37.5109 33.0612 37.5355 33.1732 37.5839C33.2851 37.6323 33.3858 37.7035 33.4688 37.793C33.6445 37.9687 33.6973 38.1973 33.6973 38.4961C33.6973 38.8125 33.5918 39.041 33.4336 39.1992C33.3456 39.2845 33.2407 39.3505 33.1256 39.3929C33.0106 39.4353 32.888 39.4531 32.7656 39.4453C32.6449 39.4484 32.5249 39.4266 32.413 39.3812C32.3011 39.3358 32.1997 39.2679 32.1152 39.1816C32.0284 39.0881 31.9629 38.9767 31.9235 38.8553C31.884 38.7338 31.8715 38.6053 31.8867 38.4785V38.4609Z" fill="#309E3A"/>
<path d="M32.2734 38.4609C32.2734 38.6719 32.3086 38.8477 32.4141 38.9531C32.502 39.0762 32.625 39.1289 32.7656 39.1289C32.8375 39.1303 32.9088 39.1169 32.9753 39.0897C33.0418 39.0625 33.1021 39.022 33.1523 38.9707C33.2402 38.8652 33.293 38.707 33.3105 38.4961C33.3105 38.2676 33.2754 38.1094 33.1699 38.0039C33.1273 37.9512 33.0738 37.9082 33.0132 37.8779C32.9525 37.8476 32.8861 37.8306 32.8184 37.8281C32.6426 37.8281 32.5195 37.8809 32.4316 37.9863C32.3262 38.0918 32.2734 38.25 32.2559 38.4609H32.2734Z" fill="#F7FFFF"/>
<path d="M34.1016 39.4453L34.1191 37.5645H34.9102C35.1211 37.5645 35.2617 37.5996 35.3496 37.6348C35.4375 37.6699 35.5254 37.7227 35.5605 37.8105C35.5957 37.8984 35.6484 37.9863 35.6484 38.1094C35.6484 38.25 35.5957 38.3555 35.5254 38.4609C35.4375 38.5488 35.3145 38.6016 35.1387 38.6367C35.2266 38.6719 35.2969 38.7246 35.3496 38.7773L35.5605 39.0937L35.7891 39.4453H35.332L35.0684 39.041C35.004 38.943 34.9335 38.849 34.8574 38.7598C34.8281 38.7286 34.792 38.7046 34.752 38.6895C34.6954 38.6692 34.6362 38.6574 34.5762 38.6543H34.4883V39.4453H34.1016Z" fill="#309E3A"/>
<path d="M34.4883 38.3555H34.7695C34.8863 38.3702 35.0044 38.3702 35.1211 38.3555L35.209 38.2676C35.2441 38.2324 35.2617 38.1797 35.2617 38.127C35.2617 38.0566 35.2441 38.0039 35.209 37.9687C35.1719 37.9294 35.1221 37.9045 35.0684 37.8984H34.5059L34.4883 38.3555Z" fill="white"/>
<path d="M36.2461 37.6523L36.9316 37.6875C37.0507 37.6893 37.1689 37.7071 37.2832 37.7402C37.3833 37.778 37.4735 37.8381 37.5469 37.916C37.629 38.0133 37.6889 38.1273 37.7227 38.25C37.7578 38.373 37.7578 38.5137 37.7578 38.6895C37.7631 38.824 37.7391 38.9582 37.6875 39.0826C37.6359 39.207 37.5579 39.3188 37.459 39.4102C37.3887 39.4629 37.3008 39.5156 37.1953 39.5508H36.8438L36.1406 39.5332L36.2461 37.6523Z" fill="#309E3A"/>
<path d="M36.5977 37.9863L36.5449 39.2168L36.8262 39.252H37.0547L37.2129 39.1641C37.2656 39.1289 37.2832 39.0762 37.3184 38.9883L37.3711 38.6367L37.3535 38.3203C37.3184 38.2324 37.3008 38.1797 37.248 38.1445C37.2012 38.0927 37.14 38.056 37.0723 38.0391C36.9739 38.0185 36.8739 38.0067 36.7734 38.0039L36.5977 37.9863Z" fill="white"/>
<path d="M45.4395 41.0098L45.8789 39.1816L46.459 39.3223C46.6875 39.375 46.8281 39.4277 46.8984 39.4629C46.9863 39.5156 47.0742 39.5859 47.1094 39.6914C47.1621 39.8145 47.1621 39.9375 47.127 40.0781C47.1114 40.1688 47.0724 40.2538 47.0138 40.3247C46.9552 40.3957 46.8791 40.45 46.793 40.4824C46.7325 40.5122 46.6668 40.5301 46.5996 40.5352C46.4688 40.5238 46.3393 40.5003 46.2129 40.4648L45.9668 40.4121L45.791 41.0977L45.4395 41.0098Z" fill="#309E3A"/>
<path d="M46.1602 39.5859L46.0371 40.1133L46.248 40.1484C46.3887 40.1836 46.4941 40.2012 46.5469 40.1836C46.5955 40.1786 46.6416 40.1592 46.6791 40.1279C46.7167 40.0965 46.7441 40.0548 46.7578 40.0078L46.7402 39.8145C46.71 39.7576 46.6599 39.7139 46.5996 39.6914L46.3359 39.6211L46.1602 39.5859Z" fill="white"/>
<path d="M47.1797 41.5371L47.7949 39.7617L48.5508 40.0254C48.6878 40.0641 48.8182 40.1233 48.9375 40.2012C49.0078 40.2715 49.0605 40.3594 49.0957 40.4648C49.1484 40.623 49.0957 40.6582 49.0605 40.7637C49.0254 40.9043 48.9375 40.9922 48.832 41.0449C48.7715 41.0801 48.7046 41.1029 48.6352 41.1119C48.5658 41.121 48.4953 41.1161 48.4277 41.0977L48.5684 41.3086L48.6738 41.6602L48.7617 42.082L48.3398 41.9414L48.2168 41.4668C48.1893 41.3532 48.1541 41.2416 48.1113 41.1328C48.0962 41.0928 48.0722 41.0567 48.041 41.0273C47.9877 40.9885 47.9283 40.9588 47.8652 40.9395L47.7949 40.9219L47.5312 41.6602L47.1797 41.5371Z" fill="#309E3A"/>
<path d="M47.8828 40.6406L48.1465 40.7285L48.4805 40.8164C48.5332 40.8164 48.5684 40.8164 48.6035 40.7812L48.6914 40.6582V40.4824C48.669 40.4365 48.6319 40.3993 48.5859 40.377L48.3223 40.2891L48.041 40.1836L47.8828 40.6406Z" fill="white"/>
<path d="M49.3769 41.4668C49.4216 41.306 49.4994 41.1563 49.6055 41.0273C49.6582 40.9395 49.7461 40.8867 49.834 40.834C49.9209 40.7861 50.0165 40.7562 50.1152 40.7461C50.2383 40.7461 50.3789 40.7461 50.5195 40.7988C50.6388 40.8287 50.7505 40.8832 50.8474 40.9589C50.9443 41.0346 51.0242 41.1298 51.082 41.2383C51.1875 41.4492 51.2051 41.7129 51.0996 41.9941C51.0705 42.1206 51.0167 42.24 50.9413 42.3456C50.8659 42.4512 50.7703 42.5408 50.6602 42.6094C50.5517 42.6634 50.4333 42.6944 50.3123 42.7004C50.1913 42.7065 50.0703 42.6874 49.957 42.6445C49.8377 42.6147 49.726 42.5602 49.6292 42.4845C49.5323 42.4088 49.4523 42.3136 49.3945 42.2051C49.2912 41.971 49.2849 41.7055 49.3769 41.4668Z" fill="#309E3A"/>
<path d="M49.7461 41.5723C49.6934 41.7656 49.6934 41.9238 49.7461 42.0644C49.8164 42.2051 49.9219 42.293 50.0625 42.3457C50.2031 42.3809 50.3262 42.3633 50.4492 42.293C50.5723 42.2226 50.6777 42.082 50.748 41.8711C50.8008 41.6601 50.8008 41.5019 50.748 41.3613C50.7185 41.2964 50.6747 41.239 50.6199 41.1934C50.5652 41.1477 50.5008 41.115 50.4316 41.0976C50.3646 41.0758 50.2935 41.0693 50.2235 41.0784C50.1536 41.0875 50.0866 41.1121 50.0273 41.1504C49.9043 41.2207 49.8164 41.3613 49.7461 41.5723Z" fill="white"/>
<path d="M53.0332 44.0859L53.8945 42.416L54.5977 42.7676C54.7734 42.873 54.8965 42.9434 54.9492 43.0137C55.0195 43.1016 55.0547 43.1895 55.0723 43.2773C55.0898 43.3652 55.0723 43.4883 55.0019 43.5762C54.9492 43.6992 54.8613 43.7871 54.7383 43.8398C54.6152 43.875 54.4922 43.875 54.334 43.8223C54.3867 43.8926 54.4219 43.9805 54.4395 44.0508L54.4922 44.4199L54.5273 44.8594L54.123 44.6484L54.0703 44.1562L54.0176 43.8047C54.0025 43.7646 53.9784 43.7286 53.9473 43.6992C53.9003 43.6561 53.8469 43.6205 53.7891 43.5937L53.7187 43.5586L53.3672 44.2617L53.0332 44.0859Z" fill="#309E3A"/>
<path d="M53.8594 43.2949L54.1055 43.418L54.4219 43.5586C54.4746 43.5586 54.5098 43.5586 54.5449 43.5234C54.5923 43.4989 54.6311 43.4605 54.6562 43.4134C54.6813 43.3664 54.6915 43.3128 54.6855 43.2598C54.6666 43.2072 54.6291 43.1635 54.5801 43.1367C54.5056 43.0871 54.4294 43.0402 54.3516 42.9961L54.0879 42.873L53.8594 43.2949Z" fill="white"/>
<path d="M59.9766 47.5137C60.082 47.3379 60.1875 47.2324 60.3281 47.1621C60.4139 47.1049 60.5091 47.0633 60.6094 47.0391C60.7023 47.0211 60.7978 47.0211 60.8906 47.0391C61.0137 47.0567 61.1543 47.1094 61.2774 47.2149C61.3812 47.2783 61.4708 47.3626 61.5404 47.4625C61.61 47.5623 61.6581 47.6755 61.6817 47.7949C61.7072 48.0507 61.6384 48.307 61.4883 48.5157C61.4215 48.6291 61.3327 48.728 61.227 48.8065C61.1213 48.885 61.001 48.9415 60.8731 48.9727C60.7541 48.995 60.6317 48.9924 60.5138 48.9652C60.3958 48.9379 60.2847 48.8866 60.1875 48.8145C60.0836 48.7511 59.9941 48.6667 59.9245 48.5669C59.8549 48.467 59.8068 48.3538 59.7832 48.2344C59.7636 48.1086 59.7691 47.9802 59.7992 47.8565C59.8294 47.7328 59.8837 47.6163 59.959 47.5137H59.9766Z" fill="#309E3A"/>
<path d="M60.293 47.7071C60.1875 47.8828 60.1348 48.0586 60.1523 48.1993C60.1644 48.2704 60.1909 48.3382 60.2302 48.3987C60.2695 48.4592 60.3208 48.511 60.3809 48.5508C60.4366 48.5895 60.4999 48.6158 60.5666 48.6279C60.6333 48.64 60.7018 48.6377 60.7676 48.6211C60.9082 48.586 61.0488 48.4805 61.1719 48.2871C61.2949 48.1114 61.3477 47.9532 61.3125 47.8125C61.3125 47.6719 61.2246 47.5664 61.1016 47.461C60.9785 47.3555 60.8379 47.3555 60.6973 47.3907C60.5566 47.4258 60.4336 47.5313 60.3106 47.7071H60.293Z" fill="white"/>
<path d="M43.3125 40.2539L43.6113 38.918L44.5957 39.1465L44.543 39.375L43.8398 39.1992L43.7695 39.498L44.4199 39.6563L44.3672 39.8848L43.7168 39.709L43.6289 40.0781L44.3672 40.2539L44.3145 40.4824L43.3125 40.2539Z" fill="#309E3A"/>
</g>
<defs>
<clipPath id="clip0_14_1703">
<rect width="90" height="90" rx="45" fill="white"/>
</clipPath>
</defs>
</svg>
