<svg width="90" height="90" viewBox="0 0 90 90" fill="none" xmlns="http://www.w3.org/2000/svg">
<g clip-path="url(#clip0_14_296)">
<path d="M14.2559 0H77.9414V90H14.2559V0Z" fill="white"/>
<path d="M-17.5781 0H14.2559V90H-17.5781V0ZM77.9414 0H109.775V90H77.9414V0ZM23.7832 43.4883L21.3223 44.332L32.8184 54.4395C33.6973 57.041 32.5195 57.7969 31.7637 59.168L44.2441 57.5859L43.9277 70.1543L46.5293 70.0664L45.9492 57.6035L58.4648 59.0801C57.6914 57.4453 57.0059 56.584 57.709 53.9824L69.2051 44.4023L67.2012 43.6816C65.5488 42.3984 67.9043 37.5645 68.2559 34.5059C68.2559 34.5059 61.5586 36.8086 61.1191 35.5957L59.3789 32.3438L53.2969 39.0234C52.6289 39.1992 52.3477 38.918 52.1895 38.3555L55.002 24.3457L50.5371 26.8594C50.168 27.0176 49.7988 26.8594 49.5527 26.4375L45.2461 17.8242L40.8164 26.7715C40.4824 27.0879 40.1484 27.123 39.8672 26.9121L35.6133 24.5215L38.1621 38.4434C37.9688 38.9707 37.4766 39.1465 36.9141 38.8477L31.0606 32.2031C30.3047 33.4336 29.7773 35.4375 28.7754 35.8945C27.7734 36.2988 24.3809 35.0332 22.1133 34.541C22.8867 37.3359 25.3125 41.9766 23.7832 43.5059V43.4883Z" fill="#D52B1E"/>
</g>
<defs>
<clipPath id="clip0_14_296">
<rect width="90" height="90" rx="45" fill="white"/>
</clipPath>
</defs>
</svg>
