<svg width="90" height="90" viewBox="0 0 90 90" fill="none" xmlns="http://www.w3.org/2000/svg">
<g clip-path="url(#clip0_14_1574)">
<path fill-rule="evenodd" clip-rule="evenodd" d="M0 0H90V90H0V0Z" fill="#FFE800"/>
<path fill-rule="evenodd" clip-rule="evenodd" d="M0 45H90V90H0V45Z" fill="#00148E"/>
<path fill-rule="evenodd" clip-rule="evenodd" d="M0 67.5H90V90H0V67.5Z" fill="#DA0010"/>
<path fill-rule="evenodd" clip-rule="evenodd" d="M37.5293 42.9258L27.9141 53.0684L27.7383 52.8574L37.3535 42.6973L37.5293 42.9258ZM44.209 44.5781L31.6406 57.832L31.4297 57.6211L43.998 44.3672L44.2266 44.5781H44.209Z" fill="black"/>
<path fill-rule="evenodd" clip-rule="evenodd" d="M31.8322 57.845L30.7887 58.904L29.5834 59.8075L30.4651 58.5929L31.5086 57.5338L31.8322 57.845Z" fill="#808080" stroke="black" stroke-width="0.0425298"/>
<path fill-rule="evenodd" clip-rule="evenodd" d="M28.5978 52.6594L27.5543 53.7185L26.3491 54.622L27.2308 53.4073L28.2742 52.3483L28.5978 52.6594Z" fill="#808080" stroke="black" stroke-width="0.0425298"/>
<path fill-rule="evenodd" clip-rule="evenodd" d="M29.3745 19.7017C29.3745 19.7017 28.3166 48.4574 32.548 48.4574C36.7794 48.4574 38.9011 45.4331 38.9011 45.4331L38.8533 29.6287L29.3745 19.7017Z" fill="#FFDF00" stroke="black" stroke-width="0.0677495"/>
<path fill-rule="evenodd" clip-rule="evenodd" d="M31.9623 22.3842C31.9623 23.8963 31.4902 45.4331 33.6059 45.4331C35.7216 45.4331 38.9011 43.921 38.9011 43.921L38.8533 29.6287L31.9623 22.3842Z" fill="#0000C4" stroke="black" stroke-width="0.0677495"/>
<path fill-rule="evenodd" clip-rule="evenodd" d="M33.3369 23.8365C33.3369 25.3486 33.6059 42.4089 35.7275 42.4089H38.9011L38.8533 29.6286L33.3369 23.8365Z" fill="#E10000" stroke="black" stroke-width="0.0677495"/>
<path fill-rule="evenodd" clip-rule="evenodd" d="M29.127 19.7227L38.7246 29.8652L38.9004 29.6543L29.2852 19.5117L29.1094 19.7227H29.127Z" fill="black"/>
<path fill-rule="evenodd" clip-rule="evenodd" d="M26.3369 25.2865C26.3369 25.2865 23.599 52.7996 31.8129 52.7996C38.6578 52.7996 38.6578 48.4593 40.0268 48.4593L38.6578 38.3238L26.3369 25.2865Z" fill="#FFDF00" stroke="black" stroke-width="0.0753879"/>
<path d="M32.3941 30.1704C32.4502 30.1665 34.4646 25.6921 39.4436 22.8951" stroke="black" stroke-width="0.0802019"/>
<path fill-rule="evenodd" clip-rule="evenodd" d="M32.0943 25.8075C32.7943 26.1416 33.2353 26.5268 33.6357 26.9762C32.8324 26.8056 32.4178 26.7368 31.7178 26.4028C31.0178 26.0687 30.4859 25.5565 30.0633 25.1421C30.5853 25.3038 31.3905 25.4716 32.0943 25.8075Z" fill="#005B00" stroke="black" stroke-width="0.0364699"/>
<path fill-rule="evenodd" clip-rule="evenodd" d="M34.2567 28.3945C34.3038 28.4873 34.2523 28.617 34.1391 28.6797C34.0259 28.7425 33.8956 28.7167 33.8473 28.6216C33.799 28.5265 33.8528 28.4014 33.966 28.3387C34.0792 28.2759 34.2096 28.3017 34.2567 28.3945Z" fill="#FF0000" stroke="black" stroke-width="0.0253814"/>
<path fill-rule="evenodd" clip-rule="evenodd" d="M35.964 22.8957C35.6585 23.6911 35.3215 24.216 34.933 24.706C35.1075 23.822 35.1816 23.3683 35.487 22.5729C35.7925 21.7775 36.2383 21.138 36.5987 20.629C36.4433 21.2103 36.2711 22.0959 35.964 22.8957Z" fill="#005B00" stroke="black" stroke-width="0.034563"/>
<path fill-rule="evenodd" clip-rule="evenodd" d="M35.4184 22.8927C35.3453 23.6722 35.1836 24.2765 34.9708 24.8897C34.914 24.1329 34.8719 23.7547 34.9451 22.9752C35.0183 22.1957 35.2448 21.4361 35.4297 20.8277C35.433 21.3525 35.492 22.1089 35.4184 22.8927Z" fill="#005B00" stroke="black" stroke-width="0.0302635"/>
<path fill-rule="evenodd" clip-rule="evenodd" d="M36.0292 23.9242C35.6156 24.3887 35.266 24.5841 34.8979 24.706C35.2642 24.0545 35.4435 23.7074 35.8571 23.2429C36.2707 22.7784 36.7166 22.5692 37.0746 22.4072C36.8106 22.8022 36.4451 23.4571 36.0292 23.9242Z" fill="#005B00" stroke="black" stroke-width="0.0326215"/>
<path fill-rule="evenodd" clip-rule="evenodd" d="M32.7474 25.3108C33.1928 25.8771 33.4014 26.4159 33.5496 27.0088C32.9506 26.5802 32.6334 26.3792 32.188 25.8128C31.7426 25.2465 31.5107 24.5473 31.3296 23.9839C31.6978 24.3153 32.2995 24.7413 32.7474 25.3108Z" fill="#005B00" stroke="black" stroke-width="0.0363119"/>
<path fill-rule="evenodd" clip-rule="evenodd" d="M31.2104 28.627C31.8149 29.1138 32.1365 29.6171 32.3947 30.186C31.6288 29.8666 31.2268 29.7234 30.6223 29.2366C30.0178 28.7499 29.6461 28.0894 29.3533 27.5563C29.8337 27.8211 30.6026 28.1376 31.2104 28.627Z" fill="#005B00" stroke="black" stroke-width="0.0400078"/>
<path fill-rule="evenodd" clip-rule="evenodd" d="M33.9952 28.4007C33.5339 29.1643 33.0304 29.6799 32.4518 30.1675C32.7222 29.3331 32.8382 28.9061 33.2996 28.1425C33.7609 27.379 34.4261 26.7478 34.9637 26.245C34.7261 26.7972 34.4591 27.6329 33.9952 28.4007Z" fill="#005B00" stroke="black" stroke-width="0.0401468"/>
<path fill-rule="evenodd" clip-rule="evenodd" d="M34.7611 29.1606C33.9912 29.6919 33.3205 29.9634 32.6057 30.1737C33.2634 29.4869 33.5824 29.1253 34.3523 28.594C35.1223 28.0626 35.9817 27.7525 36.6725 27.5088C36.1911 27.9366 35.5353 28.6263 34.7611 29.1606Z" fill="#005B00" stroke="black" stroke-width="0.039891"/>
<path fill-rule="evenodd" clip-rule="evenodd" d="M39.824 22.3972C39.4995 22.7886 39.2071 23.0292 38.8916 23.2444C39.1571 22.7881 39.2844 22.5519 39.6089 22.1606C39.9334 21.7692 40.3099 21.4805 40.6128 21.2515C40.4148 21.5462 40.1504 22.0037 39.824 22.3972Z" fill="#005B00" stroke="black" stroke-width="0.0198975"/>
<path fill-rule="evenodd" clip-rule="evenodd" d="M39.4857 22.2621C39.2948 22.6757 39.0867 22.9833 38.8477 23.2893C38.9598 22.8717 39.008 22.6614 39.1989 22.2478C39.3898 21.8341 39.6647 21.4505 39.8869 21.1436C39.7884 21.4286 39.6777 21.8462 39.4857 22.2621Z" fill="#005B00" stroke="black" stroke-width="0.0178486"/>
<path fill-rule="evenodd" clip-rule="evenodd" d="M39.7514 23.0265C39.4237 23.2238 39.1831 23.2831 38.9452 23.2998C39.2798 22.9943 39.4488 22.8293 39.7765 22.6321C40.1042 22.4348 40.4036 22.381 40.6429 22.3411C40.4156 22.5207 40.0809 22.8282 39.7514 23.0265Z" fill="#005B00" stroke="black" stroke-width="0.0191855"/>
<path fill-rule="evenodd" clip-rule="evenodd" d="M35.4247 25.704C34.8202 26.0699 34.3255 26.2745 33.8115 26.4454C34.3668 25.9939 34.6409 25.7579 35.2454 25.3921C35.8499 25.0262 36.4774 24.7865 36.9809 24.5972C36.5869 24.8831 36.0325 25.3361 35.4247 25.704Z" fill="#005B00" stroke="black" stroke-width="0.0248807"/>
<path fill-rule="evenodd" clip-rule="evenodd" d="M37.3909 25.5498C36.5891 26.0271 35.9075 26.2498 35.1879 26.4076C35.8932 25.765 36.2377 25.4247 37.0395 24.9474C37.8413 24.4702 38.7114 24.2227 39.4104 24.0295C38.9007 24.4244 38.1971 25.07 37.3909 25.5498Z" fill="#005B00" stroke="black" stroke-width="0.0398045"/>
<path d="M32.1188 33.2738C32.1702 33.2452 31.674 29.0677 34.9143 24.7442" stroke="black" stroke-width="0.0803551"/>
<path fill-rule="evenodd" clip-rule="evenodd" d="M37.2801 24.1406C37.3272 24.2334 37.2757 24.363 37.1626 24.4258C37.0494 24.4886 36.919 24.4628 36.8707 24.3677C36.8224 24.2726 36.8762 24.1475 36.9894 24.0847C37.1026 24.022 37.233 24.0478 37.2801 24.1406Z" fill="#FF0000" stroke="black" stroke-width="0.0253814"/>
<path fill-rule="evenodd" clip-rule="evenodd" d="M38.7215 23.2968C38.7686 23.3896 38.7171 23.5193 38.604 23.5821C38.4908 23.6449 38.3604 23.6191 38.3121 23.5239C38.2638 23.4288 38.3176 23.3038 38.4308 23.241C38.544 23.1782 38.6744 23.204 38.7215 23.2968Z" fill="#FF0000" stroke="black" stroke-width="0.0253814"/>
<path fill-rule="evenodd" clip-rule="evenodd" d="M33.5958 25.8458C33.631 25.9161 33.5674 26.0293 33.4517 26.0954C33.336 26.1615 33.2135 26.1569 33.1775 26.0849C33.1414 26.0128 33.2068 25.9031 33.3225 25.837C33.4382 25.7709 33.5607 25.7755 33.5958 25.8458Z" fill="#FF0000" stroke="black" stroke-width="0.0223779"/>
<path fill-rule="evenodd" clip-rule="evenodd" d="M34.0001 25.67C34.0353 25.7403 33.9717 25.8535 33.856 25.9196C33.7403 25.9857 33.6178 25.9812 33.5818 25.9091C33.5457 25.837 33.6111 25.7273 33.7268 25.6612C33.8425 25.5951 33.965 25.5997 34.0001 25.67Z" fill="#FF0000" stroke="black" stroke-width="0.0223779"/>
<path fill-rule="evenodd" clip-rule="evenodd" d="M33.7716 26.0392C33.8068 26.1095 33.7431 26.2227 33.6275 26.2888C33.5118 26.3549 33.3893 26.3503 33.3533 26.2782C33.3172 26.2062 33.3826 26.0965 33.4983 26.0304C33.6139 25.9643 33.7365 25.9688 33.7716 26.0392Z" fill="#FF0000" stroke="black" stroke-width="0.0223779"/>
<path fill-rule="evenodd" clip-rule="evenodd" d="M35.4217 25.9559C35.4737 26.0592 35.4164 26.2032 35.2909 26.2726C35.1653 26.342 35.0208 26.3128 34.9675 26.2069C34.9142 26.1009 34.9741 25.9621 35.0996 25.8927C35.2252 25.8233 35.3697 25.8525 35.4217 25.9559Z" fill="#FF0000" stroke="black" stroke-width="0.0281766"/>
<path fill-rule="evenodd" clip-rule="evenodd" d="M35.7205 25.657C35.7726 25.7604 35.7153 25.9044 35.5897 25.9738C35.4641 26.0432 35.3196 26.014 35.2663 25.9081C35.213 25.8021 35.2729 25.6633 35.3985 25.5939C35.524 25.5245 35.6685 25.5537 35.7205 25.657Z" fill="#FF0000" stroke="black" stroke-width="0.0281766"/>
<path fill-rule="evenodd" clip-rule="evenodd" d="M35.7908 25.7977C35.8429 25.901 35.7856 26.045 35.66 26.1144C35.5344 26.1838 35.39 26.1546 35.3366 26.0487C35.2833 25.9427 35.3432 25.8039 35.4688 25.7345C35.5944 25.6651 35.7388 25.6943 35.7908 25.7977Z" fill="#FF0000" stroke="black" stroke-width="0.0281766"/>
<path fill-rule="evenodd" clip-rule="evenodd" d="M29.0749 28.1882C29.0749 29.6349 26.3369 45.5657 33.1896 49.906C35.9276 51.3528 40.0345 48.4593 40.0345 49.906L38.6655 38.3237L29.0749 28.1882Z" fill="#0000C4" stroke="black" stroke-width="0.0753879"/>
<path fill-rule="evenodd" clip-rule="evenodd" d="M31.8129 31.0817C31.8129 32.5285 30.4439 44.1108 34.5586 47.0125C37.2966 49.906 44.1492 49.1214 44.1492 49.1214L38.6656 38.3237L31.8129 31.0817Z" fill="#E10000" stroke="black" stroke-width="0.0753879"/>
<path fill-rule="evenodd" clip-rule="evenodd" d="M26.1562 25.3125L38.7246 38.5664L38.9531 38.3555L26.3672 25.1016L26.1562 25.3125Z" fill="black"/>
<path fill-rule="evenodd" clip-rule="evenodd" d="M24.0689 23.8233L24.884 24.0007L25.133 24.2558C25.1003 24.2521 25.3819 24.5109 25.0645 24.8439C24.7471 25.1768 24.2511 24.6646 24.2511 24.6646C24.2511 24.6646 24.4316 25.5078 24.9308 26.0195C25.43 26.5312 25.9949 26.452 25.9949 26.452C25.9949 26.452 25.4322 25.9719 25.8144 25.6088C26.1971 25.2424 26.3807 25.531 26.3807 25.531L26.8785 26.0413L27.1976 25.7065L25.205 23.664L25.0245 22.8208L23.7887 22.5656L24.0693 23.82L24.0689 23.8233Z" fill="#CECECC" stroke="black" stroke-width="0.0216892"/>
<path fill-rule="evenodd" clip-rule="evenodd" d="M26.4854 18.1341L27.4223 19.5601L28.6531 19.8413L27.8286 20.3703L29.3065 20.2769L29.9617 20.7137L30.2121 20.3383L29.555 19.9002L29.0741 18.498L28.9016 19.4646L28.17 18.4346L26.485 18.1308L26.4854 18.1341Z" fill="#CECECC" stroke="black" stroke-width="0.0224846"/>
<path fill-rule="evenodd" clip-rule="evenodd" d="M30.0617 19.2231C30.0617 19.3053 29.9552 19.3753 29.8327 19.3753C29.7102 19.3753 29.5983 19.3053 29.5983 19.2231C29.5983 19.1408 29.7048 19.0668 29.8327 19.0668C29.9605 19.0668 30.0617 19.1367 30.0617 19.2231ZM29.7315 19.548C29.7315 21.0206 30.8446 27.2728 30.9352 27.425C30.9405 27.6101 30.6795 27.6882 30.557 27.462C30.2055 26.7463 29.4492 20.8807 29.4225 19.511C29.4066 18.9475 29.6196 18.9022 29.8646 18.9146C30.0617 18.9228 30.3067 19.0668 30.3067 19.2395C30.3067 19.4452 29.9978 19.5974 29.7315 19.548Z" fill="#E10000" stroke="black" stroke-width="0.0443791"/>
<path fill-rule="evenodd" clip-rule="evenodd" d="M30.2686 19.9011C30.2285 19.9784 30.0942 20.0196 29.979 19.9913C29.8638 19.963 29.7926 19.8714 29.8327 19.794C29.8728 19.7167 30.0091 19.6717 30.1293 19.7012C30.2495 19.7308 30.3107 19.8199 30.2686 19.9011ZM29.7997 20.1303C30.1473 22.8924 28.8989 27.1761 28.9079 27.344C28.8248 27.5154 28.5392 27.5325 28.5362 27.2876C28.4771 27.1292 29.9079 23.2564 29.5271 20.0241C29.7866 19.4906 30.0091 19.4973 30.2335 19.5655C30.4149 19.6188 30.5752 19.8107 30.491 19.9732C30.3908 20.1665 30.0261 20.2382 29.7997 20.1303Z" fill="#0000C4" stroke="black" stroke-width="0.0449434"/>
<path fill-rule="evenodd" clip-rule="evenodd" d="M27.2298 24.4969C27.2298 24.6305 27.0938 24.744 26.9373 24.744C26.7808 24.744 26.638 24.6305 26.638 24.4969C26.638 24.3633 26.774 24.2431 26.9373 24.2431C27.1006 24.2431 27.2298 24.3566 27.2298 24.4969ZM26.8081 25.0246C26.8081 27.4159 28.2298 37.569 28.3455 37.8162C28.3523 38.1168 28.0189 38.2437 27.8625 37.8763C27.4135 36.714 26.4475 27.1888 26.4135 24.9645C26.3931 24.0494 26.6652 23.9759 26.9781 23.9959C27.2298 24.0093 27.5427 24.2431 27.5427 24.5236C27.5427 24.8576 27.1482 25.1047 26.8081 25.0246Z" fill="#E10000" stroke="black" stroke-width="0.063914"/>
<path fill-rule="evenodd" clip-rule="evenodd" d="M27.5884 25.5129C27.5374 25.6394 27.3658 25.7076 27.2182 25.6623C27.0707 25.6171 26.9792 25.4681 27.0302 25.3416C27.0812 25.215 27.2554 25.1405 27.4094 25.1877C27.5634 25.235 27.6419 25.38 27.5884 25.5129ZM26.9893 25.8907C27.4453 30.3963 25.865 37.3985 25.8772 37.6724C25.7715 37.9528 25.4061 37.9829 25.4013 37.5833C25.325 37.3252 27.1404 30.9925 26.6401 25.7196C26.97 24.8467 27.2547 24.8559 27.5422 24.9654C27.7745 25.0509 27.9804 25.363 27.8734 25.6287C27.7459 25.9451 27.2795 26.0651 26.9893 25.8907Z" fill="#0000C4" stroke="black" stroke-width="0.0641563"/>
<path fill-rule="evenodd" clip-rule="evenodd" d="M50.9063 42.9258L60.5215 53.0684L60.6973 52.8574L51.082 42.6973L50.9063 42.9258ZM44.2266 44.5781L56.7773 57.832L56.9883 57.6211L44.4199 44.3672L44.1914 44.5781H44.2266Z" fill="black"/>
<path fill-rule="evenodd" clip-rule="evenodd" d="M56.5858 57.845L57.6293 58.904L58.8345 59.8075L57.9528 58.5929L56.9094 57.5338L56.5858 57.845Z" fill="#808080" stroke="black" stroke-width="0.0425298"/>
<path fill-rule="evenodd" clip-rule="evenodd" d="M59.8377 52.6594L60.8812 53.7185L62.0865 54.622L61.2048 53.4073L60.1613 52.3483L59.8377 52.6594Z" fill="#808080" stroke="black" stroke-width="0.0425298"/>
<path fill-rule="evenodd" clip-rule="evenodd" d="M59.0787 19.7017C59.0787 19.7017 60.1365 48.4574 55.9051 48.4574C51.6737 48.4574 49.552 45.4331 49.552 45.4331L49.5998 29.6287L59.0787 19.7017Z" fill="#FFDF00" stroke="black" stroke-width="0.0677495"/>
<path fill-rule="evenodd" clip-rule="evenodd" d="M56.4908 22.3842C56.4908 23.8963 56.963 45.4331 54.8472 45.4331C52.7315 45.4331 49.552 43.921 49.552 43.921L49.5998 29.6287L56.4908 22.3842Z" fill="#0000C4" stroke="black" stroke-width="0.0677495"/>
<path fill-rule="evenodd" clip-rule="evenodd" d="M55.1162 23.8365C55.1162 25.3486 54.8472 42.4089 52.7256 42.4089H49.552L49.5998 29.6286L55.1162 23.8365Z" fill="#E10000" stroke="black" stroke-width="0.0677495"/>
<path fill-rule="evenodd" clip-rule="evenodd" d="M59.3086 19.7227L49.7109 29.8828L49.5351 29.6719L59.1504 19.5293L59.3261 19.7402L59.3086 19.7227Z" fill="black"/>
<path fill-rule="evenodd" clip-rule="evenodd" d="M51.9744 27.3162C51.9744 27.3162 54.7075 30.7548 56.0192 33.4289C57.3297 36.1086 58.8534 40.2016 58.8534 40.2016C58.8534 40.2016 57.9943 36.1588 56.343 32.9374C54.178 28.8867 51.9718 27.5492 51.9744 27.3162Z" fill="#005B00" stroke="black" stroke-width="0.0321027"/>
<path fill-rule="evenodd" clip-rule="evenodd" d="M51.4142 24.6575C51.4142 24.6575 54.3635 28.7718 55.7105 31.8409C57.0558 34.9158 58.5544 39.5359 58.5544 39.5359C58.5544 39.5359 57.8256 35.076 56.1201 31.3673C53.8726 26.6897 51.3955 24.9062 51.4142 24.6575Z" fill="#005B00" stroke="black" stroke-width="0.0356576"/>
<path fill-rule="evenodd" clip-rule="evenodd" d="M54.3356 20.6925C54.3356 20.6925 56.4919 27.0084 57.1542 30.9066C57.813 34.8082 58.2232 40.1722 58.2232 40.1722C58.2232 40.1722 58.6234 35.6784 57.7369 30.8937C56.5116 24.7669 54.2474 20.8866 54.3356 20.6925Z" fill="#005B00" stroke="black" stroke-width="0.0413995"/>
<path fill-rule="evenodd" clip-rule="evenodd" d="M52.1264 20.3181C52.1264 20.3181 54.9823 25.9568 56.0806 29.7872C57.1758 33.623 58.1889 39.1561 58.1889 39.1561C58.1889 39.1561 58.0794 34.131 56.6582 29.4682C54.7489 23.5445 52.0606 20.5722 52.1264 20.3181Z" fill="#005B00" stroke="black" stroke-width="0.0416501"/>
<path fill-rule="evenodd" clip-rule="evenodd" d="M55.8477 21.9018C55.8477 21.9018 57.3496 27.9798 57.7428 31.6199C58.1331 35.2625 58.274 40.1879 58.274 40.1879C58.274 40.1879 58.7499 36.1853 58.2085 31.7051C57.4433 25.9533 55.7705 22.0629 55.8477 21.9018Z" fill="#005B00" stroke="black" stroke-width="0.0372517"/>
<path fill-rule="evenodd" clip-rule="evenodd" d="M51.7064 22.2419C51.7064 22.2419 54.5564 27.0887 55.7277 30.4767C56.8964 33.8699 58.0676 38.8289 58.0676 38.8289C58.0676 38.8289 57.7403 34.2333 56.2379 30.1186C54.235 24.9031 51.6582 22.4824 51.7064 22.2419Z" fill="#005B00" stroke="black" stroke-width="0.0379578"/>
<path fill-rule="evenodd" clip-rule="evenodd" d="M51.3949 25.5141C51.3949 25.5141 54.341 29.3641 55.6761 32.316C57.0094 35.2739 58.4842 39.7672 58.4842 39.7672C58.4842 39.7672 57.7863 35.3624 56.0944 31.8026C53.8629 27.3219 51.3738 25.7653 51.3949 25.5141Z" fill="#005B00" stroke="black" stroke-width="0.0360998"/>
<path fill-rule="evenodd" clip-rule="evenodd" d="M51.7823 23.6828C51.7823 23.6828 54.5371 28.0758 55.7384 31.2672C56.9378 34.4643 58.2168 39.2156 58.2168 39.2156C58.2168 39.2156 57.7004 34.701 56.1709 30.8367C54.1452 25.9531 51.7517 23.9287 51.7823 23.6828Z" fill="#005B00" stroke="black" stroke-width="0.0356228"/>
<path fill-rule="evenodd" clip-rule="evenodd" d="M54.9991 20.8297C54.9991 20.8297 56.8 27.0211 57.2477 30.7936C57.6918 34.5691 57.8102 39.7236 57.8102 39.7236C57.8102 39.7236 58.4496 35.4596 57.827 30.8239C56.9403 24.8811 54.9011 21.0087 54.9991 20.8297Z" fill="#005B00" stroke="black" stroke-width="0.0403239"/>
<path fill-rule="evenodd" clip-rule="evenodd" d="M52.6213 19.3125C52.6213 19.3125 55.1935 25.1947 56.1031 29.1133C57.0094 33.037 57.7527 38.6448 57.7527 38.6448C57.7527 38.6448 57.8843 33.6263 56.6932 28.8484C55.0768 22.769 52.5437 19.5598 52.6213 19.3125Z" fill="#005B00" stroke="black" stroke-width="0.0417358"/>
<path fill-rule="evenodd" clip-rule="evenodd" d="M56.5032 22.5104C56.5032 22.5104 57.6514 28.33 57.8359 31.7799C58.0175 35.2319 57.8785 39.8726 57.8785 39.8726C57.8785 39.8726 58.5781 36.1428 58.2938 31.8927C57.8593 26.4314 56.4174 22.6564 56.5032 22.5104Z" fill="#005B00" stroke="black" stroke-width="0.0357147"/>
<path fill-rule="evenodd" clip-rule="evenodd" d="M51.9739 21.1486C51.9739 21.1486 54.6483 26.2343 55.6486 29.7409C56.6458 33.2529 57.5347 38.3537 57.5347 38.3537C57.5347 38.3537 57.5136 33.6712 56.2142 29.4077C54.4628 23.9976 51.9059 21.3898 51.9739 21.1486Z" fill="#005B00" stroke="black" stroke-width="0.0394041"/>
<path fill-rule="evenodd" clip-rule="evenodd" d="M62.0986 25.2865C62.0986 25.2865 64.8365 52.7996 56.6226 52.7996C49.7777 52.7996 49.7777 48.4593 48.4087 48.4593L49.7777 38.3238L62.0986 25.2865Z" fill="#FFDF00" stroke="black" stroke-width="0.0753879"/>
<path fill-rule="evenodd" clip-rule="evenodd" d="M59.3606 28.1882C59.3606 29.6349 62.0986 45.5657 55.2459 49.906C52.5079 51.3528 48.401 48.4593 48.401 49.906L49.77 38.3237L59.3606 28.1882Z" fill="#0000C4" stroke="black" stroke-width="0.0753879"/>
<path fill-rule="evenodd" clip-rule="evenodd" d="M56.6226 31.0817C56.6226 32.5285 57.9916 44.1108 53.8769 47.0125C51.139 49.906 44.2863 49.1214 44.2863 49.1214L49.77 38.3237L56.6226 31.0817Z" fill="#E10000" stroke="black" stroke-width="0.0753879"/>
<path fill-rule="evenodd" clip-rule="evenodd" d="M62.2793 25.3125L49.7109 38.5664L49.4824 38.3555L62.0684 25.1016L62.2793 25.3125Z" fill="black"/>
<path fill-rule="evenodd" clip-rule="evenodd" d="M64.3842 23.8233L63.569 24.0007L63.3201 24.2558C63.3528 24.2521 63.0712 24.5109 63.3886 24.8439C63.7059 25.1768 64.202 24.6646 64.202 24.6646C64.202 24.6646 64.0215 25.5078 63.5223 26.0195C63.0231 26.5312 62.4582 26.452 62.4582 26.452C62.4582 26.452 63.0209 25.9719 62.6387 25.6088C62.256 25.2424 62.0724 25.531 62.0724 25.531L61.5746 26.0413L61.2555 25.7065L63.2481 23.664L63.4286 22.8208L64.6644 22.5656L64.3838 23.82L64.3842 23.8233Z" fill="#CECECC" stroke="black" stroke-width="0.0216892"/>
<path fill-rule="evenodd" clip-rule="evenodd" d="M61.9326 18.1341L60.9957 19.5601L59.7648 19.8413L60.5893 20.3703L59.1115 20.2769L58.4562 20.7137L58.2059 20.3383L58.863 19.9002L59.3438 18.498L59.5164 19.4646L60.248 18.4346L61.933 18.1308L61.9326 18.1341Z" fill="#CECECC" stroke="black" stroke-width="0.0224846"/>
<path fill-rule="evenodd" clip-rule="evenodd" d="M58.3563 19.2231C58.3563 19.3053 58.4628 19.3753 58.5853 19.3753C58.7078 19.3753 58.8197 19.3053 58.8197 19.2231C58.8197 19.1408 58.7131 19.0668 58.5853 19.0668C58.4575 19.0668 58.3563 19.1367 58.3563 19.2231ZM58.6865 19.548C58.6865 21.0206 57.5733 27.2728 57.4828 27.425C57.4775 27.6101 57.7385 27.6882 57.861 27.462C58.2125 26.7463 58.9688 20.8807 58.9954 19.511C59.0114 18.9475 58.7984 18.9022 58.5534 18.9146C58.3563 18.9228 58.1113 19.0668 58.1113 19.2395C58.1113 19.4452 58.4202 19.5974 58.6865 19.548Z" fill="#E10000" stroke="black" stroke-width="0.0443791"/>
<path fill-rule="evenodd" clip-rule="evenodd" d="M58.167 19.9011C58.2071 19.9784 58.3413 20.0196 58.4565 19.9913C58.5718 19.963 58.6429 19.8714 58.6028 19.794C58.5627 19.7167 58.4265 19.6717 58.3062 19.7012C58.186 19.7308 58.1249 19.8199 58.167 19.9011ZM58.6359 20.1303C58.2882 22.8924 59.5366 27.1761 59.5276 27.344C59.6108 27.5154 59.8963 27.5325 59.8994 27.2876C59.9585 27.1292 58.5277 23.2564 58.9084 20.0241C58.6489 19.4906 58.4265 19.4973 58.202 19.5655C58.0207 19.6188 57.8604 19.8107 57.9445 19.9732C58.0447 20.1665 58.4094 20.2382 58.6359 20.1303Z" fill="#0000C4" stroke="black" stroke-width="0.0449434"/>
<path fill-rule="evenodd" clip-rule="evenodd" d="M61.1881 24.4969C61.1881 24.6305 61.3242 24.744 61.4806 24.744C61.6371 24.744 61.78 24.6305 61.78 24.4969C61.78 24.3633 61.6439 24.2431 61.4806 24.2431C61.3174 24.2431 61.1881 24.3566 61.1881 24.4969ZM61.6099 25.0246C61.6099 27.4159 60.1881 37.569 60.0725 37.8162C60.0657 38.1168 60.399 38.2437 60.5555 37.8763C61.0044 36.714 61.9704 27.1888 62.0044 24.9645C62.0249 24.0494 61.7527 23.9759 61.4398 23.9959C61.1881 24.0093 60.8752 24.2431 60.8752 24.5236C60.8752 24.8576 61.2698 25.1047 61.6099 25.0246Z" fill="#E10000" stroke="black" stroke-width="0.063914"/>
<path fill-rule="evenodd" clip-rule="evenodd" d="M60.8471 25.5129C60.8981 25.6395 61.0697 25.7077 61.2173 25.6624C61.3649 25.6171 61.4563 25.4682 61.4053 25.3416C61.3543 25.2151 61.1801 25.1405 61.0261 25.1878C60.8721 25.235 60.7936 25.38 60.8471 25.5129ZM61.4463 25.8908C60.9902 30.3964 62.5705 37.3985 62.5583 37.6725C62.6641 37.9529 63.0294 37.983 63.0343 37.5833C63.1105 37.3253 61.2952 30.9925 61.7954 25.7196C61.4655 24.8468 61.1808 24.8559 60.8933 24.9655C60.661 25.051 60.4551 25.363 60.5622 25.6288C60.6896 25.9452 61.156 26.0652 61.4463 25.8908Z" fill="#0000C4" stroke="black" stroke-width="0.0641563"/>
<path fill-rule="evenodd" clip-rule="evenodd" d="M40.0423 60.0416C40.6671 60.421 41.3751 60.6206 42.0958 60.6206C42.8164 60.6206 43.5244 60.421 44.1492 60.0416V48.4593H41.4113C42.7803 52.7996 42.7802 57.1481 40.0345 60.0416H40.0423Z" fill="#E10000" stroke="black" stroke-width="0.0753879"/>
<path fill-rule="evenodd" clip-rule="evenodd" d="M42.0745 48.5469C42.0745 56.6986 40.0948 58.5131 40.0948 60.1527C40.9193 60.1527 41.4689 59.3882 42.0745 58.3381C42.899 56.6986 42.9782 48.4179 42.899 48.5469H42.0745Z" fill="#0000C4" stroke="black" stroke-width="0.0621065"/>
<path fill-rule="evenodd" clip-rule="evenodd" d="M40.4255 48.5469C40.3835 53.309 38.3386 57.721 38.7252 58.6974C39.1631 59.5724 40.4255 56.6986 42.0745 58.3289C42.899 56.6986 42.9782 48.418 42.899 48.5377L40.4255 48.5469Z" fill="#0000C4" stroke="black" stroke-width="0.0621065"/>
<path fill-rule="evenodd" clip-rule="evenodd" d="M40.6331 48.5904C40.6331 54.0352 38.7372 54.3982 38.7372 55.8501C39.5617 55.8501 40.6284 55.0565 40.6331 55.1303C41.4576 54.0352 41.5368 48.5042 41.4576 48.5904H40.6331Z" fill="#FFDF00" stroke="black" stroke-width="0.0507581"/>
<path fill-rule="evenodd" clip-rule="evenodd" d="M38.9841 48.5904C38.9422 51.7711 36.9438 54.4781 37.3304 55.1303C37.7729 55.7086 38.9841 54.0352 40.6331 55.1303C41.4576 54.0352 41.5368 48.5042 41.4576 48.5904H38.9841Z" fill="#FFDF00" stroke="black" stroke-width="0.0507581"/>
<path fill-rule="evenodd" clip-rule="evenodd" d="M48.3933 60.0416C47.7685 60.421 47.0604 60.6206 46.3398 60.6206C45.6192 60.6206 44.9112 60.421 44.2863 60.0416V48.4593H47.0243C45.6553 52.7996 45.6553 57.1481 48.401 60.0416H48.3933Z" fill="#E10000" stroke="black" stroke-width="0.0753879"/>
<path fill-rule="evenodd" clip-rule="evenodd" d="M46.3611 48.5469C46.3611 56.6986 48.3408 58.5131 48.3408 60.1527C47.5163 60.1527 46.9667 59.3882 46.3611 58.3381C45.5366 56.6986 45.4574 48.4179 45.5366 48.5469H46.3611Z" fill="#0000C4" stroke="black" stroke-width="0.0621065"/>
<path fill-rule="evenodd" clip-rule="evenodd" d="M48.0101 48.5469C48.052 53.309 50.097 57.721 49.7103 58.6974C49.2725 59.5724 48.0101 56.6986 46.3611 58.3289C45.5366 56.6986 45.4574 48.418 45.5366 48.5377L48.0101 48.5469Z" fill="#0000C4" stroke="black" stroke-width="0.0621065"/>
<path fill-rule="evenodd" clip-rule="evenodd" d="M47.8201 48.5904C47.8201 54.0352 49.7159 54.3982 49.7159 55.8501C48.8914 55.8501 47.8247 55.0565 47.8201 55.1303C46.9956 54.0352 46.9164 48.5042 46.9956 48.5904H47.8201Z" fill="#FFDF00" stroke="black" stroke-width="0.0507581"/>
<path fill-rule="evenodd" clip-rule="evenodd" d="M49.4691 48.5904C49.511 51.7711 51.5094 54.4781 51.1227 55.1303C50.6802 55.7086 49.4691 54.0352 47.8201 55.1303C46.9956 54.0352 46.9164 48.5042 46.9956 48.5904H49.4691Z" fill="#FFDF00" stroke="black" stroke-width="0.0507581"/>
<path fill-rule="evenodd" clip-rule="evenodd" d="M33.7982 49.7039L32.3791 50.7617L33.7982 51.8196L34.5069 51.2907L34.8613 51.8196L35.2157 52.8774L35.5716 51.8196L35.926 51.2907H54.9404V50.2328H35.9244L35.57 49.7009C35.57 49.172 35.6444 48.6431 35.926 48.6431H37.3435C37.3435 48.1141 36.6348 47.0563 35.2157 47.0563C33.7982 47.0563 33.0878 48.1141 33.0878 48.6431H34.5069C34.7869 48.6431 34.8613 49.172 34.8613 49.7039L34.5069 50.2328L33.7982 49.7039Z" fill="#908F8A" stroke="black" stroke-width="0.0695774"/>
<path fill-rule="evenodd" clip-rule="evenodd" d="M37.9693 52.2088H50.3983V52.8528H37.973L37.9693 52.2088ZM37.9693 51.5611H50.3983V52.2088H37.973L37.9693 51.5611ZM37.9693 50.9171H50.3983V51.5647H37.973L37.9693 50.9171ZM37.9693 50.273H50.3983V50.9171H37.973L37.9693 50.273ZM37.9693 49.629H50.3983V50.273H37.973L37.9693 49.629ZM37.9693 48.9813H50.3983V49.629H37.973L37.9693 48.9813ZM37.9693 48.3409H50.3983V48.9813H37.973L37.9693 48.3409Z" fill="#B74D00"/>
<path d="M50.3983 52.2088H37.9693L37.973 52.8528H50.3983V52.2088ZM50.3983 52.2088V51.5611H37.9693L37.973 52.2088H50.3983ZM50.3983 50.9171H37.9693L37.973 51.5647H50.3983V50.9171ZM50.3983 50.9171V50.273M50.3983 50.9171H37.973L37.9693 50.273H50.3983M50.3983 50.273V49.629M50.3983 50.273H37.973L37.9693 49.629H50.3983M50.3983 49.629V48.9813M50.3983 49.629H37.973L37.9693 48.9813H50.3983M50.3983 48.9813V48.3409H37.9693L37.973 48.9813H50.3983Z" stroke="black" stroke-width="0.0469113"/>
<path fill-rule="evenodd" clip-rule="evenodd" d="M38.7084 48.3331L43.3107 52.845H43.9687L39.3697 48.3367H38.7118L38.7084 48.3331Z" fill="#908F8A" stroke="black" stroke-width="0.0818061"/>
<path fill-rule="evenodd" clip-rule="evenodd" d="M38.7084 52.8466L43.3107 48.3347H43.9687L39.3697 52.843H38.7118L38.7084 52.8466Z" fill="#908F8A" stroke="black" stroke-width="0.0818061"/>
<path fill-rule="evenodd" clip-rule="evenodd" d="M38.6353 48.3331V52.845H39.2887V48.3331H38.6353Z" fill="#908F8A" stroke="black" stroke-width="0.0807917"/>
<path fill-rule="evenodd" clip-rule="evenodd" d="M44.5795 48.3331L49.1818 52.845H49.8398L45.2408 48.3367H44.5829L44.5795 48.3331Z" fill="#908F8A" stroke="black" stroke-width="0.0818061"/>
<path fill-rule="evenodd" clip-rule="evenodd" d="M44.5795 52.8466L49.1818 48.3347H49.8398L45.2408 52.843H44.5829L44.5795 52.8466Z" fill="#908F8A" stroke="black" stroke-width="0.0818061"/>
<path fill-rule="evenodd" clip-rule="evenodd" d="M49.0943 48.3331V52.845H49.7477V48.3331H49.0943Z" fill="#908F8A" stroke="black" stroke-width="0.0807917"/>
<path fill-rule="evenodd" clip-rule="evenodd" d="M44.524 48.3331V52.845H45.1774V48.3331H44.524Z" fill="#908F8A" stroke="black" stroke-width="0.0807917"/>
<path fill-rule="evenodd" clip-rule="evenodd" d="M43.2056 48.3331V52.845H43.859V48.3331H43.2056Z" fill="#908F8A" stroke="black" stroke-width="0.0807917"/>
<path fill-rule="evenodd" clip-rule="evenodd" d="M53.7398 35.4302C53.7398 42.6232 49.4395 48.4593 44.1492 48.4593C38.8589 48.4593 34.5586 42.6232 34.5586 35.4302C34.5586 28.2372 38.8512 22.3929 44.1492 22.3929C49.4473 22.3929 53.7398 28.2291 53.7398 35.422V35.4302ZM52.3709 35.4302C52.3709 41.8221 48.6893 47.0125 44.1492 47.0125C39.6091 47.0125 35.9276 41.8221 35.9276 35.4302C35.9276 29.0301 39.6091 23.8397 44.1492 23.8397C48.6893 23.8397 52.3709 29.0301 52.3709 35.4302Z" fill="#FFDF00" stroke="black" stroke-width="0.0753879"/>
<path fill-rule="evenodd" clip-rule="evenodd" d="M47.8849 23.4228C46.7325 22.7608 45.4718 22.3929 44.1492 22.3929C42.8266 22.3929 41.5659 22.7608 40.4135 23.4147L40.9549 24.7552C41.9275 24.1627 43.0304 23.8508 44.1531 23.8508C45.2757 23.8508 46.3786 24.1627 47.3512 24.7552L47.8849 23.4228Z" fill="#FFDF00" stroke="black" stroke-width="0.0753879"/>
<path fill-rule="evenodd" clip-rule="evenodd" d="M47.9025 47.4873C46.7501 48.1494 45.4894 48.5172 44.1668 48.5172C42.8442 48.5172 41.5835 48.1494 40.4311 47.4955L40.9725 46.155C41.9451 46.7475 43.048 47.0593 44.1707 47.0593C45.2933 47.0593 46.3962 46.7475 47.3688 46.155L47.9025 47.4873Z" fill="#FFDF00" stroke="black" stroke-width="0.0753879"/>
<path fill-rule="evenodd" clip-rule="evenodd" d="M52.3828 35.4199C52.3828 41.8184 48.6914 47.0039 44.1563 47.0039C39.6035 47.0039 35.9297 41.8184 35.9297 35.4199C35.9297 29.0215 39.6211 23.8359 44.1563 23.8359C48.6914 23.8359 52.3652 29.0215 52.3652 35.4199H52.3828Z" fill="#A7CFFF"/>
<path fill-rule="evenodd" clip-rule="evenodd" d="M52.3709 35.4302C52.4559 37.6045 52.0151 38.6671 51.4505 40.9312C51.3035 41.1764 50.5997 40.3999 50.182 40.0158C49.7644 39.6316 49.5788 40.3591 49.0528 39.7705C48.5346 39.1657 48.202 39.934 47.8153 39.4272C47.4286 38.9205 43.8476 38.8551 43.8476 38.806C44.2034 38.6262 46.0287 38.8224 45.7348 37.8987C45.4022 36.9342 43.3371 37.866 43.0587 36.64C42.8653 35.4139 38.9131 35.3648 38.6269 35.0706C38.7429 35.5283 41.7052 35.7245 41.6356 36.9097C41.5659 37.4001 38.7197 37.5391 38.4413 37.9478C38.2092 38.4627 40.6842 37.8088 40.7693 38.4382C40.7693 38.6998 40.4058 38.4382 39.1219 38.8469C38.4722 39.0512 40.313 39.6888 39.6169 40.0403C38.9208 40.3917 37.4281 40.547 37.4899 40.6942C37.722 41.4298 40.9472 42.2962 40.6301 42.4189C39.4854 42.9583 38.8821 43.3098 38.333 43.6204C36.7239 41.232 35.881 38.3617 35.9276 35.4302C38.3794 34.4984 37.8612 34.3022 42.3935 34.3022C46.9259 34.3022 48.4263 34.4902 52.3709 35.4302Z" fill="#AFFF7B" stroke="black" stroke-width="0.0753879"/>
<path fill-rule="evenodd" clip-rule="evenodd" d="M52.3709 35.4302C51.7521 35.4302 51.1024 35.7081 50.4373 35.7081C49.7644 35.7081 49.0838 35.422 48.3877 35.422C47.6916 35.422 46.8949 35.798 46.1834 35.798C45.4641 35.798 44.8376 35.4302 44.1183 35.4302C43.399 35.4302 42.6797 35.7081 41.9681 35.7081C41.2566 35.7081 40.5527 35.422 39.8644 35.422C39.176 35.422 38.4954 35.7081 37.838 35.7081C37.1805 35.7081 36.5386 35.422 35.9276 35.422C35.9276 33.8281 36.1596 32.3078 36.5773 30.9183C38.6655 31.0817 37.4281 29.635 38.6655 29.635C39.0268 29.6143 39.3881 29.675 39.7254 29.8131C40.0628 29.9512 40.3685 30.1635 40.6223 30.436C40.808 30.436 41.7361 29.5042 42.7802 29.635C43.8166 29.7657 43.4377 31.8664 44.8221 31.9727C45.5182 32.5285 45.9281 32.88 46.8872 33.1088C48.2562 33.2396 52.1775 32.9045 52.2007 33.0925C52.3137 33.866 52.3706 34.6475 52.3709 35.4302Z" fill="white" stroke="black" stroke-width="0.0753879"/>
<path fill-rule="evenodd" clip-rule="evenodd" d="M45.5686 42.4797C45.5686 42.116 45.9364 41.8735 45.9364 41.2928C45.9364 40.7122 45.6094 40.6994 45.5985 40.157C45.5931 39.9337 45.8792 39.7104 46.0045 39.6848C46.1298 39.6593 46.2361 40.157 46.2361 40.2655C46.2361 40.374 46.108 39.9975 46.0018 39.9911C45.8955 39.9847 45.6666 40.0294 45.6666 40.1379C45.6666 40.3548 46.0699 40.6228 46.0399 41.3502C46.0099 42.0649 45.6939 42.2819 45.6939 42.4988C45.6939 42.7158 45.8301 43.3156 45.8301 43.3156C45.8301 43.3156 45.5658 42.837 45.5658 42.4733L45.5686 42.4797Z" fill="black" stroke="black" stroke-width="0.0395337"/>
<path fill-rule="evenodd" clip-rule="evenodd" d="M45.9256 42.4269C45.9256 42.0632 45.5578 41.8207 45.5578 41.2401C45.5578 40.6594 45.8847 40.6467 45.8956 40.1043C45.9229 39.8491 45.5741 39.6832 45.4488 39.664C45.3234 39.6449 45.1763 40.1745 45.1763 40.2766C45.1763 40.3787 45.3235 39.9448 45.4297 39.9384C45.536 39.932 45.8275 39.9767 45.8275 40.0852C45.8275 40.3021 45.4243 40.5701 45.4542 41.2975C45.4842 42.0122 45.8003 42.2291 45.8003 42.4461C45.8003 42.663 45.664 43.2628 45.664 43.2628C45.664 43.2628 45.9283 42.7843 45.9283 42.4205L45.9256 42.4269Z" fill="black" stroke="black" stroke-width="0.0395337"/>
<path fill-rule="evenodd" clip-rule="evenodd" d="M45.9316 39.4629C45.9316 39.6387 45.8437 39.7969 45.7559 39.7969C45.6328 39.7969 45.5449 39.6563 45.5449 39.4629C45.5449 39.2695 45.6328 39.1465 45.7383 39.1465C45.8438 39.1465 45.9316 39.2871 45.9316 39.4629ZM48.4102 40.4297H48.4805V43.0137H48.4102V40.4297ZM48.9727 40.2188H49.043V42.8203H48.9727V40.2188Z" fill="black"/>
<path fill-rule="evenodd" clip-rule="evenodd" d="M48.5332 41.6602V41.5723L49.0605 41.6777V41.7305L48.5332 41.6602Z" fill="black"/>
<path fill-rule="evenodd" clip-rule="evenodd" d="M41.1525 42.1471C41.1525 42.1471 43.1634 43.0789 43.6043 43.6347C44.0374 44.1905 43.8673 44.1905 43.8673 44.1905L48.33 44.3785C48.33 44.1006 49.1189 44.1006 49.2968 43.4467C49.4747 42.801 49.4747 42.613 49.4747 42.613L48.0748 43.0789L48.1521 42.2451H46.9301L46.7522 43.0789L44.1225 42.989L44.3004 40.7575L43.7745 40.8474L43.6971 42.9726C43.6043 42.9726 41.2376 42.3269 41.1448 42.1471H41.1525Z" fill="#B74D00" stroke="black" stroke-width="0.0753879"/>
<path fill-rule="evenodd" clip-rule="evenodd" d="M37.1109 28.8421C37.1109 28.8421 40.0268 27.9266 44.2343 27.992C48.4418 28.0574 51.3577 29.0383 51.2958 29.0383C51.2339 29.0383 50.4914 27.5343 50.4914 27.5343C50.4914 27.5343 47.5214 26.676 44.1724 26.6106C40.8312 26.5453 37.9153 27.2645 37.9849 27.3299L37.1109 28.8421Z" fill="#FEDE00" stroke="#FEDE00" stroke-width="0.0753879"/>
<path fill-rule="evenodd" clip-rule="evenodd" d="M42.3633 26.8594L44.1738 26.8242V27.8789L42.3809 27.9141L42.3633 26.8594ZM38.2148 27.4395L37.582 28.4766L39.7266 28.2129L39.5508 27.1582L38.2148 27.4395ZM40.043 27.0352L41.8359 26.877L41.9238 27.9316L40.1309 28.0898L40.043 27.0352ZM46.5293 26.9297L44.7363 26.8066L44.666 27.8613L46.459 27.9844L46.5293 26.9297ZM50.3965 27.5977L51.0469 28.8809L49.1133 28.3887L49.3242 27.3691L50.3965 27.5977ZM48.832 27.2109L47.0566 26.9824L46.9336 28.0195L48.709 28.248L48.832 27.2109Z" fill="#38A9F9"/>
<path fill-rule="evenodd" clip-rule="evenodd" d="M44.2343 29.4306L44.0409 28.3272L43.4531 29.2672L43.6697 28.1637L42.7957 28.7931L43.3835 27.8694L42.3471 28.0983L43.2366 27.4771L42.1924 27.2728L43.2366 27.0602L42.3471 26.439L43.3835 26.6679L42.788 25.7442L43.6697 26.3736L43.4531 25.2702L44.0409 26.2102L44.2343 25.1067L44.4354 26.2102L45.0155 25.2702L44.8066 26.3736L45.6806 25.7442L45.0851 26.6679L46.1292 26.439L45.2398 27.0602L46.2839 27.2728L45.2398 27.4771L46.1292 28.0983L45.0851 27.8694L45.6806 28.7931L44.8066 28.1637L45.0232 29.2672L44.4354 28.3272L44.2343 29.4306Z" fill="#FFDF00" stroke="black" stroke-width="0.0753879"/>
<path fill-rule="evenodd" clip-rule="evenodd" d="M45.5291 27.2519C45.5291 27.8862 45.0302 28.3978 44.4104 28.3978C43.7906 28.3978 43.2917 27.8862 43.2917 27.2519C43.2917 26.6176 43.7906 26.0993 44.4104 26.0993C45.0302 26.0993 45.5291 26.6176 45.5291 27.2588V27.2519Z" fill="#FFDF00" stroke="black" stroke-width="0.0680768"/>
<path fill-rule="evenodd" clip-rule="evenodd" d="M44.2969 26.9648C44.2969 27.0352 44.1387 27.0879 43.9453 27.0879C43.752 27.0879 43.5586 27.0352 43.5586 26.9648C43.5586 26.8945 43.7344 26.8242 43.9277 26.8242C44.1211 26.8242 44.3145 26.8945 44.3145 26.9648H44.2969ZM45.123 26.9648C45.123 27.0352 44.9824 27.0879 44.8418 27.0879C44.7012 27.0879 44.5605 27.0352 44.5605 26.9648C44.5605 26.8945 44.6836 26.8242 44.8418 26.8242C45 26.8242 45.1055 26.8945 45.1055 26.9648H45.123Z" fill="black"/>
<path d="M44.1341 27.4188L44.2111 27.4629C44.0259 27.3502 44.1104 27.3921 44.4004 27.6767C44.5679 27.5818 44.6001 27.495 44.7046 27.3772" stroke="black" stroke-width="0.0755067"/>
<path d="M43.74 27.8612L43.8019 27.9266C43.6549 27.7632 43.7245 27.8449 44.0494 28.0574C44.3588 28.0983 44.6759 27.9593 44.8615 27.7305" stroke="black" stroke-width="0.0753879"/>
<path fill-rule="evenodd" clip-rule="evenodd" d="M39.2871 30.0059C39.2871 30.0059 39.4102 31.0605 38.584 32.3789C37.793 33.6797 37.916 33.2227 37.916 33.2227C37.916 33.2227 38.2852 33.9258 38.2324 33.9258C38.1797 33.9258 37.5996 33.293 37.5996 33.293L36.9316 33.9961C36.9316 33.9961 37.5469 32.8887 37.4766 32.8887C37.4062 32.8887 37.3008 32.502 37.3008 32.502L37.793 32.3086C37.793 32.3086 38.5312 30.9375 38.5312 30.9902C38.5312 31.043 36.2988 32.502 36.2988 32.502L39.2871 30.0059ZM39.7793 30.4102C39.709 30.4102 40.0781 31.4648 40.3945 31.9922C40.588 32.3494 40.6962 32.7464 40.7109 33.1523L41.7656 33.6797L40.3945 31.6582L41.2734 31.9746L39.7793 30.4102ZM39.7793 33.1523C39.7793 33.1523 40.5176 33.9434 40.5879 34.207C40.6582 34.4707 40.6406 35.0508 40.6406 35.0508L40.3418 34.4004L39.9023 34.998C39.9023 34.998 40.2187 34.0664 40.1484 34.0137C40.0781 33.9609 39.6563 34.3301 39.6563 34.3301L39.832 33.75C39.832 33.6973 39.832 33.3457 39.7793 33.1523ZM36.0352 34.998C36.2812 34.7871 36.791 34.6465 36.791 34.6465C36.791 34.6465 36.4746 35.1738 36.4043 35.1738C36.334 35.1738 36.1582 35.1738 36.0527 34.998H36.0352ZM44.5957 32.1152C44.5957 32.1152 46.1953 33.0996 46.1953 33.1699C46.1953 33.2402 45.1406 32.6953 45.1406 32.6953L44.5957 32.1152ZM41.6953 30.0586C41.8184 30.1289 44.0508 31.957 43.9805 31.957C43.9102 31.957 42.9961 31.4297 42.9961 31.5V31.957L42.5039 30.9023L42.3809 31.3066L41.6953 30.0762V30.0586ZM42.2578 33.0117L42.873 34.2422L43.4883 34.1191C43.4883 34.1191 42.3105 33.0117 42.2578 33.0117ZM44.1914 32.2207L44.2441 33.3984C44.2441 33.3984 44.5957 33.7324 44.5957 33.6621C44.5957 33.5918 44.2441 32.291 44.1738 32.2207H44.1914Z" fill="#B7E1FF"/>
<path fill-rule="evenodd" clip-rule="evenodd" d="M25.9805 16.207C25.9805 16.207 28.7754 14.6777 31.957 13.5176C34.2841 12.6653 36.6849 12.0298 39.1289 11.6191C40.0781 11.6191 41.6777 13.9746 41.9414 13.9746C42.2227 13.9746 43.2949 13.3242 44.6309 13.3242C45.9668 13.3242 46.7754 14.3789 47.0566 14.3789H49.4648C49.7285 14.3789 48.6562 11.7422 49.4648 11.8828C49.8691 11.9531 53.2969 12.4805 56.4785 13.5C59.6602 14.5547 64.1777 16.3652 64.1777 16.3652C64.1777 16.3652 56.7949 17.3496 54.8262 17.0684C54.5625 17.1914 54.8262 18.791 54.4395 18.0879C53.8242 17.9473 51.5566 17.5957 51.1523 17.5957C50.748 17.5957 50.0098 18.0527 48.9375 18.2988C48.1247 18.506 47.316 18.7287 46.5117 18.9668L48.2695 21.709L46.1074 22.7637C46.1074 22.7637 44.7715 19.6172 44.2266 19.6172C43.6816 19.6172 43.4355 21.8496 42.75 21.7266C42.082 21.5859 41.8184 19.6172 41.291 19.0898C40.7461 18.5625 37.916 18.3867 36.8438 18.123C35.7715 17.8594 34.0312 17.6484 33.0996 17.3848C32.168 17.1211 31.2188 18.0527 30.8145 18.0527C30.4102 18.0527 31.3418 17.2617 30.9551 17.1211C30.5684 16.9805 30.2871 17.5254 30.0059 17.5254C29.7422 17.5254 26.9297 16.998 26.666 16.8574C26.3848 16.7344 27.334 16.207 27.0703 16.207H25.9805Z" fill="#984000"/>
<path fill-rule="evenodd" clip-rule="evenodd" d="M45.9132 14.8535C45.9132 15.5988 45.3157 16.2035 44.5819 16.2035C43.8481 16.2035 43.2535 15.5988 43.2535 14.8535C43.2535 14.1082 43.8481 13.507 44.5819 13.507C45.3157 13.507 45.9132 14.1117 45.9132 14.8535Z" fill="#808080" stroke="#772600" stroke-width="0.0840173"/>
<path fill-rule="evenodd" clip-rule="evenodd" d="M39.3132 15.1523C39.5558 14.8739 39.8563 14.452 40.6421 14.452C40.8232 14.3803 40.8232 13.9584 41.2432 13.9584C41.6669 13.9584 41.5438 14.3803 41.8479 14.5237C42.1485 14.663 44.6217 14.3803 44.6217 14.3803C44.6217 14.3803 44.8607 14.5912 44.8607 14.8739C44.8607 15.1566 44.6796 15.3633 44.6217 15.3633C44.5638 15.3633 42.1485 15.1523 41.9674 15.2241C41.7864 15.2958 41.6669 15.3633 41.2432 15.3633C40.8232 15.3633 40.7001 14.8739 40.3995 14.8739C40.0989 14.8739 39.7984 14.8022 39.3132 15.1566V15.1523Z" fill="#984000" stroke="#772600" stroke-width="0.147308"/>
<path d="M46.6712 15.0146H47.6344C47.9821 15.0188 48.1016 15.1411 48.4202 15.1538H49.2639C49.5717 15.1411 49.7347 15.0567 50.0461 15.0146C50.5711 15.0061 50.3937 14.9597 50.2887 14.5927C50.1945 14.3185 50.1801 14.1877 50.0461 14.0316C49.9954 13.6941 49.8795 13.576 49.865 13.1878C49.8107 12.8925 49.7093 12.6942 49.8071 12.3441C49.9447 12.5846 49.999 12.6816 50.3502 12.6985C50.7124 12.6985 50.8536 12.6858 51.0745 12.8377C51.241 13.0444 51.4655 12.9769 51.7987 12.9769C52.0739 13.036 52.121 13.2005 52.3382 13.3271C52.5953 13.4958 52.7619 13.538 53.1204 13.538C53.4101 13.6013 53.6635 13.6477 53.8446 13.7489C54.0003 13.9641 54.2429 14.0189 54.5688 14.0316C54.7499 14.0316 54.8947 14.0105 55.0504 13.9599C55.3293 13.9767 55.6117 13.9599 55.9557 13.9599C56.1802 14.2636 56.2309 14.3775 56.6184 14.3817C56.8863 14.6011 57.1108 14.6349 57.3426 14.7319H58.2479C58.5738 14.7614 58.6751 14.9175 58.9721 15.0146C59.2268 15.1487 59.488 15.2656 59.7542 15.3647C60.0134 15.4194 60.2767 15.4434 60.54 15.4364C60.7609 15.5714 61.0325 15.5799 61.2027 15.7149C61.4525 15.7782 61.7929 15.8541 61.9848 15.9258C62.3035 15.9764 62.4266 16.0946 62.709 16.1367C62.9517 16.2211 62.6294 16.2886 62.4664 16.3477C62.1116 16.335 62.0862 16.1789 61.7422 16.1367C61.5612 16.0144 61.286 16.0313 61.018 15.9258H60.9601C61.199 16.0946 61.4308 16.2 61.3222 16.4911C61.0144 16.4911 60.7645 16.4447 60.4784 16.4194C60.1743 16.3519 60.0367 16.2802 59.6963 16.2802C60.0367 16.1832 60.1236 16.2886 60.359 16.4194C60.4459 16.7569 60.2576 16.6303 59.9353 16.6303C59.6601 16.5164 59.4935 16.3772 59.1531 16.3477H58.4289C58.7874 16.3646 58.8634 16.5207 59.0916 16.7021C59.1097 16.8117 59.0879 16.8033 58.9105 16.8413C58.7222 16.6514 58.4796 16.5882 58.1863 16.4911C57.9002 16.4785 57.5997 16.4489 57.3426 16.3477C57.1651 16.335 57.1941 16.0903 57.5852 16.4911C57.8206 16.6514 57.9039 16.7864 57.8857 16.913C57.5743 16.8202 57.4222 16.6767 57.2231 16.5586C56.9522 16.4492 56.6657 16.4019 56.3794 16.4194C56.068 16.3224 56.412 16.2675 56.6184 16.6303C57.0674 17.0016 56.5604 16.8413 56.3794 16.7696C56.1078 16.681 55.8253 16.5502 55.5936 16.4911C55.4125 16.4278 55.2532 16.3688 55.0504 16.3477C55.3655 16.3814 55.4705 16.5122 55.5936 16.7696C55.9122 17.0227 55.5791 16.9003 55.293 16.8413C55.112 16.6557 54.8766 16.5586 54.7499 16.3477C54.4493 16.1747 54.4385 15.968 54.6304 16.4194C54.6775 16.5628 54.6666 16.875 54.6883 16.913C54.4674 16.6303 54.5145 16.5586 54.2683 16.5586C54.0981 16.4236 53.8518 16.3182 53.7251 16.1367C53.4934 16.1114 53.4789 16.0144 53.2435 15.9258C53.4354 16.1916 53.6925 16.4532 53.8446 16.7021C54.1198 16.8792 54.1959 17.0396 54.3878 17.1914C54.4638 17.3475 54.6775 17.4741 54.4493 17.2632C54.1886 16.9678 53.9967 16.8961 53.6056 16.7021C53.3811 16.4911 53.3014 16.4067 53.0624 16.2085C52.7366 16.0861 52.8633 16.0186 53.0624 16.4194C53.2906 16.6641 53.4644 16.9341 53.6635 17.1239C53.8197 17.3413 54.0028 17.5304 54.2067 17.685C54.261 17.7778 54.424 17.7947 54.2067 17.8242C54.0257 17.6302 53.7577 17.5078 53.5441 17.3307C53.2435 17.2336 53.1023 17.0522 52.8814 16.8413C52.7366 16.5924 52.5048 16.4025 52.3382 16.2085C51.9906 16.0482 52.407 16.3603 52.5193 16.5586C52.5953 16.816 52.6931 17.0227 52.7583 17.2632C52.8597 17.4952 52.4541 17.2083 52.3382 17.1239C52.1 16.9441 51.8325 16.8235 51.5525 16.7696C51.3125 16.7136 51.0709 16.6672 50.8282 16.6303C50.5567 16.546 50.9767 16.8328 51.1324 17.1239C51.4366 17.4572 50.8319 17.183 50.6508 17.1239C50.3519 17.0648 50.0486 17.0407 49.7455 17.0522C49.3581 17.0775 49.6369 17.1366 49.7455 17.3307C49.865 17.4403 49.9483 17.6682 49.9266 17.7525C49.6731 17.7103 49.4558 17.626 49.1408 17.6133C48.8873 17.7103 48.5868 17.685 48.2971 17.685C48.2862 17.8622 48.3514 17.7103 48.4781 17.896C48.6882 17.993 48.8258 18.1111 48.7823 18.2461H47.0333C46.8414 18.3052 47.0732 18.2757 47.2144 18.5288C47.1347 18.7566 47.0333 18.668 46.7907 18.668C46.6278 18.5921 46.2982 18.5583 46.1281 18.4571C45.9579 18.4571 45.9723 18.4064 45.8275 18.3853C46.3345 18.8072 46.081 18.7017 46.3707 19.0182C46.4177 19.0392 46.5336 19.0899 46.4286 19.0899M42.449 21.3385C42.4128 21.3385 42.3331 21.1107 42.21 20.9166C42.1231 20.6635 42.0145 20.8069 41.9059 20.423C41.9203 20.0264 41.9312 19.9589 41.9059 19.5792C41.6596 19.3767 41.5546 19.3177 41.3627 18.9464C41.0585 18.6511 41.4098 18.1449 41.4677 17.7736C41.1997 17.7061 41.0694 18.2588 40.6602 18.4571C40.3633 18.6891 40.624 17.9761 40.4791 17.5627C40.3814 16.9763 40.0881 17.858 39.9794 18.1069C39.7803 18.263 39.7187 18.4655 39.4363 18.1744C39.4363 17.9592 39.6137 17.3517 39.5377 17.2336C39.2552 17.3982 38.8859 17.8875 38.5926 17.9635C38.2956 17.8917 38.6541 17.3391 38.6541 16.9299C38.5455 16.8877 38.1218 18.0183 37.948 18.0267C37.7742 18.0352 37.8502 16.9299 37.7669 16.9552C37.6402 17.1661 37.3831 17.6049 37.2057 17.7567C36.8617 17.7019 37.2564 17.0185 37.3071 16.7653C37.365 16.4616 36.9848 17.3475 36.782 17.4024C36.6335 17.5542 36.3402 17.6555 36.2388 17.685C36.3547 17.4235 36.9269 16.8961 36.8906 16.7442C36.5539 16.7569 36.0433 17.2716 35.7572 17.3349C35.5689 17.3349 35.3082 17.4066 35.2756 17.4024C35.2901 17.0649 35.9781 16.7864 36.0868 16.5797C35.75 16.643 35.1018 16.9889 34.9135 17.2632C34.689 17.318 34.4066 17.3897 34.1893 17.2632C34.2219 16.9467 34.7288 16.335 34.8411 16.1325C34.5333 16.2886 34.3812 16.411 34.0553 16.4827C33.9938 16.5544 33.82 16.7063 33.8743 16.5544C33.972 16.2591 34.1169 16.1325 34.2364 15.9216C33.9648 15.9807 33.8634 16.1621 33.5737 16.3435C33.389 16.3519 32.8604 16.9721 32.6829 16.9805C32.3826 17.2563 32.0321 17.4482 31.6582 17.5416C31.383 17.6007 31.249 17.6682 31.115 17.8242C31.2526 17.5416 31.4626 17.2758 31.6582 17.1239C31.7775 16.8679 31.9695 16.668 32.2013 16.5586C32.2701 16.4616 32.4584 16.4363 32.2593 16.4194C32.0891 16.5966 31.7994 16.7991 31.6582 16.913C31.4735 17.048 31.2598 17.183 31.1729 17.1239C31.2707 16.8202 31.4445 16.7442 31.5966 16.4911C31.9153 16.2549 31.5966 16.4067 31.354 16.4911C31.1983 16.6514 30.9195 16.7738 30.6913 16.913C30.4379 16.9889 30.2677 17.1661 29.9671 17.2632C29.9671 17.3644 30.054 17.0817 30.0902 16.9805C30.3365 16.6683 30.4016 16.5797 30.6913 16.4911C30.7638 16.3688 30.8507 16.4194 30.6334 16.4194C30.4668 16.5882 30.2423 16.681 30.0287 16.8413C29.815 16.8961 29.5362 16.913 29.2465 16.913C28.8699 16.9636 28.9025 16.9974 29.2465 16.7696C29.4384 16.5586 29.5978 16.6135 29.6086 16.3477C29.3805 16.5417 29.1017 16.6852 28.8228 16.8413C28.5911 16.8497 28.5295 16.913 28.2797 16.913C28.3992 16.7696 28.4716 16.5882 28.6418 16.4911C28.8953 16.1663 28.4825 16.4278 28.3992 16.4911H27.4939C27.3346 16.7274 27.4867 16.4911 27.617 16.3477C27.7727 16.2549 27.9357 16.1325 27.9176 16.0692C27.7365 16.2507 27.5301 16.335 27.3744 16.4911C27.2078 16.5502 27.0123 16.5755 27.0123 16.6303C27.1463 16.4067 27.3599 16.2675 27.4975 16.0692C27.7003 16.0186 27.8741 15.9427 27.9176 15.8583H27.0739H27.675C27.9828 15.8583 28.2435 15.8246 28.5223 15.7866C29.0003 15.6938 28.4788 15.6474 28.2181 15.6474C28.171 15.5377 28.3702 15.4786 28.5802 15.4364C28.7613 15.3352 28.9894 15.2466 29.185 15.1538C29.3576 15.0925 29.5203 14.9984 29.6666 14.8753C29.4855 14.8838 29.4855 14.9344 29.3045 14.9428C29.576 14.9217 29.768 14.8753 30.0902 14.8753C30.3556 14.7734 30.6167 14.6565 30.8724 14.5252C30.981 14.3733 31.0245 14.3817 30.7529 14.3817C30.9955 14.2932 31.3395 14.2467 31.535 14.1708C31.7846 14.1099 32.0276 14.0165 32.2593 13.8924C32.4367 13.7532 32.5381 13.5886 32.7409 13.4705C32.9762 13.6561 32.9799 13.6814 33.4035 13.6814C33.7439 13.6772 33.9539 13.5802 34.1277 13.3988C34.3885 13.3144 34.4355 13.171 34.7325 13.1203C35.0115 13.1714 35.2938 13.194 35.5762 13.1878C35.8659 13.0992 36.1447 12.9347 36.3583 12.766C36.543 12.6605 36.7639 12.5086 36.9631 12.4158C37.1803 12.5466 37.3541 12.6521 37.6257 12.6985C37.9045 12.6478 38.053 12.4875 38.2884 12.4158C38.4336 12.2358 38.6235 12.1133 38.8315 12.0657C39.1828 11.8632 39.1574 12.1289 39.3132 12.3441C39.4942 12.5635 39.726 12.458 39.9758 12.555C40.117 12.8082 40.2184 12.9769 40.3995 13.1161C40.5407 13.3186 40.7073 13.3692 41.0042 13.3988C41.1128 13.5675 41.0259 13.6857 41.2432 13.7489C41.3301 13.8586 41.4786 13.9008 41.6053 13.9599" stroke="#772600" stroke-width="0.0972786"/>
<path d="M45.976 19.5455V19.5792C45.976 19.4822 45.976 19.537 46.0375 19.7227C46.0592 19.8745 46.0086 19.8577 45.947 19.9673C45.9361 20.1234 45.918 20.2373 45.918 20.423C45.8963 20.5748 45.8239 20.7183 45.7659 20.8448C45.708 20.9756 45.4581 21.0516 45.4654 21.233C45.3205 21.2794 45.3169 21.1697 45.3133 20.9841C45.2264 20.8702 45.1974 20.7141 45.1322 20.5622C45.096 20.4188 45.0091 20.3091 44.9512 20.1403C44.8643 19.9842 44.7882 19.9378 44.7122 19.7564C44.6796 19.672 44.6869 19.5623 44.6217 19.5117C44.5239 19.3641 44.4587 19.343 44.2885 19.3345C44.1582 19.3683 44.1075 19.4358 43.988 19.4738C43.8938 19.5117 43.7128 19.4991 43.5969 19.5455C43.5679 19.6003 43.6548 19.6298 43.6874 19.7564C43.6078 19.8323 43.5788 19.9631 43.5353 20.0728C43.4629 20.1783 43.4159 20.2289 43.3833 20.3892C43.434 20.4863 43.3905 20.617 43.3253 20.7056C43.3036 20.8659 43.2348 20.9545 43.2022 21.0895C43.1081 21.1697 43.0718 21.2414 42.9922 21.3722C42.9234 21.4861 42.8618 21.4777 42.6916 21.4777C42.5577 21.4355 42.5395 21.3511 42.42 21.3005C42.4092 21.2583 42.3983 21.2456 42.3585 21.233" stroke="#782600" stroke-width="0.086161"/>
<path fill-rule="evenodd" clip-rule="evenodd" d="M42.5742 20.9883C42.5742 20.9883 42.5215 21.6387 42.0996 22.0781C41.6777 22.5176 40.7988 23.0273 40.7988 23.0273C40.7988 23.0273 41.9766 22.4824 42.0996 22.5879C42.2227 22.7109 41.3437 23.6953 41.3437 23.6953C41.3437 23.6953 42.4863 22.6582 42.6445 22.6582C42.8027 22.6582 43.1191 23.6602 43.2422 23.6426C43.3652 23.625 42.9785 22.377 43.0312 22.1836C43.084 21.9902 43.0312 20.9531 43.0312 20.9531L42.5742 20.9883ZM45.2988 20.9004C45.2988 20.9004 45.2461 21.6035 44.8066 22.0605C44.3672 22.5176 43.5059 23.0801 43.5059 23.0801C43.5059 23.0801 44.7012 22.4824 44.8066 22.623C44.9297 22.7461 44.0508 23.7832 44.0508 23.7832C44.0508 23.7832 45.2109 22.6934 45.3516 22.6934C45.4922 22.6934 45.8437 23.748 45.9668 23.748C46.0898 23.7129 45.6855 22.377 45.7559 22.166C45.8086 21.9727 45.7559 20.8477 45.7559 20.8477L45.2988 20.9004ZM41.4844 14.5195C41.4844 14.6602 41.3613 14.7656 41.2031 14.7656C41.0449 14.7656 40.9219 14.6602 40.9219 14.5195C40.9219 14.3789 41.0449 14.291 41.2031 14.291C41.3613 14.291 41.4844 14.3965 41.4844 14.5195Z" fill="#812E00"/>
</g>
<defs>
<clipPath id="clip0_14_1574">
<rect width="90" height="90" rx="45" fill="white"/>
</clipPath>
</defs>
</svg>
