<svg width="90" height="90" viewBox="0 0 90 90" fill="none" xmlns="http://www.w3.org/2000/svg">
<g clip-path="url(#clip0_38_12)">
<mask id="mask0_38_12" style="mask-type:luminance" maskUnits="userSpaceOnUse" x="0" y="0" width="91" height="91">
<path d="M0 0H90.0009V90.0009H0V0Z" fill="white"/>
</mask>
<g mask="url(#mask0_38_12)">
<path fill-rule="evenodd" clip-rule="evenodd" d="M0 0H171.002V6.92314H0V0ZM0 13.8463H171.002V20.7694H0V13.8463ZM0 27.6926H171.002V34.6157H0V27.6926ZM0 41.5389H171.002V48.462H0V41.5389ZM0 55.3852H171.002V62.3083H0V55.3852ZM0 69.2314H171.002V76.1546H0V69.2314ZM0 83.0777H171.002V90.0009H0V83.0777Z" fill="#BD3D44"/>
<path fill-rule="evenodd" clip-rule="evenodd" d="M0 6.92316H171.002V13.8463H0V6.92316ZM0 20.7694H171.002V27.6926H0V20.7694ZM0 34.6157H171.002V41.5389H0V34.6157ZM0 48.462H171.002V55.3852H0V48.462ZM0 62.3083H171.002V69.2315H0V62.3083ZM0 76.1546H171.002V83.0777H0V76.1546Z" fill="white"/>
<path fill-rule="evenodd" clip-rule="evenodd" d="M0 0H68.4007V48.462H0V0Z" fill="#192F5D"/>
<path fill-rule="evenodd" clip-rule="evenodd" d="M5.67698 2.07697L6.3693 4.01545H8.30778L6.71545 5.19238L7.33854 7.06163L5.67698 5.88469L4.15389 7.06163L4.77697 5.19238L3.11542 4.01545H5.19236L5.67698 2.07697ZM17.1002 2.07697L17.7233 4.01545H19.731L18.0694 5.19238L18.7617 7.06163L17.1002 5.88469L15.4386 7.06163L16.1309 5.19238L14.4694 4.01545H16.4771L17.1002 2.07697ZM28.5234 2.07697L29.1464 4.01545H31.1542L29.4926 5.19238L30.1849 7.06163L28.5234 5.88469L26.8618 7.06163L27.5541 5.19238L25.8926 4.01545H27.9003L28.5234 2.07697ZM39.8773 2.07697L40.5696 4.01545H42.5081L40.9158 5.19238L41.5389 7.06163L39.8773 5.88469L38.285 7.06163L38.9081 5.19238L37.2465 4.01545H39.3235L39.8773 2.07697ZM51.3005 2.07697L51.9236 4.01545H53.9313L52.2697 5.19238L52.9621 7.06163L51.2313 5.88469L49.6389 7.06163L50.262 5.19238L48.6005 4.01545H50.6082L51.3005 2.07697ZM62.7237 2.07697L63.3468 4.01545H65.3545L63.6929 5.19238L64.3852 7.06163L62.7237 5.88469L61.0621 7.06163L61.7544 5.19238L60.0929 4.01545H62.1006L62.7237 2.07697ZM11.4232 6.92317L12.0463 8.86165H14.054L12.3924 10.0386L13.0847 11.9078L11.4232 10.7309L9.76164 11.9078L10.454 10.0386L8.7924 8.86165H10.8001L11.4232 6.92317ZM22.7771 6.92317L23.4695 8.86165H25.4079L23.8156 10.0386L24.4387 11.9078L22.7771 10.7309L21.1848 11.9078L21.8079 10.0386L20.1464 8.86165H22.2233L22.7771 6.92317ZM34.2003 6.92317L34.8234 8.86165H36.8311L35.1696 10.0386L35.8619 11.9078L34.2003 10.7309L32.5388 11.9078L33.2311 10.0386L31.5695 8.86165H33.5773L34.2003 6.92317ZM45.6235 6.92317L46.2466 8.86165H48.2543L46.5928 10.0386L47.2851 11.9078L45.6235 10.7309L43.962 11.9078L44.6543 10.0386L42.9927 8.86165H45.0004L45.6235 6.92317ZM56.9775 6.92317L57.6698 8.86165H59.539L57.9467 10.0386L58.5698 11.9078L56.9082 10.7309L55.3159 11.9078L55.939 10.0386L54.2775 8.86165H56.3544L56.9775 6.92317ZM5.74621 11.7694L6.30006 13.7078H8.37701L6.71545 14.8848L7.33854 16.754L5.67698 15.5771L4.15389 16.754L4.77697 14.8848L3.11542 13.7078H5.19236L5.74621 11.7694ZM17.1002 11.7694L17.7233 13.7078H19.731L18.1386 14.8848L18.7617 16.754L17.1002 15.5771L15.5078 16.754L16.1309 14.8848L14.4694 13.7078H16.4771L17.1002 11.7694ZM28.5234 11.7694L29.1464 13.7078H31.1542L29.4926 14.8848L30.1849 16.754L28.5234 15.5771L26.8618 16.754L27.5541 14.8848L25.8926 13.7078H27.9003L28.5234 11.7694ZM39.8773 11.7694L40.5696 13.7078H42.5081L40.9158 14.8848L41.5389 16.754L39.8773 15.5771L38.285 16.754L38.9081 14.8848L37.2465 13.7078H39.3235L39.8773 11.7694ZM51.3005 11.7694L51.9236 13.7078H53.9313L52.339 14.8848L52.9621 16.754L51.3005 15.5771L49.7082 16.754L50.3313 14.8848L48.6697 13.7078H50.6774L51.3005 11.7694ZM62.7237 11.7694L63.3468 13.7078H65.3545L63.6929 14.8848L64.3852 16.754L62.7237 15.5771L61.0621 16.754L61.7544 14.8848L60.0929 13.7078H62.1006L62.7237 11.7694ZM11.4232 16.6156L12.0463 18.554H14.054L12.3924 19.731L13.0847 21.6002L11.4232 20.4233L9.76164 21.6002L10.454 19.731L8.7924 18.554H10.8001L11.4232 16.6156ZM22.7771 16.6156L23.4695 18.554H25.4079L23.8156 19.731L24.4387 21.6002L22.7771 20.4233L21.1848 21.6002L21.8079 19.731L20.1464 18.554H22.2233L22.7771 16.6156ZM34.2003 16.6156L34.8234 18.554H36.8311L35.2388 19.731L35.8619 21.6002L34.2003 20.4233L32.608 21.6002L33.2311 19.731L31.5695 18.554H33.5773L34.2003 16.6156ZM45.6235 16.6156L46.2466 18.554H48.2543L46.5928 19.731L47.2851 21.6002L45.6235 20.4233L43.962 21.6002L44.6543 19.731L42.9927 18.554H45.0004L45.6235 16.6156ZM56.9775 16.6156L57.6698 18.554H59.539L57.9467 19.731L58.5698 21.6002L56.9082 20.4233L55.3159 21.6002L55.939 19.731L54.2775 18.554H56.3544L56.9775 16.6156ZM5.74621 21.4618L6.30006 23.4002H8.37701L6.71545 24.5772L7.33854 26.4464L5.67698 25.2695L4.15389 26.4464L4.77697 24.5772L3.11542 23.4002H5.19236L5.74621 21.4618ZM17.1002 21.4618L17.7233 23.4002H19.731L18.1386 24.5772L18.7617 26.4464L17.1002 25.2695L15.5078 26.4464L16.1309 24.5772L14.4694 23.4002H16.4771L17.1002 21.4618ZM28.5234 21.4618L29.1464 23.4002H31.1542L29.4926 24.5772L30.1849 26.4464L28.5234 25.2695L26.8618 26.4464L27.5541 24.5772L25.8926 23.4002H27.9003L28.5234 21.4618ZM39.8773 21.4618L40.5696 23.4002H42.5081L40.9158 24.5772L41.5389 26.4464L39.8773 25.2695L38.285 26.4464L38.9081 24.5772L37.2465 23.4002H39.3235L39.8773 21.4618ZM51.3005 21.4618L51.9236 23.4002H53.9313L52.339 24.5772L52.9621 26.4464L51.3005 25.2695L49.7082 26.4464L50.3313 24.5772L48.6697 23.4002H50.6774L51.3005 21.4618ZM62.7237 21.4618L63.3468 23.4002H65.3545L63.6929 24.5772L64.3852 26.4464L62.7237 25.2695L61.0621 26.4464L61.7544 24.5772L60.0929 23.4002H62.1006L62.7237 21.4618ZM11.4232 26.308L12.0463 28.2465H14.054L12.3924 29.4234L13.0847 31.2926L11.4232 30.1157L9.76164 31.2926L10.454 29.4234L8.7924 28.2465H10.8001L11.4232 26.308ZM22.7771 26.308L23.4695 28.2465H25.4079L23.8156 29.4234L24.4387 31.2926L22.7771 30.1157L21.1848 31.2926L21.8079 29.4234L20.1464 28.2465H22.2233L22.7771 26.308ZM34.2003 26.308L34.8234 28.2465H36.8311L35.2388 29.4234L35.8619 31.2926L34.2003 30.1157L32.608 31.2926L33.2311 29.4234L31.5695 28.2465H33.5773L34.2003 26.308ZM45.6235 26.308L46.2466 28.2465H48.2543L46.5928 29.4234L47.2851 31.2926L45.6235 30.1157L43.962 31.2926L44.6543 29.4234L42.9927 28.2465H45.0004L45.6235 26.308ZM56.9775 26.308L57.6698 28.2465H59.539L57.9467 29.4234L58.5698 31.2926L56.9082 30.1157L55.3159 31.2926L55.939 29.4234L54.2775 28.2465H56.3544L56.9775 26.308ZM5.74621 31.1542L6.30006 33.0927H8.37701L6.71545 34.2696L7.33854 36.1388L5.67698 34.9619L4.15389 36.1388L4.77697 34.2696L3.11542 33.0927H5.19236L5.74621 31.1542ZM17.1002 31.1542L17.7233 33.0927H19.731L18.1386 34.2696L18.7617 36.1388L17.1002 34.9619L15.5078 36.1388L16.1309 34.2696L14.4694 33.0927H16.4771L17.1002 31.1542ZM28.5234 31.1542L29.1464 33.0927H31.1542L29.4926 34.2696L30.1849 36.1388L28.5234 34.9619L26.8618 36.1388L27.5541 34.2696L25.8926 33.0927H27.9003L28.5234 31.1542ZM39.8773 31.1542L40.5696 33.0927H42.5081L40.9158 34.2696L41.5389 36.1388L39.8773 34.9619L38.285 36.1388L38.9081 34.2696L37.2465 33.0927H39.3235L39.8773 31.1542ZM51.3005 31.1542L51.9236 33.0927H53.9313L52.339 34.2696L52.9621 36.1388L51.3005 34.9619L49.7082 36.1388L50.3313 34.2696L48.6697 33.0927H50.6774L51.3005 31.1542ZM62.7237 31.1542L63.3468 33.0927H65.3545L63.6929 34.2696L64.3852 36.1388L62.7237 34.9619L61.0621 36.1388L61.7544 34.2696L60.0929 33.0927H62.1006L62.7237 31.1542ZM11.4232 36.0004L12.0463 37.9389H14.054L12.3924 39.1158L13.0847 40.985L11.4232 39.8081L9.76164 40.985L10.454 39.1158L8.7924 37.9389H10.8001L11.4232 36.0004ZM22.7771 36.0004L23.4695 37.9389H25.4079L23.8156 39.1158L24.4387 40.985L22.7771 39.8081L21.1848 40.985L21.8079 39.1158L20.1464 37.9389H22.2233L22.7771 36.0004ZM34.2003 36.0004L34.8234 37.9389H36.8311L35.2388 39.1158L35.8619 40.985L34.2003 39.8081L32.608 40.985L33.2311 39.1158L31.5695 37.9389H33.5773L34.2003 36.0004ZM45.6235 36.0004L46.2466 37.9389H48.2543L46.5928 39.1158L47.2851 40.985L45.6235 39.8081L43.962 40.985L44.6543 39.1158L42.9927 37.9389H45.0004L45.6235 36.0004ZM56.9775 36.0004L57.6698 37.9389H59.539L57.9467 39.1158L58.5698 40.985L56.9082 39.8081L55.3159 40.985L55.939 39.1158L54.2775 37.9389H56.3544L56.9775 36.0004ZM5.74621 40.8466L6.30006 42.7851H8.37701L6.71545 43.962L7.33854 45.8312L5.67698 44.6543L4.15389 45.8312L4.77697 43.962L3.11542 42.7851H5.19236L5.74621 40.8466ZM17.1002 40.8466L17.7233 42.7851H19.731L18.1386 43.962L18.7617 45.8312L17.1002 44.6543L15.5078 45.8312L16.1309 43.962L14.4694 42.7851H16.4771L17.1002 40.8466ZM28.5234 40.8466L29.1464 42.7851H31.1542L29.4926 43.962L30.1849 45.8312L28.5234 44.6543L26.8618 45.8312L27.5541 43.962L25.8926 42.7851H27.9003L28.5234 40.8466ZM39.8773 40.8466L40.5696 42.7851H42.5081L40.9158 43.962L41.5389 45.8312L39.8773 44.6543L38.285 45.8312L38.9081 43.962L37.2465 42.7851H39.3235L39.8773 40.8466ZM51.3005 40.8466L51.9236 42.7851H53.9313L52.339 43.962L52.9621 45.8312L51.3005 44.6543L49.7082 45.8312L50.3313 43.962L48.6697 42.7851H50.6774L51.3005 40.8466ZM62.7237 40.8466L63.3468 42.7851H65.3545L63.6929 43.962L64.3852 45.8312L62.7237 44.6543L61.0621 45.8312L61.7544 43.962L60.0929 42.7851H62.1006L62.7237 40.8466Z" fill="white"/>
</g>
</g>
<defs>
<clipPath id="clip0_38_12">
<rect width="90" height="90" rx="45" fill="white"/>
</clipPath>
</defs>
</svg>
