<svg width="90" height="90" viewBox="0 0 90 90" fill="none" xmlns="http://www.w3.org/2000/svg">
<g clip-path="url(#clip0_14_300)">
<mask id="mask0_14_300" style="mask-type:luminance" maskUnits="userSpaceOnUse" x="0" y="0" width="90" height="90">
<path d="M0 0H90V90H0V0Z" fill="white"/>
</mask>
<g mask="url(#mask0_14_300)">
<path fill-rule="evenodd" clip-rule="evenodd" d="M-4.57031 -4.39453H99.5801V100.371H-4.57031V-4.39453Z" fill="white"/>
<path fill-rule="evenodd" clip-rule="evenodd" d="M44.877 -3.58594H99.7383V44.7891H44.8945L44.877 -3.58594Z" fill="#DB0000"/>
<path fill-rule="evenodd" clip-rule="evenodd" d="M-9.58008 44.7891H44.8945V100.371H-9.58008V44.7891ZM31.4648 31.9219L23.291 26.7891L15.1699 31.9746L18.1934 23.5371L10.0723 18.334L20.1094 18.2637L23.2207 9.86133L26.4023 18.2461H36.4394L28.3711 23.5195L31.4648 31.9219Z" fill="#0000AB"/>
<path fill-rule="evenodd" clip-rule="evenodd" d="M76.5 78.9258L68.3437 73.793L60.2051 78.9785L63.2285 70.541L55.1074 65.3555L65.1621 65.2852L68.2734 56.8828L71.4375 65.2676H81.4922L73.4063 70.541L76.5 78.9258Z" fill="#D80000"/>
</g>
</g>
<defs>
<clipPath id="clip0_14_300">
<rect width="90" height="90" rx="45" fill="white"/>
</clipPath>
</defs>
</svg>
