<svg width="90" height="90" viewBox="0 0 90 90" fill="none" xmlns="http://www.w3.org/2000/svg">
<g clip-path="url(#clip0_14_1745)">
<path d="M0 59.9414H90V90H0V59.9414Z" fill="#0038A8"/>
<path d="M0 30.0059H90V59.9941H0V30.0059Z" fill="white"/>
<path d="M0 0H90V30.0059H0V0Z" fill="#D52B1E"/>
<path d="M45.0802 56.5092C51.4365 56.5092 56.5893 51.3564 56.5893 45.0001C56.5893 38.6438 51.4365 33.491 45.0802 33.491C38.7238 33.491 33.571 38.6438 33.571 45.0001C33.571 51.3564 38.7238 56.5092 45.0802 56.5092Z" stroke="black" stroke-width="0.213334"/>
<path d="M45.0802 54.4637C50.3068 54.4637 54.5438 50.2267 54.5438 45C54.5438 39.7734 50.3068 35.5364 45.0802 35.5364C39.8535 35.5364 35.6165 39.7734 35.6165 45C35.6165 50.2267 39.8535 54.4637 45.0802 54.4637Z" stroke="black" stroke-width="0.09697"/>
<path d="M45.0802 52.2546C49.0868 52.2546 52.3347 49.0066 52.3347 45.0001C52.3347 40.9935 49.0868 37.7455 45.0802 37.7455C41.0736 37.7455 37.8256 40.9935 37.8256 45.0001C37.8256 49.0066 41.0736 52.2546 45.0802 52.2546Z" stroke="black" stroke-width="0.077576"/>
<path d="M38.9531 49.4473L37.6172 50.2383L37.2129 49.5352C37.152 49.4428 37.1046 49.3421 37.0723 49.2363C37.0579 49.1584 37.0703 49.0778 37.1074 49.0078C37.1426 48.9199 37.1953 48.8672 37.2832 48.8145C37.3458 48.7747 37.4177 48.7522 37.4918 48.7491C37.5658 48.746 37.6394 48.7625 37.7051 48.7969L37.8457 48.9023C37.8404 48.8615 37.8404 48.8201 37.8457 48.7793L37.8633 48.6738L37.916 48.5508L38.1797 48.1289L38.4609 48.5859L38.1797 49.0605C38.1522 49.1031 38.1342 49.151 38.127 49.2012C38.1228 49.2373 38.1289 49.2738 38.1445 49.3066L38.1797 49.3418L38.707 49.0254L38.9531 49.4473ZM37.916 49.5L37.8105 49.3242C37.7897 49.2874 37.7662 49.2522 37.7402 49.2187C37.7286 49.2074 37.7149 49.1984 37.6998 49.1924C37.6847 49.1863 37.6686 49.1834 37.6523 49.1836C37.6219 49.1797 37.591 49.1859 37.5645 49.2012C37.5117 49.2363 37.4941 49.2539 37.4766 49.3066L37.5469 49.4824L37.6523 49.6582L37.916 49.5ZM36.668 48.4629L36.2637 47.2324L36.5801 47.1445L36.8262 47.9004L37.0547 47.8301L36.8262 47.127L37.125 47.0215L37.3535 47.7246L37.6523 47.6367L37.3887 46.8457L37.7402 46.7402L38.1445 47.9707L36.668 48.4629ZM36.1406 46.6523L36.0352 45.8613C36.0352 45.6855 36.0352 45.5449 36.123 45.457C36.1934 45.3691 36.2988 45.2988 36.457 45.2813C36.6152 45.2813 36.7383 45.2988 36.8438 45.3867C36.9316 45.4746 37.002 45.6152 37.0195 45.8086L37.0547 46.0547L37.6172 46.002L37.6699 46.4766L36.1406 46.6523ZM36.7383 46.1074L36.7207 45.9844C36.7207 45.8965 36.6855 45.8262 36.6504 45.8086C36.635 45.7913 36.616 45.7777 36.5947 45.7686C36.5735 45.7595 36.5505 45.7551 36.5273 45.7559C36.481 45.7565 36.4368 45.7755 36.4043 45.8086C36.3691 45.8438 36.3691 45.9141 36.3691 46.002L36.3867 46.1426L36.7383 46.1074ZM36.0879 43.7344L36.1406 43.2598L37.0547 43.3652C37.1426 43.3652 37.2305 43.4004 37.3008 43.4355C37.3887 43.4707 37.459 43.5234 37.5117 43.5937L37.6172 43.8047C37.644 43.9144 37.644 44.029 37.6172 44.1387C37.6172 44.209 37.6172 44.2969 37.582 44.3848C37.582 44.4727 37.5469 44.543 37.4941 44.5957L37.3535 44.7363C37.2962 44.7793 37.2302 44.8093 37.1602 44.8242C37.0547 44.8418 36.9844 44.8594 36.8965 44.8418L35.9824 44.7363L36.0352 44.2617L36.9668 44.3672C37.0547 44.3672 37.125 44.3672 37.1777 44.3145C37.2305 44.2793 37.248 44.209 37.2656 44.1387C37.2723 44.1018 37.2711 44.0639 37.262 44.0275C37.2529 43.9911 37.2362 43.9571 37.2129 43.9277C37.1777 43.875 37.1074 43.8574 37.0371 43.8398L36.0879 43.7344ZM36.2812 42.6094L36.5801 41.748C36.6328 41.6074 36.7031 41.5195 36.8086 41.4668C36.854 41.4421 36.9044 41.4277 36.956 41.4246C37.0077 41.4216 37.0594 41.43 37.1074 41.4492C37.1782 41.4755 37.2387 41.5239 37.2798 41.5872C37.321 41.6505 37.3407 41.7254 37.3359 41.8008C37.4062 41.6953 37.4766 41.625 37.5469 41.625C37.6314 41.5908 37.726 41.5908 37.8105 41.625C37.8811 41.6483 37.9443 41.6898 37.9937 41.7454C38.0431 41.8009 38.077 41.8686 38.0918 41.9414V42.1172L38.0215 42.3281L37.7578 43.1191L36.2812 42.6094ZM37.0195 42.3457L37.0898 42.1523C37.125 42.082 37.125 42.0293 37.1074 41.9766C37.1074 41.959 37.0723 41.9238 37.0195 41.9062C37.0004 41.8969 36.9793 41.8921 36.958 41.8921C36.9367 41.8921 36.9157 41.8969 36.8965 41.9062L36.8086 42.0469L36.7383 42.2578L37.0195 42.3457ZM37.5996 42.5566L37.6875 42.3105V42.1348C37.6806 42.1144 37.669 42.0958 37.6538 42.0806C37.6386 42.0653 37.62 42.0538 37.5996 42.0469C37.5804 42.0375 37.5594 42.0327 37.5381 42.0327C37.5168 42.0327 37.4957 42.0375 37.4766 42.0469C37.4414 42.082 37.4062 42.1348 37.3887 42.2227L37.3008 42.4512L37.5996 42.5566ZM37.0195 40.7461L37.2656 40.3242L38.2676 40.9219L38.6543 40.2891L38.9883 40.4824L38.3555 41.5371L37.0195 40.7461ZM37.9688 39.3223L38.2676 38.9531L39.4629 39.9375L39.1465 40.3066L37.9688 39.3223ZM40.043 38.5137L40.4473 38.3379C40.5 38.4434 40.5352 38.5488 40.5352 38.6543C40.5413 38.751 40.5232 38.8477 40.4824 38.9355C40.4298 39.0362 40.3582 39.1258 40.2715 39.1992C40.1701 39.293 40.0504 39.3648 39.9199 39.4102C39.7969 39.4453 39.6738 39.4453 39.5332 39.4102C39.3722 39.352 39.2317 39.2482 39.1289 39.1113C38.9531 38.9355 38.8828 38.7246 38.9004 38.5312C38.9004 38.3379 39.0059 38.1621 39.1992 38.0039C39.3151 37.8923 39.4623 37.8187 39.6211 37.793C39.7752 37.7788 39.9297 37.8159 40.0605 37.8984L39.7969 38.25C39.7649 38.2266 39.7293 38.2088 39.6914 38.1973C39.6509 38.1882 39.6089 38.1882 39.5684 38.1973C39.522 38.2098 39.4797 38.234 39.4453 38.2676C39.3574 38.3379 39.3223 38.4258 39.3398 38.5312C39.3398 38.6016 39.3926 38.707 39.498 38.7949C39.6035 38.9355 39.709 39.0059 39.7793 39.0234C39.8672 39.0234 39.9375 39.0234 40.0078 38.9531C40.0781 38.8828 40.1133 38.8301 40.1133 38.7598C40.1133 38.6895 40.0957 38.6016 40.043 38.5137ZM41.6953 37.916L41.2207 38.1797L41.2734 38.4434L40.834 38.6719L40.623 37.0195L41.0801 36.7734L42.3281 37.8809L41.8887 38.1094L41.6953 37.916ZM41.4492 37.6699L41.0449 37.2656L41.1504 37.8281L41.4492 37.6699ZM42.9258 36.0879L43.6289 35.9648C43.7448 35.9402 43.8646 35.9402 43.9805 35.9648C44.0684 35.9824 44.1387 36.0176 44.209 36.0879C44.2793 36.1406 44.332 36.2109 44.3848 36.2988L44.4551 36.5977C44.4902 36.7734 44.4902 36.8965 44.4551 36.9844C44.4404 37.0791 44.4043 37.1693 44.3496 37.248C44.3042 37.3138 44.244 37.368 44.1738 37.4062L43.8926 37.4941L43.1895 37.6172L42.9258 36.0879ZM43.4531 36.3516L43.5938 37.1777H43.7168C43.8047 37.1426 43.8926 37.125 43.9102 37.0898C43.9629 37.0723 43.9805 37.0195 43.998 36.9668V36.6855C43.9629 36.5273 43.9102 36.4219 43.8574 36.3691C43.7871 36.3164 43.6816 36.2988 43.5762 36.334L43.4531 36.3516ZM44.9121 35.8242L46.1953 35.8594V36.2109L45.3867 36.1758L45.3691 36.4219L46.1074 36.4395V36.7559L45.3516 36.7383V37.0371L46.1777 37.0723L46.1602 37.4238L44.8418 37.3711L44.9121 35.8242ZM46.7754 35.9648L47.25 36.0703L46.9688 37.2129L47.6895 37.3887L47.6016 37.7578L46.4063 37.4766L46.7754 35.9648ZM49.2715 36.791L49.957 37.1953C50.1152 37.2832 50.2031 37.3711 50.2383 37.4941C50.2559 37.6172 50.2383 37.7402 50.168 37.8633C50.1364 37.9249 50.0917 37.9789 50.037 38.0214C49.9824 38.0639 49.9191 38.0939 49.8516 38.1094C49.7285 38.1445 49.5879 38.1094 49.4121 38.0039L49.1836 37.8809L48.9023 38.373L48.4805 38.127L49.2715 36.791ZM49.3594 37.5996L49.4473 37.6699L49.6406 37.7227C49.6621 37.7188 49.6826 37.7106 49.7007 37.6985C49.7189 37.6864 49.7343 37.6707 49.7461 37.6523C49.7616 37.6327 49.7728 37.6101 49.7788 37.5858C49.7849 37.5616 49.7857 37.5363 49.7813 37.5117C49.7637 37.459 49.7285 37.4238 49.6406 37.3711L49.5352 37.3008L49.3594 37.5996ZM50.6953 39.4102L50.291 39.041L50.0625 39.1816L49.7109 38.8301L51.1875 38.1094L51.5742 38.4609L50.9414 39.9902L50.5898 39.6387L50.6953 39.4102ZM50.8535 39.0937L51.0996 38.5664L50.6074 38.8652L50.8535 39.0937ZM51.0293 40.1309L52.3125 39.252L52.7695 39.9023L52.9453 40.2188L52.9277 40.4473C52.8926 40.5176 52.8398 40.5879 52.752 40.6406C52.6934 40.6926 52.6192 40.7235 52.541 40.7285C52.4689 40.7343 52.3964 40.7223 52.3301 40.6934C52.2781 40.6656 52.2307 40.63 52.1895 40.5879V40.834L52.1367 40.9395L51.8906 41.3789L51.5918 40.9395L51.8379 40.4648L51.8906 40.3242C51.8906 40.2891 51.8906 40.2363 51.8555 40.2012L51.8203 40.166L51.293 40.5176L51.0293 40.1309ZM52.084 40.0078L52.1895 40.1836L52.2773 40.2539C52.2873 40.2685 52.3004 40.2808 52.3155 40.2899C52.3307 40.299 52.3477 40.3047 52.3652 40.3066C52.3828 40.3066 52.418 40.3066 52.4531 40.2715C52.4723 40.2606 52.4886 40.2454 52.5008 40.2271C52.5131 40.2088 52.5208 40.1879 52.5234 40.166L52.4531 39.9902L52.3301 39.8145L52.084 40.0078ZM52.5586 42.3281L52.3477 41.8184L52.084 41.8359L51.9082 41.3965L53.5605 41.3613L53.7363 41.8359L52.5234 42.9609L52.3477 42.4863L52.5586 42.3281ZM52.8223 42.1172L53.2793 41.748L52.6992 41.7832L52.8223 42.1172ZM53.2266 43.8047L53.543 43.752L53.666 44.4902L52.998 44.5957C52.8997 44.4908 52.8169 44.3724 52.752 44.2441C52.6292 43.9806 52.5983 43.6836 52.6641 43.4004C52.7168 43.2773 52.7871 43.1895 52.9102 43.1016C53.0306 43.0177 53.1691 42.9635 53.3145 42.9434C53.4672 42.9144 53.6249 42.9266 53.7715 42.9785C53.908 43.0288 54.0249 43.1211 54.1055 43.2422C54.1582 43.3477 54.2109 43.4707 54.2285 43.6465C54.2489 43.7746 54.2489 43.9051 54.2285 44.0332C54.2189 44.1156 54.1887 44.1942 54.1406 44.2617L53.9121 44.4375L53.7539 43.9805C53.8066 43.9629 53.8418 43.9277 53.877 43.875C53.8945 43.8223 53.9121 43.752 53.8945 43.6992C53.8918 43.6501 53.8777 43.6023 53.8533 43.5595C53.8289 43.5168 53.7949 43.4804 53.7539 43.4531C53.666 43.4004 53.543 43.4004 53.4023 43.418C53.2266 43.4355 53.1035 43.4883 53.0508 43.5586C53.0187 43.5972 52.9957 43.6425 52.9835 43.6912C52.9713 43.7399 52.9703 43.7907 52.9805 43.8398L53.0332 43.998L53.1387 44.1387H53.2793L53.2266 43.8047ZM54.2461 46.0547L54.1934 46.5293L53.2793 46.459C53.1939 46.4494 53.1108 46.4256 53.0332 46.3887C52.9514 46.3534 52.8791 46.2992 52.8223 46.2305C52.7739 46.1742 52.738 46.1083 52.7168 46.0371C52.6895 45.922 52.6835 45.8028 52.6992 45.6855C52.6992 45.6152 52.6992 45.5273 52.7344 45.4395L52.8047 45.2285C52.8463 45.1657 52.9001 45.1119 52.9629 45.0703C53.015 45.0295 53.0748 44.9996 53.1387 44.9824C53.2319 44.9682 53.3267 44.9682 53.4199 44.9824L54.334 45.0527L54.2988 45.5273L53.3496 45.4395C53.2617 45.4395 53.1914 45.4395 53.1387 45.4922C53.0859 45.5449 53.0684 45.5977 53.0508 45.6855C53.0508 45.7734 53.0508 45.8262 53.1035 45.8789C53.1563 45.9316 53.209 45.9668 53.2969 45.9668L54.2461 46.0547ZM52.5234 47.707L52.6992 47.1797L52.4883 47.0215L52.6289 46.5645L53.9297 47.6016L53.7539 48.0938L52.1016 48.1641L52.2773 47.6895L52.5234 47.707ZM52.875 47.707H53.4551L52.9805 47.3906L52.875 47.707ZM53.4375 48.9727L53.1562 49.4297H52.5586L52.8398 49.957L52.5586 50.4141L52.1016 49.4297L51.5391 49.1133L51.7852 48.6914L52.3477 49.0254L53.4375 48.9727Z" fill="black"/>
<path d="M46.6172 39.6211C46.6172 39.6211 50.9941 41.5195 50.2207 45.4219C49.4648 49.3066 47.0215 49.2891 46.0723 49.7109C45.1055 50.1504 44.4551 50.7656 44.0684 50.6777C43.6992 50.5898 43.1895 50.291 43.1895 50.291C43.1895 50.291 43.1543 50.9414 43.9277 51.0469C44.7012 51.1699 45.6855 50.0449 46.1953 49.9219C46.7051 49.7988 49.6406 49.4648 50.3789 45.5098C51.2227 41.2734 46.6348 39.7441 46.6172 39.6211Z" fill="#009B3A" stroke="black" stroke-width="0.0125"/>
<path d="M48.8145 40.4649C48.8375 40.5891 48.8469 40.6992 48.8411 40.7777C48.8353 40.8563 48.8147 40.899 48.7825 40.899C48.7503 40.899 48.7083 40.8563 48.6632 40.7777C48.6181 40.6992 48.5724 40.5891 48.5332 40.4649C48.5063 40.3794 48.4833 40.2899 48.4661 40.2035C48.4489 40.117 48.438 40.0357 48.4341 39.9659C48.4302 39.8961 48.4334 39.8395 48.4436 39.8007C48.4538 39.7618 48.4706 39.7416 48.4927 39.7416C48.5149 39.7416 48.5418 39.7618 48.5715 39.8007C48.6011 39.8395 48.6327 39.8961 48.6637 39.9659C48.6948 40.0357 48.7245 40.117 48.7506 40.2035C48.7768 40.2899 48.7986 40.3794 48.8145 40.4649ZM48.6738 40.5C48.7176 40.579 48.7583 40.6621 48.793 40.7435C48.8276 40.8248 48.8554 40.9023 48.8742 40.9703C48.893 41.0382 48.9024 41.0949 48.9017 41.1362C48.9011 41.1776 48.8903 41.2025 48.8702 41.2092C48.8502 41.2159 48.8214 41.2041 48.7858 41.1749C48.7503 41.1456 48.709 41.0995 48.6649 41.04C48.6208 40.9805 48.5751 40.909 48.531 40.8308C48.4869 40.7526 48.4456 40.6696 48.4102 40.5879C48.3555 40.462 48.3172 40.3455 48.3019 40.2578C48.2866 40.1701 48.2951 40.1166 48.326 40.1063C48.3569 40.096 48.4084 40.1295 48.4717 40.2012C48.535 40.2729 48.6064 40.3784 48.6738 40.5ZM48.2344 40.7813C48.3113 40.8039 48.387 40.8302 48.4572 40.8586C48.5274 40.887 48.5907 40.917 48.6435 40.9469C48.6962 40.9768 48.7375 41.0059 48.7648 41.0327C48.7921 41.0595 48.8049 41.0834 48.8026 41.103C48.8003 41.1226 48.7829 41.1376 48.7513 41.1471C48.7197 41.1565 48.6746 41.1603 48.6186 41.1582C48.5626 41.1561 48.4967 41.1481 48.4247 41.1347C48.3528 41.1213 48.2762 41.1028 48.1992 41.0801C48.0439 41.0344 47.8967 40.9749 47.7901 40.9145C47.6836 40.8542 47.6263 40.798 47.631 40.7584C47.6356 40.7188 47.7018 40.6989 47.815 40.7032C47.9281 40.7075 48.079 40.7356 48.2344 40.7813Z" fill="#009B3A" stroke="black" stroke-width="0.0125"/>
<path d="M48.3047 40.6231C48.372 40.6685 48.4369 40.7165 48.4955 40.7646C48.5542 40.8127 48.6055 40.8599 48.6466 40.9034C48.6877 40.9468 48.7177 40.9859 48.7349 41.0181C48.7522 41.0504 48.7563 41.0754 48.747 41.0915C48.7378 41.1077 48.7154 41.1147 48.6811 41.1123C48.6468 41.1099 48.6013 41.098 48.5472 41.0774C48.493 41.0567 48.4313 41.0277 48.3656 40.992C48.2999 40.9563 48.2314 40.9145 48.1641 40.8692C48.0864 40.8234 48.0075 40.7711 47.9335 40.7163C47.8596 40.6614 47.7924 40.6054 47.7371 40.5526C47.6818 40.4997 47.6398 40.4514 47.6144 40.4113C47.589 40.3711 47.5808 40.3403 47.5905 40.321C47.6001 40.3017 47.6273 40.2945 47.67 40.3C47.7128 40.3055 47.7699 40.3235 47.8371 40.3526C47.9042 40.3817 47.9797 40.4212 48.0576 40.4681C48.1356 40.515 48.2141 40.568 48.2871 40.6231H48.3047Z" fill="#009B3A" stroke="black" stroke-width="0.0125"/>
<path d="M48.4805 40.5527C48.5553 40.6142 48.6341 40.6882 48.7092 40.7673C48.7843 40.8464 48.8532 40.9281 48.9091 41.0043C48.9651 41.0806 49.0062 41.1488 49.0284 41.2025C49.0507 41.2561 49.0534 41.2933 49.0363 41.3105C49.0191 41.3276 48.9827 41.3241 48.9306 41.3004C48.8784 41.2766 48.8123 41.2333 48.7387 41.1747C48.6651 41.1162 48.5864 41.0443 48.5104 40.9661C48.4343 40.8879 48.3635 40.8061 48.3047 40.7285C48.2427 40.6468 48.1965 40.5728 48.1708 40.5146C48.1452 40.4563 48.1413 40.416 48.1593 40.3979C48.1774 40.3798 48.2168 40.3847 48.2734 40.412C48.33 40.4393 48.4016 40.4879 48.4805 40.5527Z" fill="#009B3A" stroke="black" stroke-width="0.0125"/>
<path d="M48.7793 41.0977L48.5859 41.2032C48.5332 41.2208 48.4805 41.1504 48.375 41.2032C48.2695 41.2735 48.1992 41.379 48.1641 41.4317C48.1465 41.502 48.1992 41.5196 48.3398 41.4669C48.4629 41.3965 48.5156 41.2911 48.5684 41.2559C48.6211 41.2032 48.7441 41.1504 48.7969 41.1329L48.9727 40.8692C49.0078 40.7989 49.1836 40.6934 49.2539 40.5352C49.3066 40.4297 49.2891 40.3243 49.2012 40.3594C49.1126 40.4239 49.0404 40.5082 48.9902 40.6055C48.9375 40.6934 48.9902 40.7813 48.9375 40.8692L48.7793 41.0977ZM50.1504 41.5547C50.1542 41.8122 50.1357 42.0536 50.0988 42.2257C50.062 42.3979 50.0099 42.4867 49.9539 42.4728C49.898 42.4588 49.8428 42.3431 49.8005 42.1511C49.7583 41.9592 49.7323 41.7067 49.7285 41.4493C49.7266 41.3218 49.7302 41.1969 49.739 41.0818C49.7479 40.9667 49.7618 40.8635 49.7801 40.7783C49.7983 40.6931 49.8205 40.6274 49.8454 40.585C49.8702 40.5426 49.8973 40.5243 49.925 40.5313C49.9527 40.5382 49.9805 40.5702 50.0068 40.6253C50.0331 40.6805 50.0574 40.7578 50.0784 40.8529C50.0993 40.9479 50.1164 41.0588 50.1288 41.1792C50.1411 41.2997 50.1485 41.4273 50.1504 41.5547Z" fill="#009B3A" stroke="black" stroke-width="0.0125"/>
<path d="M49.9219 41.5371C49.9751 41.7861 50.0048 42.0259 50.0046 42.2036C50.0043 42.3813 49.974 42.4825 49.9204 42.4848C49.8668 42.4871 49.7942 42.3905 49.7187 42.216C49.6431 42.0416 49.5708 41.8037 49.5176 41.5547C49.4917 41.4325 49.4713 41.3116 49.4576 41.1987C49.4439 41.0858 49.437 40.9833 49.4375 40.8969C49.438 40.8105 49.4458 40.742 49.4604 40.6952C49.475 40.6485 49.4962 40.6244 49.5228 40.6244C49.5493 40.6244 49.5807 40.6485 49.6151 40.6952C49.6496 40.742 49.6863 40.8105 49.7234 40.8969C49.7605 40.9833 49.7971 41.0858 49.8311 41.1987C49.8652 41.3116 49.896 41.4325 49.9219 41.5547V41.5371Z" fill="#009B3A" stroke="black" stroke-width="0.0125"/>
<path d="M49.2187 41.7656C49.3268 41.8308 49.4361 41.9053 49.5387 41.9836C49.6413 42.0618 49.7346 42.142 49.8118 42.2181C49.8891 42.2943 49.9483 42.3645 49.9851 42.4238C50.022 42.483 50.0356 42.5296 50.0249 42.5604C50.0142 42.5911 49.9795 42.6052 49.9233 42.6015C49.8672 42.5978 49.7909 42.5765 49.7002 42.5391C49.6095 42.5016 49.5066 42.4491 49.3989 42.3852C49.2913 42.3214 49.1817 42.2478 49.0781 42.1699C48.9815 42.1047 48.8875 42.0346 48.8018 41.9637C48.716 41.8928 48.64 41.8225 48.5782 41.7568C48.5164 41.6911 48.4699 41.6312 48.4414 41.5807C48.413 41.5301 48.4031 41.4898 48.4123 41.4621C48.4215 41.4344 48.4497 41.4198 48.4952 41.4192C48.5408 41.4186 48.6027 41.4319 48.6776 41.4585C48.7525 41.485 48.8388 41.5243 48.9317 41.574C49.0245 41.6236 49.1221 41.6828 49.2187 41.748V41.7656Z" fill="#009B3A" stroke="black" stroke-width="0.0125"/>
<path d="M49.3594 41.5547C49.5192 41.7485 49.6585 41.95 49.7468 42.1151C49.8351 42.2801 49.865 42.3951 49.8301 42.4347C49.7951 42.4743 49.6981 42.4354 49.5604 42.3264C49.4226 42.2174 49.2555 42.0473 49.0957 41.8535C49.0166 41.7576 48.9416 41.6587 48.8752 41.5625C48.8087 41.4664 48.752 41.3749 48.7083 41.2931C48.6646 41.2114 48.6347 41.1411 48.6204 41.0863C48.6061 41.0314 48.6077 40.9931 48.625 40.9735C48.6423 40.9539 48.6751 40.9533 48.7213 40.9719C48.7676 40.9905 48.8265 41.0279 48.8947 41.0818C48.9629 41.1358 49.039 41.2053 49.1188 41.2865C49.1985 41.3676 49.2803 41.4587 49.3594 41.5547Z" fill="#009B3A" stroke="black" stroke-width="0.0125"/>
<path d="M49.6406 41.5371C49.7038 41.6551 49.7621 41.7741 49.8121 41.8875C49.8621 42.0009 49.9028 42.1064 49.932 42.198C49.9612 42.2895 49.9783 42.3654 49.9822 42.4212C49.9861 42.477 49.9768 42.5116 49.9549 42.5232C49.933 42.5347 49.8988 42.5229 49.8544 42.4884C49.8099 42.454 49.7561 42.3975 49.6959 42.3223C49.6357 42.247 49.5703 42.1545 49.5035 42.0499C49.4367 41.9454 49.3698 41.8308 49.3066 41.7129C49.2434 41.5949 49.1852 41.4759 49.1352 41.3625C49.0852 41.2491 49.0444 41.1436 49.0152 41.052C48.986 40.9605 48.969 40.8846 48.9651 40.8288C48.9611 40.773 48.9704 40.7384 48.9923 40.7268C49.0143 40.7153 49.0484 40.7271 49.0929 40.7616C49.1373 40.796 49.1912 40.8525 49.2514 40.9277C49.3116 41.003 49.3769 41.0955 49.4437 41.2001C49.5105 41.3046 49.5774 41.4192 49.6406 41.5371Z" fill="#009B3A" stroke="black" stroke-width="0.0125"/>
<path d="M49.8867 42.4512L49.5527 42.5215C49.5 42.5215 49.4473 42.3985 49.2715 42.4336C49.0957 42.4688 48.9551 42.5918 48.9199 42.6621C48.8496 42.7324 48.9199 42.8028 49.1309 42.7676C49.3418 42.7324 49.4121 42.5918 49.5176 42.5742L49.8867 42.5039L50.2031 42.2051C50.291 42.1172 50.5547 42.0293 50.6953 41.8535C50.8184 41.7129 50.8184 41.5723 50.6953 41.5899C50.5532 41.639 50.4261 41.7237 50.3262 41.836C50.2383 41.9414 50.2559 42.0996 50.1504 42.1875L49.8867 42.4512ZM50.8535 43.3653C50.8327 43.4905 50.8072 43.6122 50.7782 43.7234C50.7493 43.8347 50.7176 43.9333 50.685 44.0137C50.6523 44.0941 50.6194 44.1546 50.588 44.1919C50.5566 44.2291 50.5273 44.2423 50.5019 44.2308C50.4765 44.2193 50.4555 44.1832 50.44 44.1246C50.4245 44.066 50.4148 43.9861 50.4115 43.8894C50.4083 43.7927 50.4115 43.6811 50.421 43.561C50.4304 43.4409 50.446 43.3147 50.4668 43.1895C50.4876 43.0643 50.5132 42.9426 50.5421 42.8313C50.571 42.7201 50.6027 42.6214 50.6353 42.541C50.668 42.4607 50.7009 42.4001 50.7323 42.3629C50.7638 42.3256 50.793 42.3124 50.8184 42.3239C50.8438 42.3355 50.8648 42.3716 50.8803 42.4302C50.8958 42.4887 50.9055 42.5686 50.9088 42.6653C50.912 42.762 50.9088 42.8736 50.8993 42.9937C50.8899 43.1138 50.8743 43.2401 50.8535 43.3653Z" fill="#009B3A" stroke="black" stroke-width="0.0125"/>
<path d="M50.625 43.3125C50.6385 43.4563 50.6453 43.6082 50.6446 43.7557C50.644 43.9033 50.636 44.0422 50.6213 44.1611C50.6066 44.28 50.5857 44.3755 50.5602 44.4399C50.5347 44.5042 50.5054 44.5354 50.4747 44.531C50.4439 44.5266 50.4127 44.4867 50.3834 44.4146C50.3542 44.3425 50.3278 44.2402 50.3065 44.1161C50.2851 43.992 50.2694 43.8497 50.2606 43.7009C50.2518 43.552 50.2502 43.4009 50.2559 43.2598C50.2496 43.1277 50.2489 42.9952 50.2539 42.8708C50.259 42.7463 50.2696 42.6326 50.2851 42.5371C50.3006 42.4416 50.3206 42.3663 50.3439 42.3161C50.3672 42.2658 50.3932 42.2418 50.4203 42.2455C50.4474 42.2492 50.475 42.2805 50.5013 42.3375C50.5276 42.3945 50.552 42.4759 50.5729 42.5764C50.5938 42.6769 50.6108 42.7943 50.6228 42.9211C50.6349 43.0479 50.6416 43.1812 50.6426 43.3125H50.625Z" fill="#009B3A" stroke="black" stroke-width="0.0125"/>
<path d="M49.9219 43.3828C50.0058 43.4651 50.0867 43.5525 50.1597 43.6396C50.2326 43.7268 50.2961 43.812 50.3464 43.8902C50.3967 43.9683 50.4328 44.0378 50.4524 44.0944C50.472 44.151 50.4748 44.1936 50.4606 44.2196C50.4464 44.2457 50.4155 44.2546 50.3697 44.2459C50.324 44.2372 50.2643 44.2111 50.1943 44.1691C50.1243 44.127 50.0454 44.07 49.9624 44.0013C49.8793 43.9327 49.7938 43.8538 49.7109 43.7695C49.6156 43.6858 49.5197 43.5913 49.4305 43.4932C49.3412 43.395 49.2609 43.2958 49.1958 43.2032C49.1306 43.1105 49.0823 43.0267 49.0545 42.9583C49.0267 42.8899 49.0201 42.8385 49.0353 42.8082C49.0504 42.7779 49.0869 42.7694 49.142 42.7834C49.197 42.7973 49.2692 42.8334 49.353 42.8888C49.4368 42.9442 49.53 43.0175 49.6255 43.1031C49.721 43.1887 49.8164 43.2844 49.9043 43.3828H49.9219Z" fill="#009B3A" stroke="black" stroke-width="0.0125"/>
<path d="M50.0976 43.2247C50.1586 43.3365 50.2149 43.4504 50.2633 43.5599C50.3117 43.6694 50.3512 43.7723 50.3797 43.8628C50.4081 43.9533 50.4249 44.0296 50.429 44.0873C50.4331 44.1451 50.4246 44.1831 50.4038 44.1992C50.383 44.2154 50.3505 44.2094 50.3079 44.1815C50.2654 44.1536 50.2137 44.1045 50.1559 44.0368C50.0981 43.9692 50.0353 43.8844 49.971 43.7873C49.9067 43.6901 49.8422 43.5826 49.7812 43.4708C49.7113 43.3539 49.6443 43.2295 49.5851 43.1064C49.5258 42.9833 49.4758 42.8644 49.4385 42.7584C49.4012 42.6524 49.3776 42.5618 49.3694 42.4931C49.3612 42.4243 49.3685 42.3791 49.3909 42.3607C49.4132 42.3423 49.4501 42.3511 49.4988 42.3865C49.5475 42.4219 49.6069 42.483 49.6727 42.5655C49.7386 42.6481 49.8092 42.7499 49.8796 42.8638C49.95 42.9778 50.0185 43.101 50.0801 43.2247H50.0976Z" fill="#009B3A" stroke="black" stroke-width="0.0125"/>
<path d="M50.3613 43.2422C50.4026 43.3722 50.439 43.5027 50.4684 43.6263C50.4977 43.7499 50.5195 43.8641 50.5324 43.9625C50.5453 44.0609 50.5491 44.1416 50.5435 44.1998C50.538 44.2581 50.5233 44.2928 50.5002 44.3021C50.4771 44.3113 50.4461 44.2948 50.409 44.2536C50.3719 44.2125 50.3293 44.1473 50.2838 44.062C50.2382 43.9766 50.1906 43.8727 50.1436 43.7562C50.0965 43.6397 50.0511 43.5128 50.0098 43.3829C49.9684 43.2529 49.9321 43.1224 49.9027 42.9989C49.8734 42.8753 49.8516 42.761 49.8387 42.6626C49.8258 42.5642 49.822 42.4835 49.8275 42.4253C49.833 42.367 49.8478 42.3323 49.8708 42.3231C49.8939 42.3138 49.9249 42.3303 49.9621 42.3715C49.9992 42.4127 50.0418 42.4778 50.0873 42.5632C50.1329 42.6485 50.1805 42.7524 50.2275 42.8689C50.2745 42.9854 50.32 43.1123 50.3613 43.2422Z" fill="#009B3A" stroke="black" stroke-width="0.0125"/>
<path d="M50.4492 44.209H50.0977C50.0449 44.209 50.0274 44.0684 49.8516 44.0684C49.6758 44.0684 49.5 44.1563 49.4473 44.2266C49.377 44.2793 49.4473 44.3672 49.6406 44.3672C49.8516 44.3672 49.957 44.2617 50.0625 44.2441H50.4316L50.7832 44.0156C50.8887 43.9453 51.1875 43.9102 51.3457 43.7695C51.4863 43.6641 51.5215 43.5059 51.3984 43.5234C51.2448 43.5438 51.0992 43.6045 50.9766 43.6992C50.8711 43.7695 50.8711 43.9277 50.7481 43.9981L50.4316 44.209M50.9063 45.3867C50.7715 45.6017 50.6274 45.7912 50.5057 45.9135C50.3841 46.0358 50.2948 46.081 50.2575 46.039C50.2202 45.9971 50.2379 45.8714 50.3069 45.6898C50.3758 45.5081 50.4902 45.2853 50.625 45.0703C50.7598 44.8554 50.9039 44.6659 51.0255 44.5435C51.1472 44.4212 51.2365 44.3761 51.2738 44.418C51.3111 44.46 51.2933 44.5856 51.2244 44.7673C51.1555 44.9489 51.041 45.1718 50.9063 45.3867Z" fill="#009B3A"/>
<path d="M50.4492 44.209H50.0977C50.0449 44.209 50.0274 44.0684 49.8516 44.0684C49.6758 44.0684 49.5 44.1563 49.4473 44.2266C49.377 44.2793 49.4473 44.3672 49.6406 44.3672C49.8516 44.3672 49.957 44.2617 50.0625 44.2441H50.4316L50.7832 44.0156C50.8887 43.9453 51.1875 43.9102 51.3457 43.7695C51.4863 43.6641 51.5215 43.5059 51.3984 43.5234C51.2448 43.5438 51.0992 43.6045 50.9766 43.6992C50.8711 43.7695 50.8711 43.9277 50.7481 43.9981L50.4316 44.209M50.9063 45.3867C50.7715 45.6017 50.6274 45.7912 50.5057 45.9135C50.3841 46.0358 50.2948 46.081 50.2575 46.039C50.2202 45.9971 50.2379 45.8714 50.3069 45.6898C50.3758 45.5081 50.4902 45.2853 50.625 45.0703C50.7598 44.8554 50.9039 44.6659 51.0255 44.5435C51.1472 44.4212 51.2365 44.3761 51.2738 44.418C51.3111 44.46 51.2933 44.5856 51.2244 44.7673C51.1555 44.9489 51.041 45.1718 50.9063 45.3867Z" stroke="black" stroke-width="0.0125"/>
<path d="M50.7305 45.246C50.6813 45.3741 50.6283 45.4982 50.5745 45.6112C50.5206 45.7242 50.4671 45.8239 50.4168 45.9046C50.3665 45.9854 50.3205 46.0456 50.2815 46.0818C50.2424 46.118 50.211 46.1295 50.189 46.1157C50.1671 46.1018 50.1551 46.0629 50.1536 46.0011C50.1522 45.9393 50.1614 45.8558 50.1806 45.7555C50.1999 45.6552 50.2289 45.5399 50.2659 45.4163C50.3029 45.2927 50.3473 45.1632 50.3965 45.0351C50.4958 44.7765 50.6086 44.5396 50.7101 44.3765C50.8117 44.2134 50.8936 44.1375 50.9379 44.1655C50.9822 44.1935 50.9852 44.323 50.9463 44.5257C50.9074 44.7283 50.8298 44.9874 50.7305 45.246ZM50.0449 45.0175C50.1298 45.2374 50.1928 45.4631 50.2198 45.645C50.2469 45.8269 50.2359 45.95 50.1893 45.9873C50.1427 46.0246 50.0643 45.973 49.9712 45.8439C49.8782 45.7148 49.7783 45.5187 49.6934 45.2988C49.6084 45.0789 49.5455 44.8532 49.5184 44.6713C49.4914 44.4894 49.5023 44.3663 49.549 44.329C49.5956 44.2917 49.674 44.3433 49.767 44.4724C49.86 44.6015 49.96 44.7976 50.0449 45.0175Z" fill="#009B3A" stroke="black" stroke-width="0.0125"/>
<path d="M50.2735 44.9472C50.2997 45.2336 50.3046 45.5138 50.2869 45.7262C50.2693 45.9386 50.2305 46.0658 50.1792 46.0798C50.128 46.0938 50.0683 45.9934 50.0135 45.8008C49.9586 45.6082 49.913 45.3391 49.8867 45.0527C49.8737 44.9109 49.8658 44.7691 49.8635 44.6354C49.8612 44.5018 49.8645 44.3788 49.8733 44.2737C49.882 44.1685 49.896 44.0832 49.9145 44.0225C49.933 43.9618 49.9555 43.927 49.9809 43.9201C50.0063 43.9132 50.034 43.9343 50.0625 43.9821C50.0909 44.03 50.1195 44.1037 50.1467 44.1991C50.1739 44.2945 50.199 44.4096 50.2208 44.538C50.2425 44.6664 50.2604 44.8054 50.2735 44.9472Z" fill="#009B3A" stroke="black" stroke-width="0.0125"/>
<path d="M50.5195 45.0879C50.5061 45.2275 50.4878 45.3652 50.4657 45.4933C50.4436 45.6214 50.4181 45.7373 50.3907 45.8343C50.3632 45.9314 50.3344 46.0078 50.3058 46.0591C50.2772 46.1103 50.2494 46.1356 50.224 46.1332C50.1986 46.1309 50.1761 46.1012 50.1578 46.0456C50.1395 45.9901 50.1257 45.9098 50.1172 45.8095C50.1087 45.7091 50.1058 45.5907 50.1084 45.4608C50.1111 45.331 50.1194 45.1923 50.1328 45.0527C50.1462 44.9131 50.1645 44.7754 50.1866 44.6473C50.2087 44.5192 50.2342 44.4033 50.2617 44.3063C50.2891 44.2092 50.318 44.1328 50.3466 44.0815C50.3752 44.0302 50.4029 44.005 50.4283 44.0073C50.4537 44.0097 50.4762 44.0394 50.4946 44.095C50.5129 44.1505 50.5267 44.2308 50.5351 44.3311C50.5436 44.4314 50.5466 44.5499 50.5439 44.6798C50.5412 44.8096 50.5329 44.9483 50.5195 45.0879Z" fill="#009B3A" stroke="black" stroke-width="0.0125"/>
<path d="M50.2031 46.002L49.9043 45.8613C49.8516 45.8262 49.8867 45.7031 49.7285 45.6328C49.5527 45.5625 49.3769 45.5625 49.3066 45.5977C49.2187 45.6328 49.2363 45.7207 49.4297 45.8262C49.6055 45.9141 49.7461 45.8438 49.8516 45.8965L50.2031 46.0371L50.5898 45.9668C50.7129 45.9668 50.9941 46.0371 51.1875 45.9668C51.3633 45.9317 51.4512 45.791 51.3457 45.7559C51.1979 45.7081 51.0397 45.702 50.8887 45.7383C50.7656 45.7735 50.6953 45.9141 50.5723 45.9492C50.4844 45.9492 50.2207 46.0196 50.2031 46.002ZM50.3789 47.4434C50.2699 47.537 50.1593 47.6238 50.0533 47.6988C49.9473 47.7738 49.8481 47.8356 49.7612 47.8805C49.6743 47.9255 49.6016 47.9528 49.5471 47.9609C49.4926 47.9691 49.4574 47.9578 49.4436 47.9278C49.4297 47.8978 49.4375 47.8496 49.4664 47.7861C49.4953 47.7225 49.5448 47.6448 49.612 47.5574C49.6793 47.47 49.763 47.3745 49.8584 47.2766C49.9538 47.1786 50.059 47.08 50.168 46.9863C50.2745 46.8952 50.3824 46.8108 50.4857 46.738C50.5889 46.6653 50.6855 46.6056 50.7698 46.5623C50.8541 46.5191 50.9245 46.4931 50.9769 46.486C51.0294 46.4788 51.063 46.4906 51.0757 46.5206C51.0884 46.5506 51.08 46.5982 51.0509 46.6609C51.0219 46.7235 50.9728 46.7998 50.9065 46.8855C50.8402 46.9712 50.7579 47.0646 50.6643 47.1603C50.5708 47.256 50.4678 47.3522 50.3613 47.4434" fill="#009B3A"/>
<path d="M50.3789 47.4434C50.2699 47.537 50.1593 47.6238 50.0533 47.6988C49.9473 47.7738 49.8481 47.8356 49.7612 47.8805C49.6743 47.9255 49.6016 47.9528 49.5471 47.9609C49.4926 47.9691 49.4574 47.9578 49.4436 47.9278C49.4297 47.8978 49.4375 47.8496 49.4664 47.7861C49.4953 47.7225 49.5448 47.6448 49.612 47.5574C49.6793 47.47 49.763 47.3745 49.8584 47.2766C49.9538 47.1786 50.059 47.08 50.168 46.9863C50.2745 46.8952 50.3824 46.8108 50.4857 46.738C50.5889 46.6653 50.6855 46.6056 50.7698 46.5623C50.8541 46.5191 50.9245 46.4931 50.9769 46.486C51.0294 46.4788 51.063 46.4906 51.0757 46.5206C51.0884 46.5506 51.08 46.5982 51.0509 46.6609C51.0219 46.7235 50.9728 46.7998 50.9065 46.8855C50.8402 46.9712 50.7579 47.0646 50.6643 47.1603C50.5708 47.256 50.4678 47.3522 50.3613 47.4434M50.2031 46.002L49.9043 45.8613C49.8516 45.8262 49.8867 45.7031 49.7285 45.6328C49.5527 45.5625 49.3769 45.5625 49.3066 45.5977C49.2187 45.6328 49.2363 45.7207 49.4297 45.8262C49.6055 45.9141 49.7461 45.8438 49.8516 45.8965L50.2031 46.0371L50.5898 45.9668C50.7129 45.9668 50.9941 46.0371 51.1875 45.9668C51.3633 45.9317 51.4512 45.791 51.3457 45.7559C51.1979 45.7081 51.0397 45.702 50.8887 45.7383C50.7656 45.7735 50.6953 45.9141 50.5723 45.9492C50.4844 45.9492 50.2207 46.0196 50.2031 46.002Z" stroke="black" stroke-width="0.0125"/>
<path d="M50.2031 47.2324C50.1094 47.3685 50.0047 47.5053 49.8976 47.6319C49.7905 47.7584 49.6838 47.8712 49.5861 47.9612C49.4883 48.0513 49.4023 48.1161 49.3348 48.1504C49.2673 48.1848 49.2203 48.1878 49.1974 48.1592C49.1745 48.1306 49.1764 48.0711 49.203 47.9856C49.2296 47.9001 49.2801 47.7909 49.3504 47.6667C49.4208 47.5425 49.5092 47.4068 49.6084 47.2703C49.7076 47.1339 49.815 47.0005 49.9219 46.8809C50.0156 46.7448 50.1202 46.608 50.2274 46.4815C50.3345 46.3549 50.4412 46.2421 50.5389 46.1521C50.6366 46.0621 50.7227 45.9973 50.7902 45.9629C50.8577 45.9285 50.9047 45.9255 50.9276 45.9541C50.9505 45.9828 50.9486 46.0422 50.922 46.1277C50.8954 46.2132 50.8449 46.3224 50.7745 46.4466C50.7041 46.5708 50.6158 46.7065 50.5166 46.843C50.4174 46.9794 50.31 47.1128 50.2031 47.2324Z" fill="#009B3A" stroke="black" stroke-width="0.0125"/>
<path d="M49.5351 46.7226C49.5459 46.8637 49.5506 47.0057 49.549 47.1405C49.5475 47.2753 49.5396 47.4002 49.526 47.5081C49.5124 47.6161 49.4932 47.7049 49.4696 47.7696C49.446 47.8342 49.4184 47.8735 49.3884 47.885C49.3583 47.8966 49.3265 47.8802 49.2947 47.8369C49.2629 47.7935 49.2316 47.7241 49.2028 47.6324C49.174 47.5408 49.1482 47.4289 49.1268 47.3029C49.1054 47.177 49.0888 47.0395 49.0781 46.8984C49.0674 46.7573 49.0627 46.6153 49.0642 46.4805C49.0658 46.3457 49.0736 46.2208 49.0872 46.1129C49.1009 46.0049 49.12 45.9161 49.1437 45.8514C49.1673 45.7868 49.1949 45.7476 49.2249 45.736C49.2549 45.7245 49.2867 45.7408 49.3186 45.7842C49.3504 45.8275 49.3816 45.897 49.4104 45.9886C49.4392 46.0802 49.4651 46.1922 49.4865 46.3181C49.5079 46.4441 49.5244 46.5815 49.5351 46.7226Z" fill="#009B3A" stroke="black" stroke-width="0.0125"/>
<path d="M49.7988 46.7226C49.74 46.945 49.6718 47.1386 49.6044 47.2746C49.537 47.4107 49.474 47.4821 49.4246 47.4782C49.3753 47.4742 49.3423 47.3952 49.3306 47.2527C49.3188 47.1103 49.3289 46.9121 49.3594 46.6875C49.3815 46.5245 49.4136 46.3531 49.4531 46.1868C49.4926 46.0206 49.5384 45.8641 49.5869 45.73C49.6354 45.5959 49.6852 45.4877 49.7323 45.4143C49.7795 45.3408 49.8227 45.3041 49.8585 45.3069C49.8942 45.3098 49.9216 45.3522 49.9384 45.4308C49.9552 45.5093 49.9609 45.6219 49.9551 45.7595C49.9493 45.897 49.9322 46.0557 49.905 46.223C49.8779 46.3902 49.8415 46.5613 49.7988 46.7226Z" fill="#009B3A" stroke="black" stroke-width="0.0125"/>
<path d="M50.0273 46.9512C49.9702 47.0921 49.9084 47.2295 49.8455 47.3557C49.7825 47.4819 49.7197 47.5943 49.6605 47.6866C49.6013 47.7789 49.547 47.8492 49.5006 47.8935C49.4542 47.9378 49.4167 47.9553 49.3901 47.9449C49.3365 47.9239 49.3309 47.7908 49.3746 47.5747C49.4183 47.3587 49.5076 47.0775 49.623 46.793C49.6812 46.6501 49.7441 46.5108 49.808 46.3831C49.8719 46.2555 49.9356 46.142 49.9956 46.049C50.0555 45.9561 50.1104 45.8856 50.1572 45.8416C50.204 45.7975 50.2417 45.7808 50.2683 45.7924C50.2948 45.8039 50.3097 45.8435 50.3119 45.9089C50.3142 45.9742 50.3038 46.0641 50.2814 46.1733C50.2591 46.2826 50.2251 46.4091 50.1815 46.5455C50.1379 46.682 50.0855 46.8258 50.0273 46.9688" fill="#009B3A"/>
<path d="M50.0273 46.9512C49.9702 47.0921 49.9084 47.2295 49.8455 47.3557C49.7825 47.4819 49.7197 47.5943 49.6605 47.6866C49.6013 47.7789 49.547 47.8492 49.5006 47.8935C49.4542 47.9378 49.4167 47.9553 49.3901 47.9449C49.3365 47.9239 49.3309 47.7908 49.3746 47.5747C49.4183 47.3587 49.5076 47.0775 49.623 46.793C49.6812 46.6501 49.7441 46.5108 49.808 46.3831C49.8719 46.2555 49.9356 46.142 49.9956 46.049C50.0555 45.9561 50.1104 45.8856 50.1572 45.8416C50.204 45.7975 50.2417 45.7808 50.2683 45.7924C50.2948 45.8039 50.3097 45.8435 50.3119 45.9089C50.3142 45.9742 50.3038 46.0641 50.2814 46.1733C50.2591 46.2826 50.2251 46.4091 50.1815 46.5455C50.1379 46.682 50.0855 46.8258 50.0273 46.9688" stroke="black" stroke-width="0.0125"/>
<path d="M49.3945 47.8652L49.0957 47.6016C49.0605 47.5488 49.1309 47.4258 48.9727 47.2852C48.8471 47.1723 48.6844 47.1097 48.5156 47.1094C48.4102 47.1094 48.4102 47.2148 48.5859 47.3906C48.7617 47.5664 48.9375 47.5312 49.0254 47.6191C49.148 47.6986 49.2602 47.7931 49.3594 47.9004L49.834 47.9707C49.957 47.9883 50.2383 48.1992 50.4844 48.1992C50.6953 48.1992 50.8359 48.0938 50.7129 48.0059C50.5727 47.9069 50.4091 47.8463 50.2383 47.8301C50.0801 47.8301 49.957 47.9531 49.7988 47.9355L49.377 47.8652M48.9551 49.2363C48.7878 49.274 48.614 49.3035 48.4468 49.3227C48.2796 49.3419 48.1235 49.3502 47.9905 49.347C47.8574 49.3439 47.751 49.3293 47.6792 49.3044C47.6074 49.2795 47.5723 49.245 47.5764 49.2035C47.5806 49.162 47.6239 49.1146 47.7032 49.0649C47.7824 49.0152 47.8954 48.9646 48.0335 48.9168C48.1716 48.8691 48.3312 48.8256 48.5001 48.7895C48.669 48.7535 48.8426 48.726 49.0078 48.709C49.175 48.6714 49.3489 48.6418 49.5161 48.6226C49.6833 48.6034 49.8394 48.5951 49.9724 48.5983C50.1055 48.6014 50.2119 48.616 50.2837 48.6409C50.3555 48.6658 50.3906 48.7003 50.3865 48.7418C50.3823 48.7833 50.339 48.8307 50.2597 48.8804C50.1805 48.9301 50.0675 48.9808 49.9294 49.0285C49.7913 49.0762 49.6316 49.1197 49.4628 49.1558C49.2939 49.1918 49.1202 49.2193 48.9551 49.2363Z" fill="#009B3A"/>
<path d="M49.3945 47.8652L49.0957 47.6016C49.0605 47.5488 49.1309 47.4258 48.9727 47.2852C48.8471 47.1723 48.6844 47.1097 48.5156 47.1094C48.4102 47.1094 48.4102 47.2148 48.5859 47.3906C48.7617 47.5664 48.9375 47.5312 49.0254 47.6191C49.148 47.6986 49.2602 47.7931 49.3594 47.9004L49.834 47.9707C49.957 47.9883 50.2383 48.1992 50.4844 48.1992C50.6953 48.1992 50.8359 48.0938 50.7129 48.0059C50.5727 47.9069 50.4091 47.8463 50.2383 47.8301C50.0801 47.8301 49.957 47.9531 49.7988 47.9355L49.377 47.8652M48.9551 49.2363C48.7878 49.274 48.614 49.3035 48.4468 49.3227C48.2796 49.3419 48.1235 49.3502 47.9905 49.347C47.8574 49.3439 47.751 49.3293 47.6792 49.3044C47.6074 49.2795 47.5723 49.245 47.5764 49.2035C47.5806 49.162 47.6239 49.1146 47.7032 49.0649C47.7824 49.0152 47.8954 48.9646 48.0335 48.9168C48.1716 48.8691 48.3312 48.8256 48.5001 48.7895C48.669 48.7535 48.8426 48.726 49.0078 48.709C49.175 48.6714 49.3489 48.6418 49.5161 48.6226C49.6833 48.6034 49.8394 48.5951 49.9724 48.5983C50.1055 48.6014 50.2119 48.616 50.2837 48.6409C50.3555 48.6658 50.3906 48.7003 50.3865 48.7418C50.3823 48.7833 50.339 48.8307 50.2597 48.8804C50.1805 48.9301 50.0675 48.9808 49.9294 49.0285C49.7913 49.0762 49.6316 49.1197 49.4628 49.1558C49.2939 49.1918 49.1202 49.2193 48.9551 49.2363Z" stroke="black" stroke-width="0.0125"/>
<path d="M48.9375 48.9376C48.6574 49.0398 48.392 49.1117 48.194 49.139C47.996 49.1663 47.88 49.147 47.8689 49.085C47.8578 49.023 47.9525 48.9228 48.1343 48.8042C48.316 48.6857 48.5714 48.5576 48.8496 48.4454C49.1297 48.3432 49.3951 48.2713 49.5931 48.2439C49.7911 48.2166 49.9071 48.2359 49.9182 48.2979C49.9293 48.3599 49.8346 48.4602 49.6528 48.5787C49.4711 48.6972 49.2158 48.8253 48.9375 48.9376Z" fill="#009B3A" stroke="black" stroke-width="0.0125"/>
<path d="M48.5332 48.0762C48.4083 48.3162 48.2718 48.53 48.148 48.6793C48.0242 48.8286 47.9214 48.9036 47.8579 48.8909C47.7944 48.8782 47.7744 48.7786 47.8015 48.61C47.8286 48.4413 47.9011 48.2147 48.0059 47.9707C48.0696 47.8223 48.1433 47.6722 48.2219 47.5307C48.3005 47.3892 48.382 47.2598 48.4609 47.1514C48.5399 47.0429 48.6143 46.958 48.679 46.9026C48.7437 46.8471 48.7973 46.8224 48.8359 46.8301C48.8745 46.8378 48.8974 46.8778 48.9028 46.9473C48.9082 47.0168 48.8961 47.1142 48.8674 47.2326C48.8386 47.3511 48.7938 47.4879 48.7361 47.6335C48.6784 47.7792 48.6092 47.9302 48.5332 48.0762Z" fill="#009B3A" stroke="black" stroke-width="0.0125"/>
<path d="M48.8145 48.2343C48.7069 48.3561 48.5949 48.473 48.485 48.5784C48.375 48.6838 48.2691 48.7756 48.1735 48.8486C48.0779 48.9216 47.9943 48.9744 47.9275 49.0039C47.8608 49.0335 47.8121 49.0391 47.7844 49.0207C47.7567 49.0022 47.7505 48.9599 47.7661 48.8963C47.7816 48.8327 47.8187 48.7489 47.8752 48.6497C47.9317 48.5506 48.0064 48.4381 48.0952 48.3185C48.184 48.199 48.285 48.0748 48.3926 47.9531C48.6098 47.7072 48.8404 47.4863 49.0335 47.3388C49.2267 47.1913 49.3666 47.1294 49.4226 47.1667C49.4785 47.204 49.4459 47.3375 49.3318 47.5377C49.2178 47.7379 49.0317 47.9885 48.8145 48.2343Z" fill="#009B3A" stroke="black" stroke-width="0.0125"/>
<path d="M48.8848 48.5859C48.75 48.6938 48.6087 48.7974 48.4704 48.8898C48.332 48.9822 48.1997 49.0613 48.0822 49.1218C47.9646 49.1824 47.8645 49.2231 47.7884 49.2412C47.7123 49.2593 47.6619 49.2545 47.6407 49.2269C47.6194 49.1994 47.6277 49.1499 47.665 49.0815C47.7023 49.0132 47.7678 48.9277 47.8571 48.8306C47.9464 48.7334 48.0575 48.627 48.1832 48.5181C48.3088 48.4093 48.4461 48.3006 48.5859 48.1992C48.849 47.9982 49.118 47.8258 49.3337 47.7199C49.5495 47.614 49.6942 47.5833 49.7362 47.6346C49.7781 47.6859 49.7138 47.8149 49.5575 47.9933C49.4011 48.1717 49.1654 48.3849 48.9023 48.5859" fill="#009B3A"/>
<path d="M48.8848 48.5859C48.75 48.6938 48.6087 48.7974 48.4704 48.8898C48.332 48.9822 48.1997 49.0613 48.0822 49.1218C47.9646 49.1824 47.8645 49.2231 47.7884 49.2412C47.7123 49.2593 47.6619 49.2545 47.6407 49.2269C47.6194 49.1994 47.6277 49.1499 47.665 49.0815C47.7023 49.0132 47.7678 48.9277 47.8571 48.8306C47.9464 48.7334 48.0575 48.627 48.1832 48.5181C48.3088 48.4093 48.4461 48.3006 48.5859 48.1992C48.849 47.9982 49.118 47.8258 49.3337 47.7199C49.5495 47.614 49.6942 47.5833 49.7362 47.6346C49.7781 47.6859 49.7138 47.8149 49.5575 47.9933C49.4011 48.1717 49.1654 48.3849 48.9023 48.5859" stroke="black" stroke-width="0.0125"/>
<path d="M47.7773 49.0781L47.6543 48.6738C47.6367 48.5859 47.7773 48.498 47.707 48.2871C47.6477 48.1025 47.5226 47.9461 47.3555 47.8477C47.2676 47.7949 47.1797 47.9004 47.2676 48.1641C47.3379 48.4277 47.5313 48.5156 47.584 48.6387L47.7246 49.0957C47.8301 49.1484 48.0234 49.3418 48.1465 49.4473C48.2695 49.5352 48.4277 49.8867 48.6738 50.0273C48.8496 50.1504 49.0254 50.1328 48.9902 49.9746C48.9066 49.7991 48.7795 49.6478 48.6211 49.5352C48.4805 49.4297 48.2695 49.4824 48.1465 49.377C48.0586 49.3066 47.7773 49.0957 47.7949 49.0781" fill="#009B3A"/>
<path d="M47.7773 49.0781L47.6543 48.6738C47.6367 48.5859 47.7773 48.498 47.707 48.2871C47.6477 48.1025 47.5226 47.9461 47.3555 47.8477C47.2676 47.7949 47.1797 47.9004 47.2676 48.1641C47.3379 48.4277 47.5313 48.5156 47.584 48.6387L47.7246 49.0957C47.8301 49.1484 48.0234 49.3418 48.1465 49.4473C48.2695 49.5352 48.4277 49.8867 48.6738 50.0273C48.8496 50.1504 49.0254 50.1328 48.9902 49.9746C48.9066 49.7991 48.7795 49.6478 48.6211 49.5352C48.4805 49.4297 48.2695 49.4824 48.1465 49.377C48.0586 49.3066 47.7773 49.0957 47.7949 49.0781" stroke="black" stroke-width="0.0125"/>
<path d="M47.1094 50.2559C46.8097 50.2592 46.5241 50.2279 46.3139 50.1688C46.1038 50.1097 45.986 50.0274 45.986 49.9398C45.986 49.8522 46.1038 49.7662 46.3139 49.7004C46.5241 49.6345 46.8097 49.5941 47.1094 49.5879C47.409 49.5846 47.6947 49.6158 47.9048 49.675C48.115 49.7341 48.2327 49.8163 48.2327 49.9039C48.2327 49.9916 48.115 50.0776 47.9048 50.1434C47.6947 50.2092 47.409 50.2496 47.1094 50.2559Z" fill="#009B3A" stroke="black" stroke-width="0.0125"/>
<path d="M46.9512 49.2188C46.7524 49.475 46.5358 49.6985 46.349 49.8401C46.1623 49.9818 46.0207 50.0299 45.9554 49.9739C45.8902 49.918 45.9066 49.7626 46.001 49.5418C46.0954 49.3211 46.2602 49.0532 46.459 48.7969C46.6578 48.5407 46.8744 48.3172 47.0611 48.1756C47.2479 48.034 47.3894 47.9859 47.4547 48.0418C47.52 48.0978 47.5036 48.2532 47.4092 48.4739C47.3147 48.6946 47.15 48.9626 46.9512 49.2188Z" fill="#009B3A" stroke="black" stroke-width="0.0125"/>
<path d="M47.1094 49.7462C46.8618 49.8362 46.6293 49.8916 46.4516 49.9029C46.2739 49.9141 46.1619 49.8806 46.135 49.8079C46.108 49.7353 46.1676 49.6281 46.3037 49.5046C46.4397 49.3811 46.6437 49.249 46.8809 49.1309C47.1284 49.0409 47.3609 48.9855 47.5387 48.9742C47.7164 48.9629 47.8283 48.9965 47.8553 49.0691C47.8823 49.1418 47.8226 49.249 47.6866 49.3725C47.5505 49.496 47.3465 49.6281 47.1094 49.7462ZM47.4258 39.7266C47.5524 39.8448 47.6578 39.9613 47.7212 40.0533C47.7846 40.1453 47.8014 40.206 47.7683 40.2237C47.7353 40.2413 47.6548 40.2145 47.5426 40.1485C47.4304 40.0826 47.2947 39.9822 47.1621 39.8672C47.0883 39.8033 47.0178 39.7367 46.9551 39.6719C46.8923 39.607 46.8387 39.5452 46.7977 39.4905C46.7566 39.4358 46.729 39.3894 46.7166 39.3541C46.7042 39.3189 46.7073 39.2956 46.7257 39.2858C46.7441 39.276 46.7774 39.2799 46.8234 39.2972C46.8695 39.3145 46.9272 39.3448 46.9931 39.3863C47.059 39.4278 47.1315 39.4795 47.206 39.538C47.2805 39.5966 47.3553 39.6609 47.4258 39.7266ZM47.0742 40.0254C47.2685 40.051 47.4575 40.0912 47.5998 40.1372C47.7421 40.1833 47.826 40.2314 47.833 40.2711C47.84 40.3107 47.7695 40.3386 47.6371 40.3485C47.5047 40.3585 47.3212 40.3498 47.127 40.3243C46.9327 40.2988 46.7436 40.2586 46.6013 40.2125C46.459 40.1664 46.3752 40.1183 46.3682 40.0787C46.3612 40.039 46.4316 40.0112 46.5641 40.0012C46.6965 39.9912 46.88 39.9999 47.0742 40.0254Z" fill="#009B3A" stroke="black" stroke-width="0.0125"/>
<path d="M47.2148 39.8321C47.3948 39.9234 47.5599 40.0239 47.674 40.1115C47.788 40.1992 47.8416 40.2667 47.8229 40.2993C47.8043 40.332 47.7149 40.327 47.5745 40.2855C47.4341 40.2441 47.2541 40.1695 47.0742 40.0782C46.9851 40.033 46.8987 39.985 46.82 39.9371C46.7412 39.8892 46.6716 39.8421 46.6151 39.7988C46.5011 39.7111 46.4475 39.6436 46.4661 39.6109C46.4848 39.5783 46.5741 39.5833 46.7145 39.6247C46.855 39.6662 47.0349 39.7408 47.2148 39.8321ZM42.0293 49.1309C42.0293 49.1309 42.9961 49.3419 43.8398 49.6407C44.666 49.9395 45.9492 50.9942 46.3008 51.0469C46.6699 51.0645 47.1973 50.9415 47.4082 50.379C46.8105 50.5548 46.459 50.7833 45.8965 50.4669C45.7031 50.3965 45.0527 49.7989 44.3145 49.4825C43.6145 49.2097 42.8983 48.9807 42.1699 48.7969L42.0293 49.1309ZM43.0664 40.4122L44.1738 39.8145L42.9434 40.1309L42.8027 40.3419L43.0664 40.4122Z" fill="#009B3A" stroke="black" stroke-width="0.0125"/>
<path d="M44.1211 40.6758C43.6816 40.6055 43.0137 40.4473 42.5918 40.4121C42.8906 40.0957 43.2949 39.5508 43.541 39.2168C43.3652 39.5332 43.1191 39.9551 43.0137 40.2715C43.3125 40.4297 43.7871 40.5527 44.1211 40.6758Z" fill="#009B3A" stroke="black" stroke-width="0.0125"/>
<path d="M42.8555 40.4824L43.8398 39.709L42.6973 40.2363L42.5918 40.4648H42.8555" fill="#009B3A"/>
<path d="M42.8555 40.4824L43.8398 39.709L42.6973 40.2363L42.5918 40.4648H42.8555" stroke="black" stroke-width="0.0125"/>
<path d="M43.9102 40.6582C43.4707 40.5879 42.8203 40.4297 42.3984 40.3945C42.6797 40.0605 43.0664 39.5156 43.3125 39.1641C43.1367 39.4805 42.9082 39.9199 42.8027 40.2363C43.1016 40.4121 43.5762 40.5352 43.9102 40.6582Z" fill="#009B3A" stroke="black" stroke-width="0.0125"/>
<path d="M42.6973 40.5352L43.8574 40.0605L42.6094 40.2539L42.4336 40.4648L42.6973 40.5352Z" fill="#009B3A" stroke="black" stroke-width="0.0125"/>
<path d="M43.7695 40.6758C43.3477 40.6406 42.6621 40.5527 42.2402 40.5703C42.4863 40.2012 42.8027 39.5859 43.0137 39.2168C42.8906 39.5684 42.6973 40.0254 42.6445 40.3594C42.9609 40.5 43.4355 40.5879 43.7871 40.6758" fill="#009B3A"/>
<path d="M43.7695 40.6758C43.3477 40.6406 42.6621 40.5527 42.2402 40.5703C42.4863 40.2012 42.8027 39.5859 43.0137 39.2168C42.8906 39.5684 42.6973 40.0254 42.6445 40.3594C42.9609 40.5 43.4355 40.5879 43.7871 40.6758" stroke="black" stroke-width="0.0125"/>
<path d="M42.5742 40.5527L43.3652 39.5859L42.3633 40.3242L42.3281 40.5879L42.5742 40.5352" fill="#009B3A"/>
<path d="M42.5742 40.5527L43.3652 39.5859L42.3633 40.3242L42.3281 40.5879L42.5742 40.5352" stroke="black" stroke-width="0.0125"/>
<path d="M43.7695 40.7461C43.3125 40.7461 42.5742 40.6934 42.1348 40.7461C42.3633 40.3066 42.627 39.6211 42.8027 39.1992C42.7148 39.5859 42.5566 40.1133 42.5215 40.4824C42.873 40.6055 43.4004 40.6582 43.7695 40.7461Z" fill="#009B3A" stroke="black" stroke-width="0.0125"/>
<path d="M42.416 40.7813C42.7288 40.467 43.0452 40.1564 43.3652 39.8496L42.2227 40.5L42.1348 40.7637H42.416" fill="#009B3A"/>
<path d="M42.416 40.7813C42.7288 40.467 43.0452 40.1564 43.3652 39.8496L42.2227 40.5L42.1348 40.7637H42.416" stroke="black" stroke-width="0.0125"/>
<path d="M43.5586 40.7813C43.0664 40.7813 42.293 40.7461 41.8008 40.7988C42.1172 40.3242 42.5742 39.5684 42.8555 39.0938C42.6797 39.5156 42.3809 40.1133 42.2754 40.5C42.627 40.6406 43.1719 40.6758 43.5586 40.7637" fill="#009B3A"/>
<path d="M43.5586 40.7813C43.0664 40.7813 42.293 40.7461 41.8008 40.7988C42.1172 40.3242 42.5742 39.5684 42.8555 39.0938C42.6797 39.5156 42.3809 40.1133 42.2754 40.5C42.627 40.6406 43.1719 40.6758 43.5586 40.7637" stroke="black" stroke-width="0.0125"/>
<path d="M42.0996 40.834L43.3301 39.7969L41.9238 40.5352L41.8008 40.834H42.0996Z" fill="#009B3A" stroke="black" stroke-width="0.0125"/>
<path d="M43.3828 40.7988C42.8906 40.8691 42.1172 40.957 41.625 41.0801C41.9149 40.4883 42.1788 39.8843 42.416 39.2695C42.3105 39.709 42.1172 40.3242 42.0645 40.7285C42.4336 40.7988 42.9785 40.7813 43.3828 40.7988Z" fill="#009B3A" stroke="black" stroke-width="0.0125"/>
<path d="M41.9414 41.0449C42.248 40.6085 42.5586 40.1749 42.873 39.7441L41.6953 40.7988L41.6426 41.1328L41.9238 41.0449" fill="#009B3A"/>
<path d="M41.9414 41.0449C42.248 40.6085 42.5586 40.1749 42.873 39.7441L41.6953 40.7988L41.6426 41.1328L41.9238 41.0449" stroke="black" stroke-width="0.0125"/>
<path d="M43.1016 40.957C42.6094 41.0098 41.8359 41.0449 41.3438 41.1328C41.625 40.6582 42.0117 39.8672 42.2227 39.375C42.0996 39.8145 41.8711 40.4121 41.8008 40.8164C42.1523 40.9043 42.7148 40.9043 43.1016 40.957Z" fill="#009B3A" stroke="black" stroke-width="0.0125"/>
<path d="M41.7656 41.1855L42.9609 40.1309L41.6074 40.8691L41.4668 41.1855H41.7656Z" fill="#009B3A" stroke="black" stroke-width="0.0125"/>
<path d="M42.9609 41.0098C42.4512 41.1152 41.6777 41.2383 41.2031 41.3965C41.4316 40.8867 41.7305 40.0605 41.9062 39.5508C41.8184 40.0078 41.6602 40.6055 41.625 41.0273C41.9941 41.0801 42.5566 41.0098 42.9609 41.0098Z" fill="#009B3A" stroke="black" stroke-width="0.0125"/>
<path d="M41.5723 41.2383L42.3281 39.8145L41.291 41.0449V41.3613L41.5723 41.2383Z" fill="#009B3A" stroke="black" stroke-width="0.0125"/>
<path d="M42.9609 41.0977C42.4336 41.2207 41.5898 41.4141 41.0801 41.6074C41.2734 41.0273 41.502 40.0957 41.6426 39.5156C41.5898 40.0254 41.4668 40.7109 41.502 41.168C41.9063 41.2031 42.5215 41.1152 42.9609 41.0977Z" fill="#009B3A" stroke="black" stroke-width="0.0125"/>
<path d="M41.4141 41.5547L42.3809 40.1484L41.1504 41.291L41.0977 41.6426L41.4141 41.5547Z" fill="#009B3A" stroke="black" stroke-width="0.0125"/>
<path d="M42.75 41.2559C42.2227 41.4316 41.3965 41.6426 40.9043 41.8535C41.0801 41.2734 41.2559 40.3418 41.3613 39.7617C41.3262 40.2715 41.2559 40.957 41.291 41.3965C41.7129 41.4141 42.3105 41.291 42.75 41.2559Z" fill="#009B3A" stroke="black" stroke-width="0.0125"/>
<path d="M41.2207 41.7656L41.959 40.1836L40.9043 41.5547V41.9062L41.2207 41.7656Z" fill="#009B3A" stroke="black" stroke-width="0.0125"/>
<path d="M42.5391 41.4668C42.0117 41.5898 41.168 41.748 40.6406 41.9238C40.8691 41.3613 41.1328 40.4297 41.291 39.8672C41.2207 40.377 41.0801 41.0449 41.0801 41.502C41.502 41.5547 42.0996 41.4668 42.5391 41.4668Z" fill="#009B3A" stroke="black" stroke-width="0.0125"/>
<path d="M41.0449 41.9238L42.2402 40.6934L40.834 41.6074L40.7109 41.959L41.0625 41.9238" fill="#009B3A"/>
<path d="M41.0449 41.9238L42.2402 40.6934L40.834 41.6074L40.7109 41.959L41.0625 41.9238" stroke="black" stroke-width="0.0125"/>
<path d="M42.3105 41.6777C41.7832 41.748 40.9395 41.8184 40.4297 41.959C40.6758 41.3965 40.9922 40.5 41.1855 39.9375C41.0801 40.4297 40.9043 41.1152 40.8691 41.5723C41.2734 41.6602 41.8711 41.6426 42.3105 41.6777Z" fill="#009B3A" stroke="black" stroke-width="0.0125"/>
<path d="M40.8164 41.8008L41.625 40.2539L40.5176 41.5547V41.9062L40.8164 41.8008Z" fill="#009B3A" stroke="black" stroke-width="0.0125"/>
<path d="M42.3633 41.4844C41.7832 41.7305 40.8867 42.0645 40.3418 42.3633C40.5176 41.6602 40.6934 40.5703 40.8164 39.9023C40.7988 40.4824 40.7109 41.291 40.7637 41.8008C41.2383 41.8008 41.8887 41.5898 42.3809 41.502" fill="#009B3A"/>
<path d="M42.3633 41.4844C41.7832 41.7305 40.8867 42.0645 40.3418 42.3633C40.5176 41.6602 40.6934 40.5703 40.8164 39.9023C40.7988 40.4824 40.7109 41.291 40.7637 41.8008C41.2383 41.8008 41.8887 41.5898 42.3809 41.502" stroke="black" stroke-width="0.0125"/>
<path d="M40.6934 42.2578L41.6777 40.5L40.3945 41.9941L40.3594 42.416L40.7109 42.2578" fill="#009B3A"/>
<path d="M40.6934 42.2578L41.6777 40.5L40.3945 41.9941L40.3594 42.416L40.7109 42.2578" stroke="black" stroke-width="0.0125"/>
<path d="M42.1523 41.7129C41.5723 41.9766 40.6758 42.3633 40.1484 42.6797C40.2891 41.9766 40.4297 40.9043 40.5176 40.2188C40.5176 40.7988 40.4824 41.6074 40.5527 42.0996C41.0273 42.0645 41.6602 41.8359 42.1348 41.7129" fill="#009B3A"/>
<path d="M42.1523 41.7129C41.5723 41.9766 40.6758 42.3633 40.1484 42.6797C40.2891 41.9766 40.4297 40.9043 40.5176 40.2188C40.5176 40.7988 40.4824 41.6074 40.5527 42.0996C41.0273 42.0645 41.6602 41.8359 42.1348 41.7129" stroke="black" stroke-width="0.0125"/>
<path d="M40.5 42.5391L41.2031 40.6406L40.1484 42.3281L40.166 42.7324L40.5 42.5391Z" fill="#009B3A" stroke="black" stroke-width="0.0125"/>
<path d="M41.8887 41.8711C41.3262 42.1523 40.4297 42.5391 39.9023 42.8555C40.043 42.1523 40.1836 41.0801 40.2539 40.3945C40.2715 40.9746 40.2363 41.7656 40.3066 42.2754C40.7637 42.2227 41.4141 41.9941 41.8887 41.8711Z" fill="#009B3A" stroke="black" stroke-width="0.0125"/>
<path d="M40.3418 42.7676L41.4316 41.0801L40.043 42.4512L39.9902 42.873L40.3418 42.7676Z" fill="#009B3A" stroke="black" stroke-width="0.0125"/>
<path d="M41.8359 41.7832C41.3437 42.1875 40.5352 42.7852 40.0781 43.2422C40.0781 42.5391 39.9727 41.4492 39.9199 40.7812C40.0605 41.3438 40.1836 42.1172 40.3594 42.5742C40.7988 42.416 41.3965 42.0293 41.8535 41.7832" fill="#009B3A"/>
<path d="M41.8359 41.7832C41.3437 42.1875 40.5352 42.7852 40.0781 43.2422C40.0781 42.5391 39.9727 41.4492 39.9199 40.7812C40.0605 41.3438 40.1836 42.1172 40.3594 42.5742C40.7988 42.416 41.3965 42.0293 41.8535 41.7832" stroke="black" stroke-width="0.0125"/>
<path d="M40.3945 42.8379L40.5176 40.834L39.9902 42.7676L40.1309 43.1543L40.3945 42.8379Z" fill="#009B3A" stroke="black" stroke-width="0.0125"/>
<path d="M41.6953 41.9766C41.1855 42.3809 40.377 42.9609 39.9375 43.4004C39.9375 42.6973 39.832 41.6426 39.7793 40.957C39.9023 41.5195 40.0254 42.293 40.2012 42.75C40.6582 42.5918 41.2559 42.2051 41.6953 41.9766Z" fill="#009B3A" stroke="black" stroke-width="0.0125"/>
<path d="M40.2539 43.1719C40.4238 42.5199 40.5996 41.8695 40.7812 41.2207L39.9023 43.0137L39.9551 43.418L40.2715 43.1719" fill="#009B3A"/>
<path d="M40.2539 43.1719C40.4238 42.5199 40.5996 41.8695 40.7812 41.2207L39.9023 43.0137L39.9551 43.418L40.2715 43.1719" stroke="black" stroke-width="0.0125"/>
<path d="M41.6426 42.0117C41.168 42.4863 40.3945 43.1895 39.9727 43.6992C39.8848 42.9961 39.6738 41.8887 39.5508 41.2207C39.7266 41.7656 39.9551 42.5391 40.1836 42.9961C40.6406 42.7852 41.2031 42.3105 41.6426 42.0117Z" fill="#009B3A" stroke="black" stroke-width="0.0125"/>
<path d="M40.2539 43.418L40.3594 41.3438L39.8496 43.3652L40.0078 43.752L40.2715 43.4355" fill="#009B3A"/>
<path d="M40.2539 43.418L40.3594 41.3438L39.8496 43.3652L40.0078 43.752L40.2715 43.4355" stroke="black" stroke-width="0.0125"/>
<path d="M41.4844 42.3633C40.9746 42.7852 40.166 43.418 39.6914 43.8926C39.6914 43.1543 39.5508 42.0469 39.4805 41.3438C39.6387 41.9238 39.7793 42.7148 39.9727 43.1895C40.4297 43.0137 41.0273 42.6094 41.4844 42.3633Z" fill="#009B3A" stroke="black" stroke-width="0.0125"/>
<path d="M40.1133 43.6641L40.834 41.6953L39.7441 43.4531L39.7793 43.875L40.1133 43.6641Z" fill="#009B3A" stroke="black" stroke-width="0.0125"/>
<path d="M41.4844 42.3633C41.0273 42.8555 40.3066 43.5762 39.9023 44.0859C39.832 43.3652 39.6211 42.2578 39.498 41.5723C39.6738 42.1172 39.8848 42.9082 40.1133 43.3652C40.5352 43.1543 41.0625 42.6621 41.4844 42.3633Z" fill="#009B3A" stroke="black" stroke-width="0.0125"/>
<path d="M40.1484 43.7695L40.0605 41.6953L39.709 43.752L39.9199 44.1035L40.1484 43.752" fill="#009B3A"/>
<path d="M40.1484 43.7695L40.0605 41.6953L39.709 43.752L39.9199 44.1035L40.1484 43.752" stroke="black" stroke-width="0.0125"/>
<path d="M41.2559 42.5391C40.8164 43.0137 40.1133 43.7344 39.7266 44.2617C39.6387 43.5234 39.3926 42.416 39.252 41.7305C39.4453 42.293 39.6738 43.084 39.9199 43.541C40.3242 43.3125 40.8516 42.8379 41.2559 42.5215" fill="#009B3A"/>
<path d="M41.2559 42.5391C40.8164 43.0137 40.1133 43.7344 39.7266 44.2617C39.6387 43.5234 39.3926 42.416 39.252 41.7305C39.4453 42.293 39.6738 43.084 39.9199 43.541C40.3242 43.3125 40.8516 42.8379 41.2559 42.5215" stroke="black" stroke-width="0.0125"/>
<path d="M40.0254 43.9805L40.2539 41.8711L39.6387 43.8574L39.7617 44.2617L40.0254 43.9805Z" fill="#009B3A" stroke="black" stroke-width="0.0125"/>
<path d="M41.168 42.6094C40.7637 43.1367 40.1133 43.9277 39.7617 44.4727C39.6211 43.7695 39.3047 42.6797 39.1113 42.0117C39.3398 42.5391 39.6387 43.3125 39.9023 43.752C40.2891 43.4883 40.7812 42.9434 41.168 42.6094Z" fill="#009B3A" stroke="black" stroke-width="0.0125"/>
<path d="M40.0078 44.1738L39.8848 42.0645L39.6211 44.1562L39.7969 44.5078L40.0078 44.1562" fill="#009B3A"/>
<path d="M40.0078 44.1738L39.8848 42.0645L39.6211 44.1562L39.7969 44.5078L40.0078 44.1562" stroke="black" stroke-width="0.0125"/>
<path d="M41.1328 42.7148C40.7461 43.2773 40.1309 44.1211 39.8145 44.6836C39.6387 43.9805 39.252 42.9082 39.0234 42.2402C39.2871 42.7676 39.6211 43.5234 39.9023 43.9453C40.2891 43.6641 40.7461 43.1016 41.1328 42.7148Z" fill="#009B3A" stroke="black" stroke-width="0.0125"/>
<path d="M40.1484 44.3672L40.3594 42.2578L39.7617 44.2441L39.8848 44.666L40.1484 44.3672Z" fill="#009B3A" stroke="black" stroke-width="0.0125"/>
<path d="M41.0449 42.9258C40.7109 43.5234 40.1836 44.4375 39.9199 45.0527C39.6738 44.3672 39.2168 43.3652 38.918 42.7324C39.2344 43.2246 39.6211 43.9277 39.9551 44.3145C40.3066 43.9629 40.7109 43.3477 41.0449 42.9082" fill="#009B3A"/>
<path d="M41.0449 42.9258C40.7109 43.5234 40.1836 44.4375 39.9199 45.0527C39.6738 44.3672 39.2168 43.3652 38.918 42.7324C39.2344 43.2246 39.6211 43.9277 39.9551 44.3145C40.3066 43.9629 40.7109 43.3477 41.0449 42.9082" stroke="black" stroke-width="0.0125"/>
<path d="M40.0781 44.543L39.4805 42.5391L39.6738 44.6484L39.9551 44.9473L40.0781 44.543Z" fill="#009B3A" stroke="black" stroke-width="0.0125"/>
<path d="M41.0273 43.1543C40.6758 43.752 40.1484 44.666 39.8672 45.2813C39.6035 44.5957 39.1465 43.5938 38.8477 42.9609C39.1641 43.4531 39.5508 44.1562 39.9023 44.543C40.2539 44.1914 40.6934 43.5762 41.0273 43.1543Z" fill="#009B3A" stroke="black" stroke-width="0.0125"/>
<path d="M40.0957 44.9297L39.8848 42.8203L39.6914 44.9297L39.9023 45.2812L40.0957 44.9297Z" fill="#009B3A" stroke="black" stroke-width="0.0125"/>
<path d="M41.0625 43.3477C40.7109 43.9453 40.1484 44.8242 39.8672 45.4395C39.6211 44.7539 39.1641 43.7344 38.8828 43.1016C39.1992 43.5938 39.5859 44.2969 39.9023 44.6836C40.2891 44.3672 40.7109 43.752 41.0625 43.3477Z" fill="#009B3A" stroke="black" stroke-width="0.0125"/>
<path d="M40.0781 45.0879L39.6914 43.0137L39.6738 45.1406L39.9023 45.4746L40.0781 45.0879Z" fill="#009B3A" stroke="black" stroke-width="0.0125"/>
<path d="M40.9219 43.6465C40.5352 44.209 39.9375 45.0527 39.6211 45.6504C39.4102 44.9473 39.0059 43.8926 38.7422 43.2598C39.041 43.7695 39.3926 44.4902 39.6914 44.9121C40.0781 44.5957 40.5527 44.0332 40.9219 43.6465Z" fill="#009B3A" stroke="black" stroke-width="0.0125"/>
<path d="M39.9023 45.3164L40.0781 43.207L39.498 45.2109L39.6387 45.6152L39.9023 45.3164Z" fill="#009B3A" stroke="black" stroke-width="0.0125"/>
<path d="M40.9395 43.6992C40.623 44.3145 40.0957 45.2461 39.832 45.8613C39.5684 45.1934 39.0586 44.209 38.7422 43.5938C39.0938 44.0684 39.498 44.7539 39.8496 45.1055C40.2012 44.7539 40.6055 44.1211 40.9395 43.6992Z" fill="#009B3A" stroke="black" stroke-width="0.0125"/>
<path d="M39.832 45.4922L39.1816 43.5234L39.4277 45.6328L39.709 45.9141L39.832 45.4922Z" fill="#009B3A" stroke="black" stroke-width="0.0125"/>
<path d="M40.8516 43.8574C40.623 44.5254 40.2539 45.5625 40.0781 46.2305C39.7266 45.6328 39.0762 44.7715 38.6719 44.2441C39.0762 44.6309 39.5859 45.2109 39.9902 45.4746C40.2891 45.0703 40.5879 44.3496 40.8516 43.8574Z" fill="#009B3A" stroke="black" stroke-width="0.0125"/>
<path d="M40.4121 45.668L39.709 43.7168L40.0078 45.8086L40.2891 46.0723L40.4121 45.6504" fill="#009B3A"/>
<path d="M40.4121 45.668L39.709 43.7168L40.0078 45.8086L40.2891 46.0723L40.4121 45.6504" stroke="black" stroke-width="0.0125"/>
<path d="M40.8516 44.0684C40.623 44.7363 40.2539 45.7734 40.0957 46.4414C39.7441 45.8438 39.0762 45 38.6895 44.4727C39.0762 44.8594 39.5859 45.4219 39.9902 45.7031C40.2891 45.2813 40.5879 44.5605 40.8516 44.0684Z" fill="#009B3A" stroke="black" stroke-width="0.0125"/>
<path d="M40.4121 45.9844L39.498 44.1738L40.0254 46.1953L40.3418 46.4238L40.4121 45.9844Z" fill="#009B3A" stroke="black" stroke-width="0.0125"/>
<path d="M40.7812 44.2266C40.6406 44.9297 40.3945 46.002 40.3066 46.6875C39.8672 46.1602 39.1289 45.4043 38.6719 44.9297C39.1113 45.2812 39.6914 45.7559 40.1133 45.9844C40.3594 45.5098 40.5703 44.7539 40.7812 44.2266Z" fill="#009B3A" stroke="black" stroke-width="0.0125"/>
<path d="M40.4648 46.2832L39.9902 44.2266L40.0605 46.3535L40.3242 46.6699L40.4648 46.2832Z" fill="#009B3A" stroke="black" stroke-width="0.0125"/>
<path d="M40.7812 44.4551C40.7109 45.1582 40.5527 46.2656 40.5527 46.9688C40.0605 46.4941 39.252 45.8438 38.7598 45.4395C39.2344 45.7031 39.8496 46.125 40.2891 46.2832C40.4824 45.791 40.6406 45 40.7812 44.4551Z" fill="#009B3A" stroke="black" stroke-width="0.0125"/>
<path d="M40.5 46.4238L39.1992 44.9473L40.1836 46.7402L40.5352 46.8633L40.5 46.4238Z" fill="#009B3A" stroke="black" stroke-width="0.0125"/>
<path d="M40.8164 44.7012C40.7285 45.4043 40.5703 46.5117 40.5703 47.2148C40.0781 46.7402 39.2695 46.0898 38.7773 45.6855C39.252 45.9492 39.8672 46.3711 40.3066 46.5293C40.5176 46.0371 40.6582 45.2637 40.8164 44.7012Z" fill="#009B3A" stroke="black" stroke-width="0.0125"/>
<path d="M40.6406 46.7578C40.301 46.1751 39.967 45.5891 39.6387 45L40.2715 46.9863L40.6055 47.1973L40.6406 46.7754" fill="#009B3A"/>
<path d="M40.6406 46.7578C40.301 46.1751 39.967 45.5891 39.6387 45L40.2715 46.9863L40.6055 47.1973L40.6406 46.7754" stroke="black" stroke-width="0.0125"/>
<path d="M40.8691 45C40.8164 45.7031 40.7109 46.8281 40.7285 47.5312C40.2188 47.0742 39.3926 46.4766 38.8828 46.1074C39.3574 46.3359 39.9902 46.7227 40.4473 46.8457C40.623 46.3359 40.7285 45.5625 40.8691 45Z" fill="#009B3A" stroke="black" stroke-width="0.0125"/>
<path d="M40.7812 47.1094C40.7461 47.1094 39.5508 45.5273 39.5508 45.5273L40.4297 47.3906L40.7812 47.5312V47.1094Z" fill="#009B3A" stroke="black" stroke-width="0.0125"/>
<path d="M40.8867 45.334C40.834 46.0371 40.7461 47.1621 40.7637 47.8652C40.1673 47.3646 39.5454 46.8952 38.9004 46.459C39.375 46.6875 40.0254 47.0566 40.4824 47.1797C40.6582 46.6699 40.7461 45.8965 40.8867 45.334Z" fill="#009B3A" stroke="black" stroke-width="0.0125"/>
<path d="M40.8867 47.3555L40.0078 45.4922L40.5 47.5313L40.7988 47.7949L40.8867 47.3555Z" fill="#009B3A" stroke="black" stroke-width="0.0125"/>
<path d="M40.9219 45.5273C40.9219 46.2656 40.9395 47.3906 41.0273 48.0762C40.5 47.7246 39.6035 47.2148 39.0586 46.916C39.5508 47.0918 40.2187 47.3906 40.6758 47.4434C40.7988 46.916 40.8516 46.125 40.9043 45.5449" fill="#009B3A"/>
<path d="M40.9219 45.5273C40.9219 46.2656 40.9395 47.3906 41.0273 48.0762C40.5 47.7246 39.6035 47.2148 39.0586 46.916C39.5508 47.0918 40.2187 47.3906 40.6758 47.4434C40.7988 46.916 40.8516 46.125 40.9043 45.5449" stroke="black" stroke-width="0.0125"/>
<path d="M41.0273 47.2852L39.4453 46.2129L40.7813 47.6719L41.1504 47.707L41.0273 47.2852Z" fill="#009B3A" stroke="black" stroke-width="0.0125"/>
<path d="M40.957 45.6152C41.0273 46.3359 41.0801 47.4609 41.2031 48.1465C40.5479 47.755 39.8732 47.3971 39.1816 47.0742C39.6738 47.2148 40.3594 47.4785 40.8164 47.5312C40.9219 47.0039 40.9219 46.1953 40.957 45.6152Z" fill="#009B3A" stroke="black" stroke-width="0.0125"/>
<path d="M41.2031 47.6894L39.8848 46.1777L40.8867 47.9883L41.2383 48.1289L41.2031 47.6894Z" fill="#009B3A" stroke="black" stroke-width="0.0125"/>
<path d="M41.0801 45.8789C41.168 46.6172 41.2734 47.7246 41.4316 48.4102C40.8516 48.0937 39.9375 47.707 39.3574 47.4434C39.8848 47.5664 40.5527 47.7949 41.0273 47.8125C41.0977 47.2852 41.0625 46.4766 41.0801 45.8789Z" fill="#009B3A" stroke="black" stroke-width="0.0125"/>
<path d="M41.4492 47.9355L39.9023 46.8457L41.2207 48.3398H41.5723L41.4492 47.9355Z" fill="#009B3A" stroke="black" stroke-width="0.0125"/>
<path d="M41.1328 46.1953C41.2734 46.8984 41.4492 48.0059 41.6426 48.6914C41.0449 48.4102 40.1133 48.1113 39.5332 47.918C40.043 47.9883 40.7461 48.1465 41.2031 48.1289C41.2383 47.584 41.1504 46.793 41.1328 46.1953Z" fill="#009B3A" stroke="black" stroke-width="0.0125"/>
<path d="M41.625 48.1641L40.3418 46.6348L41.3086 48.4629L41.6602 48.6035L41.625 48.1641Z" fill="#009B3A" stroke="black" stroke-width="0.0125"/>
<path d="M41.2031 46.4063C41.4141 47.0918 41.6953 48.1641 41.959 48.8145C41.3438 48.6387 40.377 48.4453 39.7969 48.3223C40.3066 48.3223 41.0098 48.3926 41.4668 48.3223C41.4668 47.7598 41.291 46.9863 41.2031 46.3887" fill="#009B3A"/>
<path d="M41.2031 46.4063C41.4141 47.0918 41.6953 48.1641 41.959 48.8145C41.3438 48.6387 40.377 48.4453 39.7969 48.3223C40.3066 48.3223 41.0098 48.3926 41.4668 48.3223C41.4668 47.7598 41.291 46.9863 41.2031 46.3887" stroke="black" stroke-width="0.0125"/>
<path d="M41.6953 48.1641L39.9023 47.7773L41.6074 48.6211L41.959 48.498L41.6953 48.1641Z" fill="#009B3A" stroke="black" stroke-width="0.0125"/>
<path d="M41.3262 46.6172C41.5371 47.3027 41.8184 48.375 42.0645 49.0254C41.4492 48.8496 40.4824 48.6562 39.9023 48.5332C40.4121 48.5332 41.1328 48.6035 41.5723 48.5332C41.5723 47.9707 41.3965 47.1973 41.3262 46.5996" fill="#009B3A"/>
<path d="M41.3262 46.6172C41.5371 47.3027 41.8184 48.375 42.0645 49.0254C41.4492 48.8496 40.4824 48.6562 39.9023 48.5332C40.4121 48.5332 41.1328 48.6035 41.5723 48.5332C41.5723 47.9707 41.3965 47.1973 41.3262 46.5996" stroke="black" stroke-width="0.0125"/>
<path d="M41.9941 48.3398C41.9941 48.375 40.2715 47.5137 40.2715 47.5137L41.8184 48.7793L42.1699 48.7441L41.9941 48.3574" fill="#009B3A"/>
<path d="M41.9941 48.3398C41.9941 48.375 40.2715 47.5137 40.2715 47.5137L41.8184 48.7793L42.1699 48.7441L41.9941 48.3574" stroke="black" stroke-width="0.0125"/>
<path d="M41.2383 46.7402C41.5898 47.3555 42.082 48.3574 42.4688 48.9375C41.8359 48.8848 40.8516 48.9199 40.2539 48.9375C40.7461 48.8145 41.4492 48.7266 41.8711 48.5508C41.7656 48.0234 41.4316 47.2852 41.2383 46.7402Z" fill="#009B3A" stroke="black" stroke-width="0.0125"/>
<path d="M42.2578 48.5332L40.4648 48.041L42.1523 48.9902L42.5039 48.8848L42.2578 48.5332Z" fill="#009B3A" stroke="black" stroke-width="0.0125"/>
<path d="M41.4316 47.0039C41.7832 47.6191 42.2754 48.6211 42.6621 49.1836C42.0293 49.1484 41.0449 49.1836 40.4473 49.2188C40.957 49.0957 41.6602 48.9902 42.082 48.8145C41.9414 48.2871 41.625 47.5488 41.4141 47.0039" fill="#009B3A"/>
<path d="M41.4316 47.0039C41.7832 47.6191 42.2754 48.6211 42.6621 49.1836C42.0293 49.1484 41.0449 49.1836 40.4473 49.2188C40.957 49.0957 41.6602 48.9902 42.082 48.8145C41.9414 48.2871 41.625 47.5488 41.4141 47.0039" stroke="black" stroke-width="0.0125"/>
<path d="M42.4863 48.6914L40.8164 47.6895L42.2754 49.0957H42.6621L42.4863 48.6914Z" fill="#009B3A" stroke="black" stroke-width="0.0125"/>
<path d="M41.5547 47.1621C41.959 47.7422 42.5566 48.6738 42.9961 49.2012C42.3633 49.2363 41.4141 49.4121 40.8164 49.5176C41.3086 49.3418 41.9766 49.1309 42.3809 48.8848C42.2051 48.3574 41.8008 47.6895 41.5547 47.1621Z" fill="#009B3A" stroke="black" stroke-width="0.0125"/>
<path d="M42.6094 48.832L40.8164 48.7969L42.5918 49.3242L42.9082 49.1309L42.6094 48.832ZM43.6641 40.1133L44.9473 39.8848L43.6641 39.9199L43.4355 40.043L43.6641 40.1133Z" fill="#009B3A" stroke="black" stroke-width="0.0125"/>
<path d="M44.3672 40.377C43.998 40.2715 43.418 40.0781 43.0312 39.9902C43.5093 39.8006 43.9785 39.5895 44.4375 39.3574C44.1387 39.5332 43.7344 39.7793 43.5059 39.9551C43.7168 40.0957 44.1035 40.2539 44.3848 40.377" fill="#009B3A"/>
<path d="M44.3672 40.377C43.998 40.2715 43.418 40.0781 43.0312 39.9902C43.5093 39.8006 43.9785 39.5895 44.4375 39.3574C44.1387 39.5332 43.7344 39.7793 43.5059 39.9551C43.7168 40.0957 44.1035 40.2539 44.3848 40.377" stroke="black" stroke-width="0.0125"/>
<path d="M43.5938 40.1484L44.8594 39.7969L43.5586 39.9727L43.3652 40.1133L43.5938 40.1484Z" fill="#009B3A" stroke="black" stroke-width="0.0125"/>
<path d="M44.4375 40.4824C43.998 40.4297 43.3125 40.3418 42.8906 40.3418C43.207 40.0605 43.6641 39.5684 43.9453 39.2871C43.7695 39.5508 43.4531 39.9199 43.3301 40.1836C43.6289 40.3066 44.1035 40.377 44.4375 40.4824Z" fill="#009B3A" stroke="black" stroke-width="0.0125"/>
<path d="M43.1367 40.2539L44.4375 40.0781L43.1719 40.0605L42.9258 40.166L43.1367 40.2363" fill="#009B3A"/>
<path d="M43.1367 40.2539L44.4375 40.0781L43.1719 40.0605L42.9258 40.166L43.1367 40.2363" stroke="black" stroke-width="0.0125"/>
<path d="M44.1035 40.5176C43.6992 40.4473 43.1016 40.3066 42.6973 40.2715C43.0664 40.0957 43.6289 39.7441 43.9805 39.5684C43.7168 39.7441 43.3477 40.0078 43.1543 40.1836C43.4004 40.3066 43.8047 40.4121 44.1035 40.5352" fill="#009B3A"/>
<path d="M44.1035 40.5176C43.6992 40.4473 43.1016 40.3066 42.6973 40.2715C43.0664 40.0957 43.6289 39.7441 43.9805 39.5684C43.7168 39.7441 43.3477 40.0078 43.1543 40.1836C43.4004 40.3066 43.8047 40.4121 44.1035 40.5352" stroke="black" stroke-width="0.0125"/>
<path d="M43.0312 40.2188L44.1738 39.7266L42.9082 40.0781L42.7676 40.2188H43.0312Z" fill="#009B3A" stroke="black" stroke-width="0.0125"/>
<path d="M44.0684 40.6758C43.7168 40.5352 43.2246 40.3066 42.8906 40.2012C43.1543 39.9727 43.5059 39.5508 43.7344 39.3047C43.5586 39.5508 43.3301 39.8848 43.2422 40.1309C43.4531 40.3066 43.8047 40.5 44.0684 40.6582" fill="#009B3A"/>
<path d="M44.0684 40.6758C43.7168 40.5352 43.2246 40.3066 42.8906 40.2012C43.1543 39.9727 43.5059 39.5508 43.7344 39.3047C43.5586 39.5508 43.3301 39.8848 43.2422 40.1309C43.4531 40.3066 43.8047 40.5 44.0684 40.6582" stroke="black" stroke-width="0.0125"/>
<path d="M43.084 40.3066L43.9805 39.9199L43.0137 40.0605L42.8906 40.2363L43.084 40.3066ZM42.3633 48.6914H40.5L42.3809 49.166L42.6973 48.9551L42.3457 48.6914" fill="#009B3A"/>
<path d="M42.3633 48.6914H40.5L42.3809 49.166L42.6973 48.9551L42.3457 48.6914M43.084 40.3066L43.9805 39.9199L43.0137 40.0605L42.8906 40.2363L43.084 40.3066Z" stroke="black" stroke-width="0.0125"/>
<path d="M42.6797 48.7969L40.7812 48.3398L42.5918 49.2188L42.9434 49.1133L42.6621 48.7617" fill="#009B3A"/>
<path d="M42.6797 48.7969L40.7812 48.3398L42.5918 49.2188L42.9434 49.1133L42.6621 48.7617" stroke="black" stroke-width="0.0125"/>
<path d="M42.9785 48.9199L41.1152 48.8145L42.9785 49.3945L43.2949 49.2187L42.9785 48.9199Z" fill="#009B3A" stroke="black" stroke-width="0.0125"/>
<path d="M41.8008 47.6016C42.2754 48.1289 43.0137 48.9902 43.5234 49.4648C42.8906 49.5527 41.9414 49.8164 41.3789 49.957C41.8359 49.7461 42.4863 49.4824 42.8555 49.2188C42.6094 48.7266 42.1172 48.0938 41.8008 47.6016Z" fill="#009B3A" stroke="black" stroke-width="0.0125"/>
<path d="M43.2422 49.0078L41.3789 48.3926L43.1367 49.4473L43.4883 49.3594L43.2422 49.0078Z" fill="#009B3A" stroke="black" stroke-width="0.0125"/>
<path d="M41.9766 47.7246C42.5039 48.1992 43.2949 48.9727 43.8398 49.3945C43.2422 49.5703 42.3457 49.9395 41.8008 50.168C42.2227 49.8867 42.8555 49.5527 43.1719 49.2363C42.8906 48.7617 42.3281 48.1816 41.9766 47.7246Z" fill="#009B3A" stroke="black" stroke-width="0.0125"/>
<path d="M43.3828 49.1309L41.625 49.4824L43.4883 49.6055L43.752 49.3418L43.4004 49.1309" fill="#009B3A"/>
<path d="M43.3828 49.1309L41.625 49.4824L43.4883 49.6055L43.752 49.3418L43.4004 49.1309" stroke="black" stroke-width="0.0125"/>
<path d="M43.0312 49.0078L41.1855 49.1484L43.084 49.4824L43.3828 49.2539L43.0312 49.0078Z" fill="#009B3A" stroke="black" stroke-width="0.0125"/>
<path d="M43.3652 49.1133L41.4492 48.8145L43.3301 49.5703L43.6816 49.4297L43.3652 49.1133Z" fill="#009B3A" stroke="black" stroke-width="0.0125"/>
<path d="M43.6816 49.2188L41.8184 49.2539L43.7168 49.6758L44.0156 49.4824L43.6816 49.2188Z" fill="#009B3A" stroke="black" stroke-width="0.0125"/>
<path d="M42.3984 47.9883C42.9258 48.4805 43.7168 49.2891 44.2617 49.7109C43.6289 49.8516 42.7148 50.168 42.1523 50.3613C42.5918 50.1152 43.2246 49.834 43.5762 49.5352C43.2949 49.043 42.75 48.4453 42.3984 47.9883Z" fill="#009B3A" stroke="black" stroke-width="0.0125"/>
<path d="M43.9453 49.2891L42.0469 48.8145L43.875 49.7285L44.2266 49.623L43.9453 49.2891Z" fill="#009B3A" stroke="black" stroke-width="0.0125"/>
<path d="M42.5742 48.0938C43.1543 48.5332 43.998 49.2539 44.5781 49.623C43.905 49.9031 43.2424 50.208 42.5918 50.5371C42.9961 50.2383 43.5938 49.8516 43.8926 49.5176C43.5762 49.0605 42.9785 48.5332 42.5742 48.0938Z" fill="#009B3A" stroke="black" stroke-width="0.0125"/>
<path d="M44.1211 49.3945L42.3633 49.8691H44.2441L44.4727 49.5879L44.1211 49.3945Z" fill="#009B3A" stroke="black" stroke-width="0.0125"/>
<path d="M46.5117 46.7754L45.0879 45.791L43.6816 46.7754L44.209 45.1934L42.9609 44.2266H44.543L45.0879 42.6445L45.6152 44.2266H47.2148L45.9844 45.2109L46.5117 46.793V46.7754Z" fill="#FEDF00" stroke="black" stroke-width="0.0625"/>
</g>
<defs>
<clipPath id="clip0_14_1745">
<rect width="90" height="90" rx="45" fill="white"/>
</clipPath>
</defs>
</svg>
