<svg width="90" height="90" viewBox="0 0 90 90" fill="none" xmlns="http://www.w3.org/2000/svg">
<g clip-path="url(#clip0_14_984)">
<path d="M0 0H90V90H0V0Z" fill="white"/>
<path d="M49.9219 10.002H90V20.0039H49.9219V10.002ZM49.9219 30.0059H90V40.0078H49.9219V30.0059ZM0 49.9922H90V60.0117H0V49.9922ZM0 69.9961H90V80.0156H0V69.9961Z" fill="#0038A8"/>
<path d="M23.8961 29.8911L25.5461 32.3661C18.7261 37.3161 22.8511 40.1761 18.0661 41.7161C21.0361 38.8561 17.5711 38.5811 20.1011 32.4761" fill="#FCD116"/>
<path d="M23.8961 29.8911L25.5461 32.3661C18.7261 37.3161 22.8511 40.1761 18.0661 41.7161C21.0361 38.8561 17.5711 38.5811 20.1011 32.4761" stroke="black" stroke-width="0.234667" stroke-miterlimit="20" stroke-linecap="square"/>
<path d="M22.6861 30.6061C18.9461 36.7661 21.3661 40.1761 18.0661 41.7711" stroke="black" stroke-width="0.234667" stroke-miterlimit="20"/>
<path d="M24.9961 24.9961H28.2961L24.9961 43.1461L21.6961 24.9961H24.9961V43.1461V24.9961Z" fill="#FCD116"/>
<path d="M24.9961 24.9961H28.2961L24.9961 43.1461M24.9961 24.9961H21.6961L24.9961 43.1461M24.9961 24.9961V43.1461" stroke="black" stroke-width="0.234667" stroke-miterlimit="20"/>
<path d="M20.757 27.6796L20.1737 30.5964C11.851 29.2741 12.7455 34.2132 8.27304 31.9187C12.3955 31.9965 10.1398 29.3519 16.2457 26.824" fill="#FCD116"/>
<path d="M20.757 27.6796L20.1737 30.5964C11.851 29.2741 12.7455 34.2132 8.27304 31.9187C12.3955 31.9965 10.1398 29.3519 16.2457 26.824" stroke="black" stroke-width="0.234667" stroke-miterlimit="20" stroke-linecap="square"/>
<path d="M19.3958 27.3295C12.3955 29.0407 11.6954 33.1632 8.23415 31.9575" stroke="black" stroke-width="0.234667" stroke-miterlimit="20"/>
<path d="M24.9961 24.9961L27.3296 27.3295L12.1621 37.83L22.6627 22.6626L24.9961 24.9961L12.1621 37.83L24.9961 24.9961Z" fill="#FCD116"/>
<path d="M24.9961 24.9961L27.3296 27.3295L12.1621 37.83M24.9961 24.9961L22.6627 22.6626L12.1621 37.83M24.9961 24.9961L12.1621 37.83" stroke="black" stroke-width="0.234667" stroke-miterlimit="20"/>
<path d="M20.1011 23.8961L17.6261 25.5461C12.6761 18.7261 9.81613 22.8511 8.27613 18.0661C11.1361 21.0361 11.4111 17.5711 17.5161 20.1011" fill="#FCD116"/>
<path d="M20.1011 23.8961L17.6261 25.5461C12.6761 18.7261 9.81613 22.8511 8.27613 18.0661C11.1361 21.0361 11.4111 17.5711 17.5161 20.1011" stroke="black" stroke-width="0.234667" stroke-miterlimit="20" stroke-linecap="square"/>
<path d="M19.3861 22.6861C13.2261 18.9461 9.81611 21.3661 8.2211 18.0661" stroke="black" stroke-width="0.234667" stroke-miterlimit="20"/>
<path d="M24.9961 24.9961V28.2961L6.84612 24.9961L24.9961 21.6961V24.9961H6.84612H24.9961Z" fill="#FCD116"/>
<path d="M24.9961 24.9961V28.2961L6.84612 24.9961M24.9961 24.9961V21.6961L6.84612 24.9961M24.9961 24.9961H6.84612" stroke="black" stroke-width="0.234667" stroke-miterlimit="20"/>
<path d="M22.3126 20.757L19.3958 20.1736C20.7181 11.8509 15.779 12.7454 18.0735 8.27298C17.9957 12.3954 20.6403 10.1397 23.1682 16.2456" fill="#FCD116"/>
<path d="M22.3126 20.757L19.3958 20.1736C20.7181 11.8509 15.779 12.7454 18.0735 8.27298C17.9957 12.3954 20.6403 10.1397 23.1682 16.2456" stroke="black" stroke-width="0.234667" stroke-miterlimit="20" stroke-linecap="square"/>
<path d="M22.6627 19.3958C20.9515 12.3954 16.829 11.6954 18.0347 8.23412" stroke="black" stroke-width="0.234667" stroke-miterlimit="20"/>
<path d="M24.9961 24.9961L22.6627 27.3295L12.1621 12.1621L27.3296 22.6626L24.9961 24.9961L12.1621 12.1621L24.9961 24.9961Z" fill="#FCD116"/>
<path d="M24.9961 24.9961L22.6627 27.3295L12.1621 12.1621M24.9961 24.9961L27.3296 22.6626L12.1621 12.1621M24.9961 24.9961L12.1621 12.1621" stroke="black" stroke-width="0.234667" stroke-miterlimit="20"/>
<path d="M26.0961 20.1011L24.4461 17.6261C31.2661 12.6761 27.1411 9.81607 31.9261 8.27607C28.9561 11.1361 32.4211 11.4111 29.8911 17.5161" fill="#FCD116"/>
<path d="M26.0961 20.1011L24.4461 17.6261C31.2661 12.6761 27.1411 9.81607 31.9261 8.27607C28.9561 11.1361 32.4211 11.4111 29.8911 17.5161" stroke="black" stroke-width="0.234667" stroke-miterlimit="20" stroke-linecap="square"/>
<path d="M27.3061 19.3861C31.0461 13.2261 28.6261 9.81611 31.9261 8.2211" stroke="black" stroke-width="0.234667" stroke-miterlimit="20"/>
<path d="M24.9961 24.9961H21.6961L24.9961 6.84609L28.2961 24.9961H24.9961V6.84609V24.9961Z" fill="#FCD116"/>
<path d="M24.9961 24.9961H21.6961L24.9961 6.84609M24.9961 24.9961H28.2961L24.9961 6.84609M24.9961 24.9961V6.84609" stroke="black" stroke-width="0.234667" stroke-miterlimit="20"/>
<path d="M29.2352 22.3126L29.8186 19.3958C38.1412 20.7181 37.2468 15.779 41.7192 18.0735C37.5968 17.9957 39.8524 20.6403 33.7466 23.1682" fill="#FCD116"/>
<path d="M29.2352 22.3126L29.8186 19.3958C38.1412 20.7181 37.2468 15.779 41.7192 18.0735C37.5968 17.9957 39.8524 20.6403 33.7466 23.1682" stroke="black" stroke-width="0.234667" stroke-miterlimit="20" stroke-linecap="square"/>
<path d="M30.5964 22.6627C37.5967 20.9515 38.2968 16.829 41.7581 18.0347" stroke="black" stroke-width="0.234667" stroke-miterlimit="20"/>
<path d="M24.9961 24.9961L22.6627 22.6627L37.8301 12.1621L27.3296 27.3296L24.9961 24.9961L37.8301 12.1621L24.9961 24.9961Z" fill="#FCD116"/>
<path d="M24.9961 24.9961L22.6627 22.6627L37.8301 12.1621M24.9961 24.9961L27.3296 27.3296L37.8301 12.1621M24.9961 24.9961L37.8301 12.1621" stroke="black" stroke-width="0.234667" stroke-miterlimit="20"/>
<path d="M29.8911 26.0961L32.3661 24.4461C37.3161 31.2661 40.1761 27.1411 41.7161 31.9261C38.8561 28.9561 38.5811 32.4211 32.4761 29.8911" fill="#FCD116"/>
<path d="M29.8911 26.0961L32.3661 24.4461C37.3161 31.2661 40.1761 27.1411 41.7161 31.9261C38.8561 28.9561 38.5811 32.4211 32.4761 29.8911" stroke="black" stroke-width="0.234667" stroke-miterlimit="20" stroke-linecap="square"/>
<path d="M30.6061 27.3061C36.7661 31.0461 40.1761 28.6261 41.7711 31.9261" stroke="black" stroke-width="0.234667" stroke-miterlimit="20"/>
<path d="M24.9961 24.9961V21.6961L43.1461 24.9961L24.9961 28.2961V24.9961H43.1461H24.9961Z" fill="#FCD116"/>
<path d="M24.9961 24.9961V21.6961L43.1461 24.9961M24.9961 24.9961V28.2961L43.1461 24.9961M24.9961 24.9961H43.1461" stroke="black" stroke-width="0.234667" stroke-miterlimit="20"/>
<path d="M27.6796 29.2352L30.5964 29.8186C29.2741 38.1412 34.2133 37.2468 31.9187 41.7192C31.9965 37.5968 29.3519 39.8524 26.824 33.7466" fill="#FCD116"/>
<path d="M27.6796 29.2352L30.5964 29.8186C29.2741 38.1412 34.2133 37.2468 31.9187 41.7192C31.9965 37.5968 29.3519 39.8524 26.824 33.7466" stroke="black" stroke-width="0.234667" stroke-miterlimit="20" stroke-linecap="square"/>
<path d="M27.3295 30.5964C29.0407 37.5967 33.1632 38.2968 31.9576 41.7581" stroke="black" stroke-width="0.234667" stroke-miterlimit="20"/>
<path d="M24.9961 24.9961L27.3296 22.6627L37.8301 37.8301L22.6627 27.3296L24.9961 24.9961L37.8301 37.8301L24.9961 24.9961Z" fill="#FCD116"/>
<path d="M24.9961 24.9961L27.3296 22.6627L37.8301 37.8301M24.9961 24.9961L22.6627 27.3296L37.8301 37.8301M24.9961 24.9961L37.8301 37.8301" stroke="black" stroke-width="0.234667" stroke-miterlimit="20"/>
<path d="M24.9961 31.046C28.3374 31.046 31.0461 28.3374 31.0461 24.996C31.0461 21.6547 28.3374 18.946 24.9961 18.946C21.6548 18.946 18.9461 21.6547 18.9461 24.996C18.9461 28.3374 21.6548 31.046 24.9961 31.046Z" fill="#FCD116" stroke="black" stroke-width="0.234667" stroke-miterlimit="20"/>
<path d="M29.4511 22.5761C29.0661 23.0161 28.8461 22.2461 27.4711 22.2461C26.0961 22.2461 25.8761 23.0711 25.6561 22.9061C25.4361 22.7411 26.8111 21.7511 27.2511 21.6961C27.6911 21.6411 28.9561 22.0811 29.4511 22.5761ZM27.8561 23.0711C28.2411 23.4011 27.9111 24.1161 27.5261 24.1161C27.1411 24.1161 26.4261 23.4561 26.7561 23.0161" fill="black"/>
<path d="M26.0411 23.5661C26.0961 22.9061 26.6461 22.7961 27.5261 22.7961C28.4061 22.7961 28.7911 23.4561 29.1211 23.6211C28.7361 23.6211 28.4061 23.0711 27.5261 23.0711C26.6461 23.0711 26.6461 23.0711 26.0411 23.6211M26.2061 23.7311C26.4261 23.4011 26.7011 24.0611 27.3061 24.0611C27.9111 24.0611 28.2411 23.8961 28.6261 23.6211C29.0111 23.3461 28.0761 24.2811 27.4711 24.2811C26.8661 24.2811 26.0411 23.9511 26.2061 23.7311Z" fill="black"/>
<path d="M28.0761 24.0611C28.7911 23.6761 28.3511 23.1261 28.0761 23.0161C28.1861 23.1261 28.6261 23.6761 28.0761 24.0611ZM24.9961 27.3611C25.3261 27.3611 25.4361 27.2511 25.8761 27.2511C26.3161 27.2511 27.3611 27.8561 27.9661 27.6361C26.7011 28.1311 27.1961 27.8011 24.9961 27.8011H24.7211M28.1861 28.1311C27.9661 27.7461 28.0211 27.8561 27.5811 27.2511C28.0211 27.5811 28.1311 27.7461 28.1861 28.1311ZM24.9961 28.6811C26.3711 28.6811 26.1511 28.4061 27.9661 27.6361C26.6461 27.8011 26.3711 28.2411 24.9961 28.2411H24.7211M24.9961 26.6461C25.3811 26.6461 25.4911 26.3711 25.9311 26.3711C26.3711 26.3711 26.9761 26.5361 27.2511 26.7561C27.3061 26.8111 27.0861 26.3161 26.6461 26.2611C26.2061 26.2061 26.3711 25.4911 25.8761 25.3811C25.8761 25.6011 26.0411 25.5461 26.0961 25.8761C26.0961 26.1511 25.6011 26.1511 25.4911 25.8761C25.6011 26.3161 25.2711 26.3161 24.9961 26.3161" fill="black"/>
<path d="M20.5411 22.5761C20.9261 23.0161 21.1461 22.2461 22.5211 22.2461C23.8961 22.2461 24.1161 23.0711 24.3361 22.9061C24.5561 22.7411 23.1811 21.7511 22.7411 21.6961C22.3011 21.6411 21.0361 22.0811 20.5411 22.5761ZM22.1361 23.0711C21.7511 23.4011 22.0811 24.1161 22.4661 24.1161C22.8511 24.1161 23.5661 23.4561 23.2361 23.0161" fill="black"/>
<path d="M23.9511 23.5661C23.8961 22.9061 23.3461 22.7961 22.4661 22.7961C21.5861 22.7961 21.2011 23.4561 20.8711 23.6211C21.2561 23.6211 21.5861 23.0711 22.4661 23.0711C23.3461 23.0711 23.3461 23.0711 23.9511 23.6211M23.7861 23.7311C23.5661 23.4011 23.2911 24.0611 22.6861 24.0611C22.0811 24.0611 21.7511 23.8961 21.3661 23.6211C20.9811 23.3461 21.9161 24.2811 22.5211 24.2811C23.1261 24.2811 23.9511 23.9511 23.7861 23.7311Z" fill="black"/>
<path d="M21.9161 24.0611C21.2011 23.6761 21.6411 23.1261 21.9161 23.0161C21.8061 23.1261 21.3661 23.6761 21.9161 24.0611ZM24.9961 27.3611C24.6661 27.3611 24.5561 27.2511 24.1161 27.2511C23.6761 27.2511 22.6311 27.8561 22.0261 27.6361C23.2911 28.1311 22.7961 27.8011 24.9961 27.8011H25.2711M21.8061 28.1311C22.0261 27.7461 21.9711 27.8561 22.4111 27.2511C21.9711 27.5811 21.8611 27.7461 21.8061 28.1311ZM24.9961 28.6811C23.6211 28.6811 23.8411 28.4061 22.0261 27.6361C23.3461 27.8011 23.6211 28.2411 24.9961 28.2411H25.2711M24.9961 26.6461C24.6111 26.6461 24.5011 26.3711 24.0611 26.3711C23.6211 26.3711 23.0161 26.5361 22.7411 26.7561C22.6861 26.8111 22.9061 26.3161 23.3461 26.2611C23.7861 26.2061 23.6211 25.4911 24.1161 25.3811C24.1161 25.6011 23.9511 25.5461 23.8961 25.8761C23.8961 26.1511 24.3911 26.1511 24.5011 25.8761C24.3911 26.3161 24.7211 26.3161 24.9961 26.3161" fill="black"/>
<path d="M24.9961 29.1761C24.7211 29.1761 24.0061 29.3411 24.9961 29.3411C25.9861 29.3411 25.2711 29.1761 24.9961 29.1761Z" fill="black"/>
</g>
<defs>
<clipPath id="clip0_14_984">
<rect width="90" height="90" rx="45" fill="white"/>
</clipPath>
</defs>
</svg>
