<svg width="90" height="90" viewBox="0 0 90 90" fill="none" xmlns="http://www.w3.org/2000/svg">
<g clip-path="url(#clip0_14_1412)">
<path d="M0 0H90V90H0V0Z" fill="#CF142B"/>
<path d="M0 0H90V59.9941H0V0Z" fill="#00247D"/>
<path d="M0 0H90V30.0059H0V0Z" fill="#FFCC00"/>
<path d="M50.3903 32.729L48.658 36.0776L50.6081 37.1066L50.3903 32.729Z" fill="white"/>
<path d="M50.3904 32.729L50.8729 36.4682L48.6885 36.7681L50.3904 32.729Z" fill="white"/>
<path d="M53.4515 35.8988L49.7314 35.286L49.3554 37.4587L53.4515 35.8988Z" fill="white"/>
<path d="M53.4515 35.8988L50.0444 37.5133L49.0841 35.5284L53.4515 35.8988Z" fill="white"/>
<path d="M46.4297 34.6607L49.0791 37.3431L50.6603 35.8064L46.4297 34.6607Z" fill="white"/>
<path d="M46.4296 34.6607L50.135 35.3572L49.7452 37.5275L46.4296 34.6607Z" fill="white"/>
<path d="M51.3827 39.7897L50.8159 36.0624L48.6334 36.3761L51.3827 39.7897Z" fill="white"/>
<path d="M51.3827 39.7897L48.7944 37.0483L50.3853 35.5217L51.3827 39.7897Z" fill="white"/>
<path d="M47.0429 39.0245L50.4127 37.3336L49.4399 35.3549L47.0429 39.0245Z" fill="white"/>
<path d="M47.0429 39.0245L48.8503 35.7158L50.7939 36.7571L47.0429 39.0245Z" fill="white"/>
<path d="M60.4217 36.3801L57.6485 38.9343L59.1291 40.5682L60.4217 36.3801Z" fill="white"/>
<path d="M60.4217 36.3801L59.5963 40.0589L57.441 39.5936L60.4217 36.3801Z" fill="white"/>
<path d="M62.2141 40.4058L58.9279 38.5576L57.8315 40.4706L62.2141 40.4058Z" fill="white"/>
<path d="M62.2141 40.4058L58.4603 40.7575L58.2368 38.564L62.2141 40.4058Z" fill="white"/>
<path d="M56.0392 36.8407L57.6114 40.2675L59.6229 39.3643L56.0392 36.8407Z" fill="white"/>
<path d="M56.0392 36.8407L59.2828 38.7625L58.1743 40.6686L56.0392 36.8407Z" fill="white"/>
<path d="M58.9393 43.3544L59.6815 39.658L57.5233 39.2064L58.9393 43.3544Z" fill="white"/>
<path d="M58.9393 43.3544L57.4447 39.8931L59.4619 39.0026L58.9393 43.3544Z" fill="white"/>
<path d="M55.123 41.1511L58.8679 40.7147L58.6305 38.5226L55.123 41.1511Z" fill="white"/>
<path d="M55.123 41.1511L57.9531 38.66L59.4233 40.3033L55.123 41.1511Z" fill="white"/>
<path d="M68.5994 43.242L65.1199 44.6937L65.9524 46.7355L68.5994 43.242Z" fill="white"/>
<path d="M68.5994 43.242L66.5656 46.4166L64.6994 45.2422L68.5994 43.242Z" fill="white"/>
<path d="M68.9069 47.6379L66.451 44.7773L64.7664 46.2L68.9069 47.6379Z" fill="white"/>
<path d="M68.9068 47.6379L65.2591 46.6846L65.7993 44.5469L68.9068 47.6379Z" fill="white"/>
<path d="M64.3236 42.176L64.629 45.9338L66.8281 45.773L64.3236 42.176Z" fill="white"/>
<path d="M64.3237 42.176L66.7144 45.0913L65.0208 46.5032L64.3237 42.176Z" fill="white"/>
<path d="M64.821 49.2887L66.7828 46.0691L64.9092 44.9066L64.821 49.2887Z" fill="white"/>
<path d="M64.821 49.2887L64.6005 45.525L66.8005 45.3781L64.821 49.2887Z" fill="white"/>
<path d="M61.9885 45.913L65.6568 46.7838L66.1834 44.6427L61.9885 45.913Z" fill="white"/>
<path d="M61.9885 45.913L65.4999 44.5402L66.3194 46.5872L61.9885 45.913Z" fill="white"/>
<path d="M73.937 52.487L70.1708 52.661L70.2547 54.8644L73.937 52.487Z" fill="white"/>
<path d="M73.937 52.487L70.9401 54.7745L69.588 53.0327L73.937 52.487Z" fill="white"/>
<path d="M72.7224 56.7229L71.393 53.1948L69.3234 53.9555L72.7224 56.7229Z" fill="white"/>
<path d="M72.7223 56.7229L69.6207 54.5796L70.8594 52.7555L72.7223 56.7229Z" fill="white"/>
<path d="M70.2837 50.0228L69.2854 53.6585L71.4069 54.2595L70.2837 50.0228Z" fill="white"/>
<path d="M70.2837 50.0228L71.5332 53.58L69.4588 54.3276L70.2837 50.0228Z" fill="white"/>
<path d="M68.3184 56.8767L71.263 54.5222L69.9 52.789L68.3184 56.8767Z" fill="white"/>
<path d="M68.3184 56.8767L69.3984 53.2645L71.516 53.879L68.3184 56.8767Z" fill="white"/>
<path d="M66.8112 52.7358L69.9604 54.8087L71.1876 52.9768L66.8112 52.7358Z" fill="white"/>
<path d="M66.8112 52.7358L70.5803 52.6467L70.6503 54.8505L66.8112 52.7358Z" fill="white"/>
<path d="M16.1685 52.487L19.1654 54.7746L20.5174 53.0327L16.1685 52.487Z" fill="white"/>
<path d="M16.1685 52.487L19.9347 52.6611L19.8507 54.8644L16.1685 52.487Z" fill="white"/>
<path d="M19.8218 50.0228L18.5723 53.58L20.6467 54.3276L19.8218 50.0228Z" fill="white"/>
<path d="M19.8218 50.0228L20.8201 53.6585L18.6986 54.2595L19.8218 50.0228Z" fill="white"/>
<path d="M17.3831 56.723L20.4848 54.5796L19.246 52.7555L17.3831 56.723Z" fill="white"/>
<path d="M17.3831 56.723L18.7124 53.1949L20.782 53.9556L17.3831 56.723Z" fill="white"/>
<path d="M23.2943 52.7358L19.5251 52.6468L19.4551 54.8506L23.2943 52.7358Z" fill="white"/>
<path d="M23.2943 52.7358L20.145 54.8087L18.9178 52.9769L23.2943 52.7358Z" fill="white"/>
<path d="M21.7871 56.8768L20.7071 53.2646L18.5895 53.879L21.7871 56.8768Z" fill="white"/>
<path d="M21.7871 56.8768L18.8425 54.5222L20.2055 52.789L21.7871 56.8768Z" fill="white"/>
<path d="M21.5061 43.242L23.5399 46.4166L25.4061 45.2422L21.5061 43.242Z" fill="white"/>
<path d="M21.5061 43.242L24.9856 44.6937L24.1532 46.7355L21.5061 43.242Z" fill="white"/>
<path d="M25.7818 42.1759L23.3911 45.0912L25.0847 46.5032L25.7818 42.1759Z" fill="white"/>
<path d="M25.7818 42.1759L25.4765 45.9337L23.2774 45.773L25.7818 42.1759Z" fill="white"/>
<path d="M21.1987 47.6379L24.8464 46.6846L24.3062 44.5469L21.1987 47.6379Z" fill="white"/>
<path d="M21.1987 47.6379L23.6545 44.7773L25.3391 46.2L21.1987 47.6379Z" fill="white"/>
<path d="M28.117 45.913L24.6056 44.5401L23.7861 46.5871L28.117 45.913Z" fill="white"/>
<path d="M28.117 45.913L24.4487 46.7838L23.9221 44.6426L28.117 45.913Z" fill="white"/>
<path d="M25.2845 49.2887L25.505 45.5249L23.305 45.378L25.2845 49.2887Z" fill="white"/>
<path d="M25.2845 49.2887L23.3227 46.069L25.1963 44.9065L25.2845 49.2887Z" fill="white"/>
<path d="M29.6837 36.3802L30.5091 40.0589L32.6644 39.5937L29.6837 36.3802Z" fill="white"/>
<path d="M29.6837 36.3802L32.4569 38.9343L30.9764 40.5683L29.6837 36.3802Z" fill="white"/>
<path d="M34.0663 36.8408L30.8226 38.7626L31.9311 40.6686L34.0663 36.8408Z" fill="white"/>
<path d="M34.0663 36.8408L32.494 40.2675L30.4826 39.3643L34.0663 36.8408Z" fill="white"/>
<path d="M27.8914 40.4058L31.6452 40.7576L31.8687 38.564L27.8914 40.4058Z" fill="white"/>
<path d="M27.8914 40.4058L31.1775 38.5577L32.274 40.4707L27.8914 40.4058Z" fill="white"/>
<path d="M34.9825 41.1511L32.1524 38.6601L30.6822 40.3034L34.9825 41.1511Z" fill="white"/>
<path d="M34.9825 41.1511L31.2376 40.7148L31.475 38.5227L34.9825 41.1511Z" fill="white"/>
<path d="M31.1662 43.3544L32.6607 39.8931L30.6436 39.0026L31.1662 43.3544Z" fill="white"/>
<path d="M31.1662 43.3544L30.4239 39.658L32.5821 39.2064L31.1662 43.3544Z" fill="white"/>
<path d="M39.7151 32.729L39.2326 36.4682L41.417 36.7682L39.7151 32.729Z" fill="white"/>
<path d="M39.7151 32.729L41.4475 36.0777L39.4974 37.1067L39.7151 32.729Z" fill="white"/>
<path d="M43.6758 34.6608L39.9705 35.3573L40.3603 37.5275L43.6758 34.6608Z" fill="white"/>
<path d="M43.6758 34.6608L41.0264 37.3431L39.4451 35.8064L43.6758 34.6608Z" fill="white"/>
<path d="M36.654 35.899L40.0611 37.5134L41.0214 35.5286L36.654 35.899Z" fill="white"/>
<path d="M36.654 35.899L40.3741 35.2862L40.7501 37.4588L36.654 35.899Z" fill="white"/>
<path d="M43.0625 39.0246L41.2551 35.7158L39.3115 36.7572L43.0625 39.0246Z" fill="white"/>
<path d="M43.0625 39.0246L39.6927 37.3337L40.6656 35.355L43.0625 39.0246Z" fill="white"/>
<path d="M38.7228 39.7898L41.3111 37.0484L39.7201 35.5217L38.7228 39.7898Z" fill="white"/>
<path d="M38.7228 39.7898L39.2896 36.0624L41.4721 36.3762L38.7228 39.7898Z" fill="white"/>
</g>
<defs>
<clipPath id="clip0_14_1412">
<rect width="90" height="90" rx="45" fill="white"/>
</clipPath>
</defs>
</svg>
