<svg width="90" height="90" viewBox="0 0 90 90" fill="none" xmlns="http://www.w3.org/2000/svg">
<g clip-path="url(#clip0_14_2549)">
<path d="M0 0H90V90H0V0Z" fill="#FF0000"/>
<path d="M36.0176 17.4902C35.1387 17.4902 33.6973 17.7715 33.7324 18.4395C31.2715 18.0352 31.0254 19.0371 31.166 19.9336C31.4121 19.582 31.6934 19.3887 31.9043 19.3535C32.2383 19.3008 32.5723 19.4062 32.9238 19.6172C33.2528 19.831 33.5488 20.0915 33.8027 20.3906C32.959 20.584 32.291 20.4609 31.623 20.3379C31.2411 20.2603 30.8773 20.1112 30.5508 19.8984C30.2695 19.7051 30.1816 19.5293 29.7422 19.0723C29.2324 18.5449 28.6875 18.7031 28.8633 19.5117C29.25 20.2676 29.918 20.6191 30.7441 20.7422C31.1309 20.8125 31.7285 20.9531 32.3965 20.9531C33.0645 20.9531 33.8203 20.8652 34.2422 20.9531C33.9961 21.0937 33.7148 21.375 33.1523 21.4805C32.5898 21.5859 31.7461 21.1289 31.2188 21.0234C31.2891 21.4629 31.834 21.8672 32.9238 22.0781C34.7168 22.4648 36.2109 22.7813 37.1953 23.3086C38.1797 23.8359 38.7949 24.5039 39.2344 25.0312C40.1133 26.0859 40.166 26.877 40.2188 27.0527C40.3945 28.7227 39.832 29.6543 38.7422 29.9355C38.2148 30.0762 37.248 29.8125 36.8965 29.4082C36.5449 28.9863 36.1934 28.2832 36.2988 27.1758C36.3867 26.7363 36.8965 25.5938 36.4746 25.3652C34.5221 24.2976 32.5022 23.3582 30.4277 22.5527C29.9531 22.3594 29.5488 22.9922 29.4082 23.2559C28.0263 23.0606 26.7053 22.5602 25.5408 21.7909C24.3763 21.0217 23.3977 20.003 22.6758 18.8086C21.8672 17.3848 20.5488 18.8086 20.7598 20.1621C21.1289 21.6738 22.2715 22.7637 23.6602 23.5371C25.0664 24.3281 26.8418 25.084 28.6348 25.0488C29.6016 25.2246 29.6016 26.4902 28.4414 26.7188C26.1563 26.7188 24.3633 26.6836 22.6582 25.0312C21.3574 23.8535 20.6367 25.2598 21.0059 26.0508C21.6387 28.5117 25.1543 29.2148 28.7051 28.4063C30.0762 28.1777 29.25 29.6367 28.8633 29.6719C27.3867 30.7266 24.7324 31.7812 22.3945 29.6543C21.3223 28.8281 20.6016 29.5312 20.9883 30.709C22.043 33.7852 25.998 33.1348 28.7227 31.623C29.4258 31.2363 30.0586 32.1504 29.1973 32.8359C25.8223 35.1914 24.1172 35.2266 22.5879 34.3125C20.6895 33.5566 20.5137 35.6836 21.6562 36.3867C22.9219 37.1602 26.1211 36.5625 28.4941 35.0859C29.4961 34.3477 29.5488 35.5078 28.8984 35.9648C26.1035 38.3906 24.9961 39.041 22.0781 38.6367C20.6367 38.5312 20.6719 40.3066 21.7969 41.0098C23.3438 41.959 26.3848 40.377 28.7402 38.4258C29.7246 37.8984 29.9004 38.7773 29.4082 39.7969C28.3686 41.2672 26.9544 42.4325 25.3125 43.1719C24.2181 43.6062 23.0075 43.6496 21.8848 43.2949C20.7949 42.9082 20.6543 44.0332 21.252 45.0527C21.6035 45.668 23.1152 45.8789 24.7148 45.2988C26.332 44.7363 28.0547 43.4004 29.2324 41.8184C30.2871 40.9219 30.1465 42.1348 29.6719 42.9961C27.2988 46.7402 25.1191 48.1289 22.2715 47.9004C20.9883 47.6895 20.707 48.6738 21.5156 49.5879C22.9219 50.7656 24.7148 50.7129 26.2617 49.5527C28.1231 47.6969 29.9285 45.7859 31.6758 43.8223C32.6426 43.0488 32.959 43.8223 32.6777 45.4043C32.4141 46.3008 31.7637 47.25 29.9883 47.9531C28.7578 48.6562 29.6719 49.6055 30.5859 49.623C31.0957 49.623 32.1152 49.043 32.8711 48.1641C33.9082 47.0215 33.9609 46.2305 34.541 44.4551C35.0684 43.5762 36.0176 43.9805 36.0176 44.8945C35.5605 46.6875 35.1738 47.0039 34.2598 47.7422C33.3633 48.5684 34.8574 48.8496 35.3672 48.5156C36.8262 47.5312 37.3535 46.2656 37.8457 45.1055C38.1973 44.2617 39.2168 44.666 38.7422 46.0371C37.6172 49.2891 35.7539 50.5723 32.502 51.2402C32.168 51.293 31.9746 51.4863 32.0801 51.873L33.3984 53.1914C31.377 53.7715 29.7422 54.1055 27.7383 54.6855L24.9609 52.8398C24.6973 52.2422 24.5742 51.3105 23.1328 51.9609C22.1309 51.5039 21.6914 51.6797 21.1289 52.1367C21.9199 52.1543 22.2715 52.3652 22.5879 52.7344C22.9922 53.7891 23.9238 53.8945 24.873 53.6133C25.4883 54.123 25.8223 54.5273 26.4551 55.0547L23.3262 54.9492C22.2187 53.7715 21.3398 53.8418 20.5488 54.7734C19.9336 54.8613 19.6699 54.8613 19.2656 55.5996C19.916 55.3359 20.3203 55.248 20.6191 55.5469C21.7793 56.2324 22.5527 56.0742 23.1328 55.5469L26.4199 55.7402C26.0156 56.0918 25.4355 56.2852 25.0137 56.6543C23.3086 56.1621 22.4297 56.8301 22.1309 58.2012C21.8847 58.7522 21.7994 59.3616 21.8848 59.959C22.0605 59.3965 22.3242 58.9219 22.8164 58.623C24.3281 59.0098 24.8906 58.3945 24.9785 57.4805C25.7168 56.8828 26.8242 56.7598 27.5449 56.1445C28.4062 56.4258 28.8105 56.6016 29.6719 56.8652C29.9707 57.7969 30.6738 58.166 31.7813 57.9199C33.1348 57.9727 32.8887 58.5176 33.0117 58.957C33.3633 58.3242 33.3633 57.7266 32.5195 57.1465C32.2207 56.3379 31.5527 55.9688 30.6914 56.4434C29.8652 56.2148 29.6543 55.8809 28.8457 55.6348C30.9023 54.9844 32.3613 54.8438 34.4355 54.1758C34.9629 54.668 35.3496 55.0195 35.877 55.4414C36.1582 55.6172 36.4043 55.6523 36.5801 55.4414C37.8633 53.5781 38.4434 51.9258 39.6387 50.6953C40.0957 50.1855 40.6934 49.5 41.3262 49.3242C41.6426 49.2539 42.0293 49.2891 42.293 49.5703C42.5391 49.8516 42.75 50.3438 42.6445 51.0996C42.5391 52.1895 42.293 52.541 41.9766 53.1738C41.6777 53.8242 41.291 54.2285 40.9219 54.7207C40.1484 55.7227 39.1465 56.3027 38.5488 56.6895C37.3535 57.4629 36.8438 57.1289 35.9121 57.0762C34.7344 57.2168 34.418 57.7969 35.3848 58.6055C36.1184 59.0095 36.9676 59.1521 37.793 59.0098C38.373 58.9043 39.0234 58.166 39.5156 57.7793C40.043 57.1465 40.9395 57.8848 40.3418 58.6055C39.2344 59.9238 38.127 60.7852 36.7734 60.7676C35.332 60.9434 35.5957 61.7695 36.5449 62.1562C38.2676 62.8594 39.8145 61.541 40.5879 60.6621C41.2031 60.0117 41.6426 59.9766 41.5195 61.0137C40.9219 62.8594 40.0957 63.5801 38.7598 63.668C37.6699 63.5801 37.6523 64.4063 38.4609 64.9863C40.2715 66.2168 41.5723 64.1074 42.1875 62.8066C42.627 61.6465 43.2949 62.1914 43.3652 63.1582C43.3652 64.4414 42.8027 65.4785 41.2559 66.7969C42.4336 68.6777 43.8047 70.6113 45 72.5098L48.6035 32.3965L45 26.0684C44.6309 25.7168 43.3652 24.2227 43.0313 24.0117C42.9082 23.8887 42.8379 23.8008 43.0137 23.7305C43.1895 23.6602 43.5762 23.5898 43.8574 23.5547C43.084 22.7812 42.4512 22.5352 40.9922 22.1133C41.3438 21.9727 41.6953 22.0605 42.7324 22.0078C42.0905 21.135 41.2121 20.464 40.2012 20.0742C40.9922 19.5469 41.1328 19.4941 41.9238 18.8437C40.5703 18.7383 39.4102 18.4922 38.2676 18.1406C37.5581 17.8026 36.798 17.5829 36.0176 17.4902ZM36.1406 19.0723C36.8438 19.0723 37.3008 19.3184 37.3008 19.5996C37.3008 19.8984 36.8613 20.1445 36.1406 20.1445C35.4375 20.1445 34.9805 19.8809 34.9805 19.582C34.9805 19.2832 35.4375 19.0547 36.1406 19.0547V19.0723Z" fill="#000001"/>
<path d="M53.9824 17.4902C54.8613 17.4902 56.3027 17.7715 56.2676 18.4395C58.7285 18.0352 58.9746 19.0371 58.834 19.9336C58.5879 19.582 58.3066 19.3887 58.0957 19.3535C57.7617 19.3008 57.4277 19.4062 57.0762 19.6172C56.7472 19.831 56.4512 20.0915 56.1973 20.3906C57.041 20.584 57.709 20.4609 58.377 20.3379C58.7589 20.2603 59.1227 20.1112 59.4492 19.8984C59.7305 19.7051 59.8184 19.5293 60.2578 19.0723C60.7676 18.5449 61.3125 18.7031 61.1367 19.5117C60.75 20.2676 60.082 20.6191 59.2559 20.7422C58.8691 20.8125 58.2715 20.9531 57.6035 20.9531C56.9355 20.9531 56.1797 20.8652 55.7578 20.9531C56.0039 21.0937 56.2852 21.375 56.8477 21.4805C57.4102 21.5859 58.2539 21.1289 58.7812 21.0234C58.7109 21.4629 58.166 21.8672 57.0762 22.0781C55.2832 22.4648 53.7891 22.7813 52.8047 23.3086C51.8203 23.8359 51.2051 24.5039 50.7656 25.0312C49.8867 26.0859 49.834 26.877 49.7812 27.0527C49.6055 28.7227 50.168 29.6543 51.2578 29.9355C51.7852 30.0762 52.752 29.8125 53.1035 29.4082C53.4551 28.9863 53.8066 28.2832 53.7012 27.1758C53.6133 26.7363 53.1035 25.5938 53.5254 25.3652C55.4779 24.2976 57.4978 23.3582 59.5723 22.5527C60.0469 22.3594 60.4512 22.9922 60.5918 23.2559C61.9737 23.0606 63.2947 22.5602 64.4592 21.7909C65.6237 21.0217 66.6023 20.003 67.3242 18.8086C68.1328 17.3848 69.4512 18.8086 69.2402 20.1621C68.8711 21.6738 67.7285 22.7637 66.3398 23.5371C64.9336 24.3281 63.1582 25.084 61.3652 25.0488C60.3984 25.2246 60.3984 26.4902 61.5586 26.7188C63.8437 26.7188 65.6367 26.6836 67.3418 25.0312C68.6426 23.8535 69.3633 25.2598 68.9941 26.0508C68.3613 28.5117 64.8457 29.2148 61.2949 28.4063C59.9238 28.1777 60.75 29.6367 61.1367 29.6719C62.6133 30.7266 65.2676 31.7812 67.6055 29.6543C68.6777 28.8281 69.3984 29.5312 69.0117 30.709C67.957 33.7852 64.002 33.1348 61.2773 31.623C60.5742 31.2363 59.9414 32.1504 60.8027 32.8359C64.1777 35.1914 65.8828 35.2266 67.4121 34.3125C69.3105 33.5566 69.4863 35.6836 68.3438 36.3867C67.0781 37.1602 63.8789 36.5625 61.5059 35.0859C60.5039 34.3477 60.4512 35.5078 61.1016 35.9648C63.8965 38.3906 65.0039 39.041 67.9219 38.6367C69.3633 38.5312 69.3281 40.3066 68.2031 41.0098C66.6562 41.959 63.6152 40.377 61.2598 38.4258C60.2754 37.8984 60.0996 38.7773 60.5918 39.7969C61.6314 41.2672 63.0456 42.4325 64.6875 43.1719C65.7819 43.6062 66.9925 43.6496 68.1152 43.2949C69.2051 42.9082 69.3457 44.0332 68.748 45.0527C68.3965 45.668 66.8848 45.8789 65.2852 45.2988C63.668 44.7363 61.9453 43.4004 60.7676 41.8184C59.7129 40.9219 59.8535 42.1348 60.3281 42.9961C62.7012 46.7402 64.8809 48.1289 67.7285 47.9004C69.0117 47.6895 69.293 48.6738 68.4844 49.5879C67.0781 50.7656 65.2852 50.7129 63.7383 49.5527C61.8769 47.6969 60.0715 45.7859 58.3242 43.8223C57.3574 43.0488 57.041 43.8223 57.3223 45.4043C57.5859 46.3008 58.2363 47.25 60.0117 47.9531C61.2422 48.6562 60.3281 49.6055 59.4141 49.623C58.9043 49.623 57.8848 49.043 57.1289 48.1641C56.0918 47.0215 56.0391 46.2305 55.459 44.4551C54.9316 43.5762 53.9824 43.9805 53.9824 44.8945C54.4395 46.6875 54.8262 47.0039 55.7402 47.7422C56.6367 48.5684 55.1426 48.8496 54.6328 48.5156C53.1738 47.5312 52.6465 46.2656 52.1543 45.1055C51.8027 44.2617 50.7832 44.666 51.2578 46.0371C52.3828 49.2891 54.2461 50.5723 57.498 51.2402C57.832 51.293 58.0254 51.4863 57.9199 51.873L56.6016 53.1914C58.623 53.7715 60.2578 54.1055 62.2617 54.6855L65.0391 52.8398C65.3027 52.2422 65.4258 51.3105 66.8672 51.9609C67.8691 51.5039 68.3086 51.6797 68.8711 52.1367C68.0801 52.1543 67.7285 52.3652 67.4121 52.7344C67.0078 53.7891 66.0762 53.8945 65.127 53.6133C64.5117 54.123 64.1777 54.5273 63.5449 55.0547L66.6738 54.9492C67.7813 53.7715 68.6602 53.8418 69.4512 54.7734C70.0664 54.8613 70.3301 54.8613 70.7344 55.5996C70.084 55.3359 69.6797 55.248 69.3809 55.5469C68.2207 56.2324 67.4473 56.0742 66.8672 55.5469L63.5801 55.7402C63.9844 56.0918 64.5645 56.2852 64.9863 56.6543C66.6914 56.1621 67.5703 56.8301 67.8691 58.2012C68.1153 58.7522 68.2006 59.3616 68.1152 59.959C67.9395 59.3965 67.6758 58.9219 67.1836 58.623C65.6719 59.0098 65.1094 58.3945 65.0215 57.4805C64.2832 56.8828 63.1758 56.7598 62.4551 56.1445C61.5938 56.4258 61.1895 56.6016 60.3281 56.8652C60.0293 57.7969 59.3262 58.166 58.2187 57.9199C56.8652 57.9727 57.1113 58.5176 56.9883 58.957C56.6367 58.3242 56.6367 57.7266 57.4805 57.1465C57.7793 56.3379 58.4473 55.9688 59.3086 56.4434C60.1348 56.2148 60.3457 55.8809 61.1543 55.6348C59.0977 54.9844 57.6387 54.8438 55.5645 54.1758C55.0371 54.668 54.6504 55.0195 54.123 55.4414C53.8418 55.6172 53.5957 55.6523 53.4199 55.4414C52.1367 53.5781 51.5566 51.9258 50.3613 50.6953C49.9043 50.1855 49.3066 49.5 48.6738 49.3242C48.3574 49.2539 47.9707 49.2891 47.707 49.5703C47.4609 49.8516 47.25 50.3438 47.3555 51.0996C47.4609 52.1895 47.707 52.541 48.0234 53.1738C48.3223 53.8242 48.709 54.2285 49.0781 54.7207C49.8516 55.7227 50.8535 56.3027 51.4512 56.6895C52.6465 57.4629 53.1562 57.1289 54.0879 57.0762C55.2656 57.2168 55.582 57.7969 54.6152 58.6055C53.8816 59.0095 53.0324 59.1521 52.207 59.0098C51.627 58.9043 50.9766 58.166 50.4844 57.7793C49.957 57.1465 49.0605 57.8848 49.6582 58.6055C50.7656 59.9238 51.873 60.7852 53.2266 60.7676C54.668 60.9434 54.4043 61.7695 53.4551 62.1562C51.7324 62.8594 50.1855 61.541 49.4121 60.6621C48.7969 60.0117 48.3574 59.9766 48.4805 61.0137C49.0781 62.8594 49.9043 63.5801 51.2402 63.668C52.3301 63.5801 52.3477 64.4063 51.5391 64.9863C49.7285 66.2168 48.4277 64.1074 47.8125 62.8066C47.373 61.6465 46.7051 62.1914 46.6348 63.1582C46.6348 64.4414 47.1973 65.4785 48.7441 66.7969C47.5664 68.6777 46.1953 70.6113 45 72.5098L41.3965 32.3965L45 26.0684C45.3691 25.7168 46.6348 24.2227 46.9687 24.0117C47.0918 23.8887 47.1621 23.8008 46.9863 23.7305C46.8105 23.6602 46.4238 23.5898 46.1426 23.5547C46.916 22.7812 47.5488 22.5352 49.0078 22.1133C48.6562 21.9727 48.3047 22.0605 47.2676 22.0078C47.9095 21.135 48.7879 20.464 49.7988 20.0742C49.0078 19.5469 48.8672 19.4941 48.0762 18.8437C49.4297 18.7383 50.5898 18.4922 51.7324 18.1406C52.4419 17.8026 53.202 17.5829 53.9824 17.4902ZM53.8594 19.0723C53.1562 19.0723 52.6992 19.3184 52.6992 19.5996C52.6992 19.8984 53.1387 20.1445 53.8594 20.1445C54.5625 20.1445 55.0195 19.8809 55.0195 19.582C55.0195 19.2832 54.5625 19.0547 53.8594 19.0547V19.0723Z" fill="#000001"/>
</g>
<defs>
<clipPath id="clip0_14_2549">
<rect width="90" height="90" rx="45" fill="white"/>
</clipPath>
</defs>
</svg>
