<svg width="90" height="90" viewBox="0 0 90 90" fill="none" xmlns="http://www.w3.org/2000/svg">
<g clip-path="url(#clip0_14_2555)">
<mask id="mask0_14_2555" style="mask-type:luminance" maskUnits="userSpaceOnUse" x="-1" y="0" width="91" height="90">
<path d="M-0.00427246 0H89.9905V89.9948H-0.00427246V0Z" fill="white"/>
</mask>
<g mask="url(#mask0_14_2555)">
<path fill-rule="evenodd" clip-rule="evenodd" d="M-10.8984 0H169.109V89.9948H-10.8984V0Z" fill="white"/>
<path fill-rule="evenodd" clip-rule="evenodd" d="M-10.8984 60.0086H169.109V89.9948H-10.8984V60.0086Z" fill="#D50000"/>
<path fill-rule="evenodd" clip-rule="evenodd" d="M-10.8984 30.0043H169.109V60.0086H-10.8984V30.0043Z" fill="#0000BF"/>
<path fill-rule="evenodd" clip-rule="evenodd" d="M40.1343 16.3413C39.4285 27.1812 39.0304 33.1169 37.3836 35.8676C35.592 38.8174 33.8547 40.9709 26.8875 43.5768C19.9384 40.9709 18.2011 38.8174 16.4095 35.8676C14.7808 33.1169 14.3646 27.1812 13.6588 16.3413L14.6903 15.9974C16.7533 15.3641 18.3097 14.8573 19.4498 14.6402C21.0785 14.2783 22.4719 13.8982 26.8694 13.8077C31.2669 13.8801 32.6603 14.2963 34.289 14.6402C35.4472 14.8754 37.0578 15.3641 39.1027 15.9974L40.1343 16.3413Z" fill="#D50000"/>
<path fill-rule="evenodd" clip-rule="evenodd" d="M39.1208 15.9794C38.4512 26.8012 37.9083 31.7597 37.0216 34.1303C35.3386 38.2202 32.6603 40.4642 26.8875 42.5815C21.1327 40.4461 18.4544 38.2202 16.7533 34.1303C15.8847 31.7597 15.3237 26.8193 14.6903 15.9794C16.7171 15.346 18.3096 14.8574 19.4497 14.6221C21.0784 14.2783 22.4719 13.8621 26.8694 13.7897C31.2669 13.8621 32.6784 14.2783 34.3071 14.6221C35.4653 14.8574 37.0759 15.346 39.1208 15.9794Z" fill="#0000BF"/>
<path fill-rule="evenodd" clip-rule="evenodd" d="M26.8874 19.2911L27.1589 19.9607L28.3713 20.1235L27.5932 20.594L28.3532 21.1007L27.2493 21.2817L26.9055 21.8789L26.5436 21.2636L25.4578 21.1188L26.1816 20.594L25.4578 20.1235L26.616 19.9426L26.8874 19.2911Z" fill="#FFDF00"/>
<path fill-rule="evenodd" clip-rule="evenodd" d="M36.6054 31.5787L35.9358 31.0358L35.4472 30.2396L34.5061 29.4071L33.9994 28.5747L33.0584 27.7241L32.5879 26.8917L32.0812 26.4755L31.7374 26.1678L30.8868 26.9098L30.4163 27.7422L29.8191 28.267L29.1857 27.7603L28.6971 26.9098L26.8874 23.7067L25.0778 26.9098L24.6073 27.7603L23.9558 28.267L23.3767 27.7241L22.9062 26.9098L22.0556 26.1678L21.7118 26.4755L21.2051 26.8917L20.7346 27.7241L19.7935 28.5747L19.2868 29.4071L18.3277 30.2396L17.8572 31.0358L17.1876 31.5787C17.5739 33.9926 18.7142 36.2224 20.445 37.9488C21.6032 39.0526 23.9739 40.5547 26.8693 41.55C29.2472 40.797 31.4459 39.5653 33.3299 37.9307C35.064 36.2116 36.2104 33.9884 36.6054 31.5787Z" fill="white"/>
<path fill-rule="evenodd" clip-rule="evenodd" d="M29.783 14.7488L30.0544 15.4003L31.2669 15.5813L30.4887 16.0337L31.2488 16.5585L30.1449 16.7394L29.801 17.3366L29.4391 16.7213L28.3714 16.5766L29.0953 16.0337L28.3533 15.5813L29.5115 15.4003L29.783 14.7488ZM23.992 14.7488L24.2635 15.3822L25.4759 15.5632L24.6978 16.0337L25.4578 16.5404L24.354 16.7213L24.0101 17.3185L23.6301 16.7033L22.5805 16.5585L23.3043 16.0337L22.5624 15.5632L23.7206 15.3822L23.992 14.7307V14.7488Z" fill="#FFDF00"/>
<path fill-rule="evenodd" clip-rule="evenodd" d="M35.1034 35.6867H33.8004L32.5879 35.5962L31.1221 34.8723L29.4572 34.8904L28.0276 35.5962L26.9056 35.6867L25.7655 35.5962L24.3359 34.8904H22.6891L21.2232 35.6143L20.0107 35.6867H18.6716L18.0382 34.6009L18.0563 34.5647L20.0288 34.8904L21.2232 34.7999L22.6891 34.076H24.354L25.8017 34.7999L26.9237 34.8904L28.0457 34.7818L29.4934 34.0941H31.1221L32.606 34.7999L33.8185 34.8904L35.7187 34.5466L35.7549 34.6009L35.1034 35.6867ZM19.9022 37.3696L21.2051 37.2792L22.671 36.5553H24.3178L25.7655 37.2611L26.8875 37.3696L28.0095 37.2611L29.4572 36.5553H31.104L32.5698 37.2792L33.8909 37.3696L34.7414 36.32L34.7053 36.2838L33.8004 36.5553L32.5879 36.4648L31.1221 35.7409H29.4753L28.0276 36.4648L26.9056 36.5553L25.7836 36.4648L24.3359 35.7409H22.6891L21.2232 36.4648L20.0107 36.5553L19.1059 36.3381V36.3743L19.9022 37.3696Z" fill="#0000BF"/>
</g>
</g>
<defs>
<clipPath id="clip0_14_2555">
<rect width="90" height="90" rx="45" fill="white"/>
</clipPath>
</defs>
</svg>
