<svg width="90" height="90" viewBox="0 0 90 90" fill="none" xmlns="http://www.w3.org/2000/svg">
<g clip-path="url(#clip0_14_3085)">
<path d="M0 0H90V90H0V0Z" fill="#EE1C25"/>
<path d="M0 0H90V59.9941H0V0Z" fill="#0B4EA2"/>
<path d="M0 0H90V30.0059H0V0Z" fill="white"/>
<path d="M35.7188 69.5215C27.6504 65.6543 16.1191 57.9199 16.1191 42.6621C16.1191 27.4043 16.8398 20.4785 16.8398 20.4785H54.5977C54.5977 20.4785 55.3359 27.4043 55.3359 42.6621C55.3359 57.9199 43.7695 65.6367 35.7188 69.5215Z" fill="white"/>
<path d="M35.7188 67.5C28.3184 63.9316 17.7363 56.8652 17.7363 42.8555C17.7363 28.8457 18.4043 22.5 18.4043 22.5H53.0332C53.0332 22.5 53.7012 28.8633 53.7012 42.8555C53.7012 56.8477 43.1191 63.9492 35.7188 67.5Z" fill="#EE1C25"/>
<path d="M37.3008 39.1992C39.3047 39.2344 43.2246 39.3047 46.7051 38.1445C46.7051 38.1445 46.5996 39.375 46.5996 40.834C46.5996 42.293 46.7051 43.5234 46.7051 43.5234C43.6451 42.6804 40.4715 42.3245 37.3008 42.4688V50.2031H34.1367V42.4688C30.966 42.3245 27.7924 42.6804 24.7324 43.5234C24.7324 43.5234 24.8379 42.293 24.8379 40.834C24.8379 39.375 24.7324 38.1445 24.7324 38.1445C28.2305 39.3047 32.1328 39.2344 34.1367 39.1992V34.3301C31.6156 34.2683 29.1021 34.6307 26.7012 35.4023C26.7012 35.4023 26.7891 34.1719 26.7891 32.7129C26.7891 31.2539 26.7012 30.0059 26.7012 30.0059C29.6895 31.0078 32.3086 31.0957 34.1191 31.0605C34.0313 28.002 33.1348 24.1348 33.1348 24.1348C33.1348 24.1348 34.9805 24.2754 35.7188 24.2754C36.457 24.2754 38.3027 24.1348 38.3027 24.1348C38.3027 24.1348 37.4062 28.002 37.3008 31.0781C39.8213 31.1524 42.3359 30.7957 44.7363 30.0234C44.7363 30.0234 44.6484 31.2539 44.6484 32.7129C44.6484 34.1719 44.7363 35.4023 44.7363 35.4023C41.748 34.4004 39.1289 34.3301 37.3008 34.3477V39.1992Z" fill="white"/>
<path d="M35.7188 49.3594C31.9922 49.3594 29.9883 54.5273 29.9883 54.5273C29.9883 54.5273 28.8809 52.0664 25.8398 52.0664C23.7832 52.0664 22.2715 53.9121 21.3047 55.6172C25.0488 61.5586 31.0254 65.2324 35.7188 67.5C40.4121 65.2324 46.3887 61.5586 50.1328 55.5996C49.166 53.9121 47.6543 52.084 45.5977 52.084C42.5566 52.084 41.4492 54.5449 41.4492 54.5449C41.4492 54.5449 39.4453 49.3594 35.7188 49.3594Z" fill="#0B4EA2"/>
</g>
<defs>
<clipPath id="clip0_14_3085">
<rect width="90" height="90" rx="45" fill="white"/>
</clipPath>
</defs>
</svg>
