<svg width="90" height="90" viewBox="0 0 90 90" fill="none" xmlns="http://www.w3.org/2000/svg">
<g clip-path="url(#clip0_14_3113)">
<path d="M0 0H90V90H0V0Z" fill="white"/>
<path d="M36.0352 0H53.9648V90H36.0352V0Z" fill="#FF0000"/>
<path d="M0 36.0352H90V53.9648H0V36.0352Z" fill="#FF0000"/>
<path fill-rule="evenodd" clip-rule="evenodd" d="M20.0566 69.9434C20.25 66.7793 20.8125 64.0723 20.8125 64.0723C20.8125 64.0723 18.9492 64.248 18.0176 64.248C17.0859 64.248 15.2227 64.0723 15.2227 64.0723C15.2227 64.0723 15.7852 66.7617 15.9785 69.9434C12.8145 69.75 10.1074 69.1875 10.1074 69.1875C10.1074 69.1875 10.2832 70.5938 10.2832 71.9824C10.2832 73.3711 10.1074 74.7773 10.1074 74.7773C10.1074 74.7773 12.7969 74.2148 15.9785 74.0215C15.7852 77.1855 15.2227 79.8926 15.2227 79.8926C15.2227 79.8926 16.6289 79.7168 18.0176 79.7168C19.4238 79.7168 20.8125 79.8926 20.8125 79.8926C20.8125 79.8926 20.25 77.2031 20.0566 74.0215C23.2207 74.2148 25.9277 74.7773 25.9277 74.7773C25.9277 74.7773 25.752 72.9141 25.752 71.9824C25.752 71.0508 25.9277 69.1875 25.9277 69.1875C25.9277 69.1875 23.2383 69.75 20.0566 69.9434ZM74.0215 15.9785C74.2148 12.8145 74.7773 10.1074 74.7773 10.1074C74.7773 10.1074 72.9141 10.2832 71.9824 10.2832C71.0508 10.2832 69.1875 10.1074 69.1875 10.1074C69.1875 10.1074 69.75 12.8145 69.9434 15.9785C66.7793 15.7852 64.0723 15.2227 64.0723 15.2227C64.0723 15.2227 64.248 16.6289 64.248 18.0176C64.248 19.4238 64.0723 20.8125 64.0723 20.8125C64.0723 20.8125 66.7617 20.25 69.9434 20.0566C69.75 23.2207 69.1875 25.9277 69.1875 25.9277C69.1875 25.9277 70.5938 25.752 71.9824 25.752C73.3711 25.752 74.7773 25.9277 74.7773 25.9277C74.7773 25.9277 74.2148 23.2383 74.0215 20.0566C77.1855 20.25 79.8926 20.8125 79.8926 20.8125C79.8926 20.8125 79.7168 18.9492 79.7168 18.0176C79.7168 17.1035 79.8926 15.2227 79.8926 15.2227C79.8926 15.2227 77.1855 15.7852 74.0215 15.9785ZM20.0566 15.9785C20.25 12.8145 20.8125 10.1074 20.8125 10.1074C20.8125 10.1074 18.9492 10.2832 18.0176 10.2832C17.0859 10.2832 15.2227 10.1074 15.2227 10.1074C15.2227 10.1074 15.7852 12.8145 15.9785 15.9785C12.8145 15.7852 10.1074 15.2227 10.1074 15.2227C10.1074 15.2227 10.2832 16.6289 10.2832 18.0176C10.2832 19.4238 10.1074 20.8125 10.1074 20.8125C10.1074 20.8125 12.7969 20.25 15.9785 20.0566C15.7852 23.2207 15.2227 25.9277 15.2227 25.9277C15.2227 25.9277 16.6289 25.752 18.0176 25.752C19.4238 25.752 20.8125 25.9277 20.8125 25.9277C20.8125 25.9277 20.25 23.2383 20.0566 20.0566C23.2207 20.25 25.9277 20.8125 25.9277 20.8125C25.9277 20.8125 25.752 18.9492 25.752 18.0176C25.752 17.1035 25.9277 15.2227 25.9277 15.2227C25.9277 15.2227 23.2383 15.7852 20.0566 15.9785ZM74.0215 69.9434C74.2148 66.7793 74.7773 64.0723 74.7773 64.0723C74.7773 64.0723 72.9141 64.248 71.9824 64.248C71.0508 64.248 69.1875 64.0723 69.1875 64.0723C69.1875 64.0723 69.75 66.7617 69.9434 69.9434C66.7793 69.75 64.0723 69.1875 64.0723 69.1875C64.0723 69.1875 64.248 70.5938 64.248 71.9824C64.248 73.3711 64.0723 74.7773 64.0723 74.7773C64.0723 74.7773 66.7617 74.2148 69.9434 74.0215C69.75 77.1855 69.1875 79.8926 69.1875 79.8926C69.1875 79.8926 70.5938 79.7168 71.9824 79.7168C73.3711 79.7168 74.7773 79.8926 74.7773 79.8926C74.7773 79.8926 74.2148 77.2031 74.0215 74.0215C77.1855 74.2148 79.8926 74.7773 79.8926 74.7773C79.8926 74.7773 79.7168 72.9141 79.7168 71.9824C79.7168 71.0508 79.8926 69.1875 79.8926 69.1875C79.8926 69.1875 77.1855 69.75 74.0215 69.9434Z" fill="#FF0000"/>
</g>
<defs>
<clipPath id="clip0_14_3113">
<rect width="90" height="90" rx="45" fill="white"/>
</clipPath>
</defs>
</svg>
