<svg width="90" height="90" viewBox="0 0 90 90" fill="none" xmlns="http://www.w3.org/2000/svg">
<g clip-path="url(#clip0_14_3119)">
<path d="M36 0H90V90H35.9824L36 0Z" fill="#FF0000"/>
<path d="M-1.86265e-09 0H36V90H-0.0175781L-1.86265e-09 0Z" fill="#006600"/>
<path fill-rule="evenodd" clip-rule="evenodd" d="M51.6445 57.4102C45.5977 57.2344 17.8945 39.9375 17.7188 37.1777L19.2305 34.6289C21.9727 38.6191 50.3086 55.4414 53.0859 54.8438L51.6445 57.4102Z" fill="#FFFF00" stroke="black" stroke-width="0.0875" stroke-linecap="round" stroke-linejoin="round"/>
<path fill-rule="evenodd" clip-rule="evenodd" d="M18.914 34.2773C18.3691 35.7363 26.1386 40.5352 35.4902 46.2305C44.8418 51.9082 52.8925 55.4238 53.5078 54.9316L53.7715 54.4219C53.666 54.5977 53.3847 54.6504 52.9629 54.5273C50.4316 53.7891 43.8398 50.7656 35.6836 45.8262C27.5273 40.8867 20.4258 36.3164 19.3359 34.3828C19.2461 34.2031 19.2037 34.0034 19.2129 33.8027H19.1777L18.9492 34.207L18.914 34.2773ZM51.7851 57.4805C51.6797 57.6738 51.4863 57.6738 51.1347 57.6562C48.8672 57.3926 41.9941 54.0527 33.9082 49.2012C24.4511 43.541 16.6465 38.3906 17.5078 37.0547L17.7363 36.6328L17.7715 36.6504C17.0156 38.9355 33.1699 48.1641 34.1191 48.7617C43.4531 54.5625 51.3457 57.9375 52.0488 57.0586L51.7851 57.4805Z" fill="#FFFF00" stroke="black" stroke-width="0.0875" stroke-linecap="round" stroke-linejoin="round"/>
<path fill-rule="evenodd" clip-rule="evenodd" d="M36.0352 38.8477C42.0645 38.7949 49.5352 38.0215 53.8242 36.3164L52.9102 34.8047C50.3613 36.2109 42.873 37.1426 35.9824 37.2656C27.8262 37.1953 22.0781 36.4395 19.1953 34.5059L18.3164 36.1055C23.625 38.3379 29.0391 38.8301 36.0352 38.8477Z" fill="#FFFF00" stroke="black" stroke-width="0.0875" stroke-linecap="round" stroke-linejoin="round"/>
<path fill-rule="evenodd" clip-rule="evenodd" d="M54.0879 36.3516C53.9297 36.5801 51.1348 37.5469 47.0039 38.25C43.3615 38.7963 39.6831 39.0666 36 39.0586C32.4733 39.0745 28.9496 38.8513 25.4531 38.3906C21.1465 37.7051 18.8965 36.7559 18.0703 36.4219L18.2812 36.0176C20.6188 36.9389 23.0548 37.5877 25.541 37.9512C29.0086 38.4047 32.503 38.622 36 38.6016C39.6537 38.6038 43.3025 38.3335 46.916 37.793C51.1348 37.1074 53.4551 36.2285 53.7715 35.8242L54.0879 36.3516ZM53.2617 34.8047C52.8047 35.1563 50.5195 35.9824 46.5117 36.6152C43.0477 37.1125 39.5523 37.3592 36.0527 37.3535C32.6782 37.3791 29.3062 37.1618 25.9629 36.7031C21.8672 36.1758 19.7051 35.209 18.9316 34.9277L19.1602 34.5234C19.7578 34.8398 21.8672 35.6836 26.0156 36.2812C29.3436 36.7126 32.697 36.9181 36.0527 36.8965C39.5231 36.9013 42.9892 36.6545 46.4238 36.1582C50.4668 35.5957 52.6465 34.5762 52.9805 34.3125L53.2617 34.8047ZM16.1719 46.125C19.8984 48.1289 28.1426 49.1484 35.9648 49.2188C43.084 49.2188 52.3652 48.1113 55.8281 46.2656L55.7227 44.2617C54.6504 45.9668 44.7188 47.6016 35.8945 47.5312C27.0703 47.4609 18.8789 46.0898 16.1543 44.332V46.125" fill="#FFFF00"/>
<path d="M16.1719 46.125C19.8984 48.1289 28.1426 49.1484 35.9648 49.2188C43.084 49.2188 52.3652 48.1113 55.8281 46.2656L55.7227 44.2617C54.6504 45.9668 44.7187 47.6016 35.8945 47.5312C27.0703 47.4609 18.8789 46.0898 16.1543 44.332V46.125M54.0879 36.3516C53.9297 36.5801 51.1348 37.5469 47.0039 38.25C43.3615 38.7963 39.6831 39.0666 36 39.0586C32.4733 39.0745 28.9496 38.8513 25.4531 38.3906C21.1465 37.7051 18.8965 36.7559 18.0703 36.4219L18.2812 36.0176C20.6188 36.9389 23.0548 37.5877 25.541 37.9512C29.0086 38.4047 32.503 38.622 36 38.6016C39.6537 38.6038 43.3025 38.3335 46.916 37.793C51.1348 37.1074 53.4551 36.2285 53.7715 35.8242L54.0879 36.3516ZM53.2617 34.8047C52.8047 35.1563 50.5195 35.9824 46.5117 36.6152C43.0477 37.1125 39.5523 37.3592 36.0527 37.3535C32.6782 37.3791 29.3062 37.1618 25.9629 36.7031C21.8672 36.1758 19.7051 35.209 18.9316 34.9277L19.1602 34.5234C19.7578 34.8398 21.8672 35.6836 26.0156 36.2812C29.3436 36.7126 32.697 36.9181 36.0527 36.8965C39.5231 36.9013 42.9892 36.6545 46.4238 36.1582C50.4668 35.5957 52.6465 34.5762 52.9805 34.3125L53.2617 34.8047Z" stroke="black" stroke-width="0.0875" stroke-linecap="round" stroke-linejoin="round"/>
<path fill-rule="evenodd" clip-rule="evenodd" d="M56.0215 45.8437V46.3184C55.4941 46.9512 52.2246 47.9004 48.1289 48.5508C44.072 49.1402 39.9764 49.4223 35.877 49.3945C31.0605 49.3945 27.2285 49.043 24.2402 48.5859C21.373 48.2601 18.5706 47.5076 15.9258 46.3535V45.791C17.7539 47.0039 22.6582 47.8828 24.3105 48.1465C27.2637 48.6035 31.0781 48.9375 35.877 48.9375C40.9219 48.9375 44.9648 48.5859 48.0586 48.1113C51.0117 47.6895 55.1953 46.582 56.0215 45.8437ZM56.0215 44.1387V44.6309C55.4941 45.2461 52.2246 46.1953 48.1289 46.8457C44.072 47.4351 39.9764 47.7172 35.877 47.6895C31.0605 47.6895 27.2285 47.3379 24.2578 46.8984C21.3838 46.5682 18.5754 45.8098 15.9258 44.6484V44.0859C17.7539 45.2988 22.6582 46.1953 24.3105 46.4414C27.2813 46.8984 31.0957 47.25 35.877 47.25C40.9219 47.25 44.9648 46.8984 48.0586 46.4062C51.0117 45.9844 55.1953 44.877 56.0215 44.1387ZM35.9473 57.0586C27.4043 57.0059 20.0742 54.7383 18.5273 54.3516L19.6523 56.1094C22.377 57.2695 29.5312 58.9922 36.0352 58.7988C42.5391 58.6055 48.2168 58.0957 52.207 56.1621L53.3672 54.3164C50.6426 55.5996 41.3613 57.0586 35.9648 57.0586" fill="#FFFF00"/>
<path d="M35.9473 57.0586C27.4043 57.0059 20.0742 54.7383 18.5273 54.3516L19.6523 56.1094C22.377 57.2695 29.5313 58.9922 36.0352 58.7988C42.5391 58.6055 48.2168 58.0957 52.207 56.1621L53.3672 54.3164C50.6426 55.5996 41.3613 57.0586 35.9648 57.0586M56.0215 45.8437V46.3184C55.4941 46.9512 52.2246 47.9004 48.1289 48.5508C44.072 49.1402 39.9764 49.4223 35.877 49.3945C31.0605 49.3945 27.2285 49.043 24.2402 48.5859C21.373 48.2601 18.5706 47.5076 15.9258 46.3535V45.791C17.7539 47.0039 22.6582 47.8828 24.3105 48.1465C27.2637 48.6035 31.0781 48.9375 35.877 48.9375C40.9219 48.9375 44.9648 48.5859 48.0586 48.1113C51.0117 47.6895 55.1953 46.582 56.0215 45.8437ZM56.0215 44.1387V44.6309C55.4941 45.2461 52.2246 46.1953 48.1289 46.8457C44.072 47.4351 39.9764 47.7172 35.877 47.6895C31.0605 47.6895 27.2285 47.3379 24.2578 46.8984C21.3838 46.5682 18.5754 45.8098 15.9258 44.6484V44.0859C17.7539 45.2988 22.6582 46.1953 24.3105 46.4414C27.2813 46.8984 31.0957 47.25 35.877 47.25C40.9219 47.25 44.9648 46.8984 48.0586 46.4062C51.0117 45.9844 55.1953 44.877 56.0215 44.1387Z" stroke="black" stroke-width="0.0875" stroke-linecap="round" stroke-linejoin="round"/>
<path fill-rule="evenodd" clip-rule="evenodd" d="M52.6465 55.7402C52.4752 56.0011 52.2994 56.2589 52.1191 56.5137C50.1245 57.1753 48.0864 57.698 46.0195 58.0781C42.7028 58.6884 39.3372 58.9943 35.9648 58.9922C28.3887 58.8867 22.1836 57.4102 19.2656 56.1445L19.0195 55.7402L19.0723 55.6699L19.459 55.8281C24.796 57.5966 30.3777 58.516 36 58.5527C39.5156 58.5703 43.0312 58.1484 45.8613 57.6562C50.2207 56.7773 51.9785 56.127 52.5234 55.8281L52.6465 55.7402ZM53.6484 54.0879H53.666C53.5387 54.3115 53.4098 54.5341 53.2793 54.7559C52.2773 55.1074 49.5352 55.916 45.5449 56.4785C42.9082 56.8301 41.2734 57.1816 36.0527 57.2871C30.071 57.2226 24.1266 56.3354 18.3867 54.6504L18.1758 54.2109C24.0059 55.811 30.0089 56.6964 36.0527 56.8477C40.834 56.7422 42.8731 56.3906 45.4746 56.0215C50.1328 55.3184 52.4707 54.5449 53.1738 54.3164C53.1684 54.3045 53.1625 54.2927 53.1562 54.2812L53.6484 54.0879Z" fill="#FFFF00" stroke="black" stroke-width="0.075" stroke-linecap="round" stroke-linejoin="round"/>
<path fill-rule="evenodd" clip-rule="evenodd" d="M53.7539 44.543C53.7891 50.168 50.9062 55.2305 48.5859 57.4629C45.1776 60.7778 40.6309 62.6644 35.877 62.7363C30.1992 62.8418 24.8555 59.1328 23.4141 57.5156C20.6016 54.334 18.3164 50.3086 18.2461 44.8594C18.5977 38.707 21.0059 34.4355 24.5039 31.5C27.8888 28.7158 32.1447 27.2101 36.5273 27.2461C40.9922 27.3691 46.2305 29.5664 49.834 33.9258C52.1895 36.7734 53.2266 39.8672 53.7539 44.5605V44.543ZM35.9297 25.2773C46.8281 25.2773 55.793 34.1543 55.793 45.0176C55.7605 50.2643 53.6534 55.285 49.9318 58.9836C46.2102 62.6821 41.1765 64.7579 35.9297 64.7578C25.0312 64.7578 16.1367 55.8984 16.1367 45.0176C16.1367 34.1367 25.0312 25.2773 35.9297 25.2773Z" fill="#FFFF00" stroke="black" stroke-width="0.0875" stroke-linecap="round" stroke-linejoin="round"/>
<path fill-rule="evenodd" clip-rule="evenodd" d="M35.9824 25.207C46.8809 25.207 55.7754 34.1191 55.7754 45.0176C55.7754 55.916 46.8809 64.8281 35.9824 64.8281C30.7296 64.8142 25.6961 62.7201 21.9834 59.0041C18.2708 55.2882 16.1812 50.2529 16.1719 45C16.1858 39.7502 18.2774 34.7194 21.9896 31.0072C25.7018 27.295 30.7326 25.2034 35.9824 25.1895V25.207ZM16.6113 45.0176C16.6113 55.6699 25.3652 64.3887 35.9824 64.3887C46.5996 64.3887 55.3359 55.6699 55.3359 45.0176C55.3359 34.3652 46.5996 25.6641 35.9824 25.6641C30.8536 25.6826 25.9399 27.727 22.3116 31.352C18.6833 34.9769 16.6345 39.8888 16.6113 45.0176Z" fill="#FFFF00" stroke="black" stroke-width="0.0875" stroke-linecap="round" stroke-linejoin="round"/>
<path fill-rule="evenodd" clip-rule="evenodd" d="M36 26.8594C45.9316 26.8594 54.123 35.0332 54.123 45C54.123 54.9844 45.9316 63.1406 36 63.1406C31.1915 63.1267 26.5836 61.2116 23.1818 57.8131C19.7799 54.4146 17.8603 49.8085 17.8418 45C17.8418 35.0332 26.0332 26.8594 35.9824 26.8594H36ZM18.2812 45C18.2812 54.7383 26.2793 62.7012 36 62.7012C45.7031 62.7012 53.7012 54.7383 53.7012 45C53.7012 35.2617 45.7031 27.2988 35.9824 27.2988C26.2617 27.2988 18.2812 35.2617 18.2812 45Z" fill="#FFFF00" stroke="black" stroke-width="0.0875" stroke-linecap="round" stroke-linejoin="round"/>
<path fill-rule="evenodd" clip-rule="evenodd" d="M36.791 25.1367H35.0859V64.9336H36.791V25.1367Z" fill="#FFFF00" stroke="black" stroke-width="0.0875" stroke-linecap="round" stroke-linejoin="round"/>
<path fill-rule="evenodd" clip-rule="evenodd" d="M36.6152 24.9082H37.0547V65.1621H36.6152V24.9082ZM34.9277 24.9082H35.3672V65.1621H34.9277V24.9082Z" fill="#FFFF00" stroke="black" stroke-width="0.0875" stroke-linecap="round" stroke-linejoin="round"/>
<path fill-rule="evenodd" clip-rule="evenodd" d="M55.793 45.791V44.2969L54.5977 43.1895L47.7949 41.3789L37.9863 40.377L26.209 40.9746L17.7891 42.9785L16.1016 44.2441V45.7031L20.3906 43.7695L30.5859 42.1875H40.3945L47.6016 42.9785L52.5938 44.1914L55.793 45.791Z" fill="#FFFF00" stroke="black" stroke-width="0.0875" stroke-linecap="round" stroke-linejoin="round"/>
<path fill-rule="evenodd" clip-rule="evenodd" d="M35.9824 41.959C40.2801 41.9414 44.5701 42.3239 48.7969 43.1015C52.5059 43.8398 55.125 44.7715 56.0039 45.8086V46.3359C54.9492 45.0351 51.4336 44.0859 48.709 43.5234C45.1406 42.8379 40.623 42.3984 35.9824 42.3984C31.0605 42.3984 26.4902 42.873 22.9746 43.5586C20.1621 44.1211 16.4004 45.2285 15.9258 46.3359V45.8086C16.1895 45.0351 18.9844 43.8926 22.9219 43.1015C27.231 42.3198 31.603 41.9373 35.9824 41.959ZM35.9824 40.2539C40.2859 40.2373 44.5816 40.6198 48.8145 41.3965C52.5059 42.1348 55.1426 43.0664 56.0215 44.1211V44.6308C54.9492 43.3301 51.416 42.3808 48.709 41.8359C45.1406 41.1328 40.623 40.6933 35.9824 40.6933C31.6317 40.6799 27.289 41.0682 23.0098 41.8535C20.2852 42.3808 16.3652 43.541 15.9258 44.6308V44.1035C16.1895 43.3476 19.0547 42.1699 22.9219 41.414C27.2304 40.6264 31.6025 40.238 35.9824 40.2539ZM35.8945 31.5879C43.2598 31.5527 49.6934 32.625 52.6289 34.1367L53.7012 35.9824C51.1523 34.6113 44.209 33.1699 35.8945 33.3984C29.127 33.4336 21.9023 34.1367 18.2637 36.0703L19.5469 33.9258C22.5352 32.3789 29.5664 31.6055 35.8945 31.5879Z" fill="#FFFF00" stroke="black" stroke-width="0.0875" stroke-linecap="round" stroke-linejoin="round"/>
<path fill-rule="evenodd" clip-rule="evenodd" d="M35.9824 33.1172C40.2012 33.1172 44.2441 33.3457 47.4785 33.9258C50.4844 34.4883 53.3672 35.332 53.7715 35.7891L54.0879 36.3516C53.0859 35.7012 50.6074 34.9629 47.4082 34.3652C43.6306 33.7633 39.8069 33.4986 35.9824 33.5742C31.2363 33.5742 27.5449 33.8027 24.3809 34.3652C21.041 34.9805 18.7207 35.877 18.1406 36.2988L18.457 35.7188C19.5645 35.1387 21.3398 34.4531 24.3105 33.9258C27.5801 33.3281 31.2891 33.1524 35.9824 33.1172ZM35.9824 31.4297C39.695 31.3713 43.4057 31.63 47.0742 32.2031C49.5176 32.6777 51.9258 33.416 52.8223 34.0664L53.2793 34.8047C52.4883 33.9258 49.5176 33.0996 46.8809 32.6426C43.8223 32.1152 40.0078 31.9043 35.9824 31.8692C31.7637 31.8692 27.8613 32.1328 24.8379 32.6777C21.9551 33.2402 20.0918 33.8906 19.3008 34.4004L19.7051 33.7676C20.7949 33.2051 22.5527 32.6777 24.7676 32.2383C27.8086 31.6934 31.7461 31.4297 35.9824 31.4297ZM45.8262 53.2442C42.5761 52.6838 39.2797 52.4366 35.9824 52.5059C23.6953 52.6465 19.7402 55.0195 19.248 55.7402L18.334 54.2461C21.4453 51.9785 28.125 50.7129 36.0352 50.836C40.1309 50.9063 43.6641 51.1875 46.6523 51.75L45.8086 53.2442" fill="#FFFF00"/>
<path d="M45.8262 53.2442C42.5761 52.6838 39.2797 52.4366 35.9824 52.5059C23.6953 52.6465 19.7402 55.0195 19.248 55.7402L18.334 54.2461C21.4453 51.9785 28.125 50.7129 36.0352 50.836C40.1309 50.9063 43.6641 51.1875 46.6523 51.75L45.8086 53.2442M35.9824 33.1172C40.2012 33.1172 44.2441 33.3457 47.4785 33.9258C50.4844 34.4883 53.3672 35.332 53.7715 35.7891L54.0879 36.3516C53.0859 35.7012 50.6074 34.9629 47.4082 34.3652C43.6306 33.7633 39.8069 33.4986 35.9824 33.5742C31.2363 33.5742 27.5449 33.8027 24.3809 34.3652C21.041 34.9805 18.7207 35.877 18.1406 36.2988L18.457 35.7188C19.5645 35.1387 21.3398 34.4531 24.3105 33.9258C27.5801 33.3281 31.2891 33.1524 35.9824 33.1172ZM35.9824 31.4297C39.695 31.3713 43.4057 31.63 47.0742 32.2031C49.5176 32.6777 51.9258 33.416 52.8223 34.0664L53.2793 34.8047C52.4883 33.9258 49.5176 33.0996 46.8809 32.6426C43.8223 32.1152 40.0078 31.9043 35.9824 31.8692C31.7637 31.8692 27.8613 32.1328 24.8379 32.6777C21.9551 33.2402 20.0918 33.8906 19.3008 34.4004L19.7051 33.7676C20.7949 33.2051 22.5527 32.6777 24.7676 32.2383C27.8086 31.6934 31.7461 31.4297 35.9824 31.4297Z" stroke="black" stroke-width="0.0875" stroke-linecap="round" stroke-linejoin="round"/>
<path fill-rule="evenodd" clip-rule="evenodd" d="M35.9121 52.295C39.3223 52.3477 42.6797 52.4708 45.9316 53.086L45.6855 53.5079C42.4643 52.9517 39.1981 52.6986 35.9297 52.752C31.3945 52.7168 26.7891 53.1387 22.8164 54.2813C21.5508 54.6329 19.4766 55.4415 19.248 56.1094L19.0195 55.7227C19.0898 55.336 20.3555 54.5098 22.7109 53.8594C27.2812 52.5411 31.5527 52.3301 35.8945 52.2774L35.9121 52.295ZM36.0703 50.5723C39.6707 50.5689 43.2645 50.8806 46.8105 51.504L46.5645 51.9434C43.1086 51.3112 39.601 51.0052 36.0879 51.0293C31.5352 51.0293 26.7187 51.3633 22.3242 52.629C20.918 53.0508 18.457 53.9297 18.3867 54.6329L18.1582 54.2286C18.2109 53.5958 20.3203 52.752 22.2363 52.1895C26.7499 51.0089 31.4062 50.4646 36.0703 50.5723Z" fill="#FFFF00" stroke="black" stroke-width="0.075" stroke-linecap="round" stroke-linejoin="round"/>
<path fill-rule="evenodd" clip-rule="evenodd" d="M53.5078 54.4746L52.0312 56.7598L47.7949 52.998L36.791 45.6152L24.3984 38.7949L17.9473 36.5977L19.3184 34.0488L19.793 33.8027L23.8008 34.8047L36.9844 41.6074L44.5957 46.4062L50.9766 50.9766L53.5781 53.9824L53.5078 54.4746Z" fill="#FFFF00" stroke="black" stroke-width="0.0875" stroke-linecap="round" stroke-linejoin="round"/>
<path fill-rule="evenodd" clip-rule="evenodd" d="M17.7188 36.6504C18.8613 35.8945 27.1582 39.5859 35.8242 44.8242C44.4902 50.0801 52.7695 56.0039 52.0312 57.1289L51.7852 57.4981L51.6621 57.5859C51.6973 57.5859 51.8203 57.4102 51.6621 57.0059C51.2754 55.793 45.4219 51.1172 35.666 45.2285C26.1738 39.5684 18.2637 36.1582 17.4727 37.1426L17.7188 36.6504ZM53.8066 54.4395C54.5098 53.0332 46.8281 47.2324 37.2832 41.5899C27.5273 36.0527 20.4785 32.8008 19.1953 33.7676L18.9141 34.2949C18.9141 34.3125 18.9141 34.2598 18.9844 34.207C19.2129 34.0137 19.5996 34.0313 19.7754 34.0313C21.9902 34.0488 28.3184 36.9492 37.1777 42.0469C41.0625 44.2969 53.5957 52.3477 53.543 54.5977C53.543 54.791 53.5605 54.8262 53.4902 54.9316L53.8066 54.4395Z" fill="#FFFF00" stroke="black" stroke-width="0.0875" stroke-linecap="round" stroke-linejoin="round"/>
<path d="M24.1142 47.1923C24.1172 48.7448 24.428 50.2813 25.0288 51.7129C25.6296 53.1445 26.5083 54.4427 27.6142 55.5323C28.7066 56.6415 30.0077 57.5236 31.4425 58.1277C32.8773 58.7318 34.4174 59.0461 35.9742 59.0523C39.1249 59.0521 42.1465 57.8003 44.3742 55.5723C45.4762 54.4766 46.3509 53.1741 46.9481 51.7394C47.5453 50.3048 47.8532 48.7663 47.8542 47.2123V31.3723L24.1142 31.3323V47.1923Z" fill="white" stroke="black" stroke-width="0.0995558"/>
<path d="M24.5942 47.2123C24.5984 48.7016 24.8975 50.1753 25.4742 51.5483C26.0509 52.9214 26.8937 54.1667 27.9542 55.2123C30.0835 57.3528 32.975 58.5612 35.9942 58.5723C39.0081 58.574 41.8996 57.38 44.0342 55.2523C45.091 54.205 45.9302 52.959 46.5035 51.586C47.0767 50.213 47.3726 48.7402 47.3742 47.2523V31.8523H24.5942V47.2123ZM42.7942 36.4723V46.2523L42.7742 47.2723C42.781 48.1658 42.6073 49.0515 42.2636 49.8763C41.92 50.701 41.4134 51.448 40.7742 52.0723C39.5024 53.3486 37.776 54.0679 35.9742 54.0723C34.0942 54.0723 32.4342 53.2723 31.1942 52.0323C29.9179 50.7605 29.1986 49.0341 29.1942 47.2323V36.4323L42.7942 36.4723Z" fill="#FF0000" stroke="black" stroke-width="0.0711113"/>
<path d="M26.0342 35.8722C26.0542 34.7722 26.8342 34.5122 26.8342 34.5122C26.8542 34.5122 27.6942 34.7922 27.6942 35.8922L26.0342 35.8722Z" fill="#FFFF00"/>
<path d="M25.3542 34.5322L25.2142 35.7922H26.0542C26.0542 34.7522 26.8542 34.5922 26.8542 34.5922C26.8742 34.5922 27.6542 34.8122 27.6742 35.7922H28.5142L28.3542 34.5122L25.3542 34.5322ZM25.1542 35.8122H28.5542C28.6142 35.8122 28.6742 35.8722 28.6742 35.9522C28.6742 36.0522 28.6142 36.1122 28.5542 36.1122H25.1542C25.0942 36.1122 25.0342 36.0522 25.0342 35.9522C25.0342 35.8722 25.0942 35.8122 25.1742 35.8122H25.1542Z" fill="#FFFF00" stroke="black" stroke-width="0.0711113"/>
<path d="M26.3942 35.7922C26.3942 35.1322 26.8542 34.9522 26.8542 34.9522C26.8542 34.9522 27.3142 35.1522 27.3142 35.7922H26.3942ZM25.2342 33.9922H28.4942C28.5542 33.9922 28.6142 34.0722 28.6142 34.1522C28.6142 34.2122 28.5542 34.2722 28.4942 34.2722H25.2342C25.1742 34.2722 25.1142 34.2122 25.1142 34.1322C25.1142 34.0722 25.1742 34.0122 25.2342 34.0122V33.9922ZM25.3142 34.2922H28.3942C28.4542 34.2922 28.5142 34.3522 28.5142 34.4322C28.5142 34.5122 28.4542 34.5722 28.3942 34.5722H25.2942C25.2142 34.5722 25.1742 34.5122 25.1742 34.4322C25.1742 34.3522 25.2142 34.2922 25.2942 34.2922H25.3142ZM26.3142 32.1722H26.5542V32.3322H26.7342V32.1722H26.9942V32.3522H27.1742V32.1522H27.4142V32.5522C27.4142 32.6322 27.3742 32.6722 27.3142 32.6722H26.4342C26.3742 32.6722 26.3142 32.6322 26.3142 32.5722V32.1722ZM27.2342 32.7122L27.2942 33.9922H26.4342L26.4942 32.6922H27.2342" fill="#FFFF00"/>
<path d="M27.2342 32.7122L27.2942 33.9922H26.4342L26.4942 32.6922H27.2342M26.3942 35.7922C26.3942 35.1322 26.8542 34.9522 26.8542 34.9522C26.8542 34.9522 27.3142 35.1522 27.3142 35.7922H26.3942ZM25.2342 33.9922H28.4942C28.5542 33.9922 28.6142 34.0722 28.6142 34.1522C28.6142 34.2122 28.5542 34.2722 28.4942 34.2722H25.2342C25.1742 34.2722 25.1142 34.2122 25.1142 34.1322C25.1142 34.0722 25.1742 34.0122 25.2342 34.0122V33.9922ZM25.3142 34.2922H28.3942C28.4542 34.2922 28.5142 34.3522 28.5142 34.4322C28.5142 34.5122 28.4542 34.5722 28.3942 34.5722H25.2942C25.2142 34.5722 25.1742 34.5122 25.1742 34.4322C25.1742 34.3522 25.2142 34.2922 25.2942 34.2922H25.3142ZM26.3142 32.1722H26.5542V32.3322H26.7342V32.1722H26.9942V32.3522H27.1742V32.1522H27.4142V32.5522C27.4142 32.6322 27.3742 32.6722 27.3142 32.6722H26.4342C26.3742 32.6722 26.3142 32.6322 26.3142 32.5722V32.1722Z" stroke="black" stroke-width="0.0711113"/>
<path d="M26.1942 33.3123V33.9923H25.3942V33.3123H26.1942Z" fill="#FFFF00" stroke="black" stroke-width="0.0711113"/>
<path d="M28.3142 33.3123V33.9923H27.5142V33.3123H28.3142Z" fill="#FFFF00" stroke="black" stroke-width="0.0711113"/>
<path d="M25.2542 32.7922H25.4942V32.9922H25.6741V32.7922H25.9142V32.9922H26.0942V32.7922H26.3342V33.1922C26.3342 33.2722 26.2942 33.3122 26.2342 33.3122H25.3741C25.3423 33.3122 25.3118 33.2996 25.2893 33.2771C25.2668 33.2546 25.2542 33.2241 25.2542 33.1922V32.7922Z" fill="#FFFF00" stroke="black" stroke-width="0.0711113"/>
<path d="M27.3742 32.7922H27.6142V32.9922H27.7942V32.7922H28.0342V32.9922H28.2142V32.7922H28.4542V33.1922C28.4542 33.2722 28.4142 33.3122 28.3542 33.3122H27.4942C27.4624 33.3122 27.4319 33.2996 27.4094 33.2771C27.3868 33.2546 27.3742 33.2241 27.3742 33.1922V32.7922Z" fill="#FFFF00" stroke="black" stroke-width="0.0711113"/>
<path d="M26.7742 33.1122C26.7742 32.9922 26.9542 32.9922 26.9542 33.1122V33.4322H26.7742V33.1122Z" fill="#000001"/>
<path d="M25.7142 33.5523C25.7142 33.4323 25.8742 33.4323 25.8742 33.5523V33.7923H25.7142V33.5523Z" fill="#000001"/>
<path d="M27.8342 33.5523C27.8342 33.4323 27.9942 33.4323 27.9942 33.5523V33.7923H27.8342V33.5523Z" fill="#000001"/>
<path d="M26.0342 45.1322C26.0542 44.0322 26.8342 43.7722 26.8342 43.7722C26.8542 43.7722 27.6942 44.0522 27.6942 45.1522L26.0342 45.1322Z" fill="#FFFF00"/>
<path d="M25.3542 43.7922L25.2142 45.0522H26.0542C26.0542 44.0122 26.8542 43.8522 26.8542 43.8522C26.8742 43.8522 27.6542 44.0722 27.6742 45.0522H28.5142L28.3542 43.7722L25.3542 43.7922ZM25.1542 45.0722H28.5542C28.6142 45.0722 28.6742 45.1322 28.6742 45.2122C28.6742 45.3122 28.6142 45.3722 28.5542 45.3722H25.1542C25.0942 45.3722 25.0342 45.3122 25.0342 45.2122C25.0342 45.1322 25.0942 45.0722 25.1742 45.0722H25.1542Z" fill="#FFFF00" stroke="black" stroke-width="0.0711113"/>
<path d="M26.3942 45.0522C26.3942 44.3922 26.8542 44.2122 26.8542 44.2122C26.8542 44.2122 27.3142 44.4122 27.3142 45.0522H26.3942ZM25.2342 43.2522H28.4942C28.5542 43.2522 28.6142 43.3322 28.6142 43.4122C28.6142 43.4722 28.5542 43.5322 28.4942 43.5322H25.2342C25.1742 43.5322 25.1142 43.4722 25.1142 43.3922C25.1142 43.3322 25.1742 43.2722 25.2342 43.2722V43.2522ZM25.3142 43.5522H28.3942C28.4542 43.5522 28.5142 43.6122 28.5142 43.6922C28.5142 43.7722 28.4542 43.8322 28.3942 43.8322H25.2942C25.2142 43.8322 25.1742 43.7722 25.1742 43.6922C25.1742 43.6122 25.2142 43.5522 25.2942 43.5522H25.3142ZM26.3142 41.4322H26.5542V41.5922H26.7342V41.4322H26.9942V41.6122H27.1742V41.4122H27.4142V41.8122C27.4142 41.8922 27.3742 41.9322 27.3142 41.9322H26.4342C26.3742 41.9322 26.3142 41.8922 26.3142 41.8322V41.4322ZM27.2342 41.9722L27.2942 43.2522H26.4342L26.4942 41.9522H27.2342" fill="#FFFF00"/>
<path d="M27.2342 41.9722L27.2942 43.2522H26.4342L26.4942 41.9522H27.2342M26.3942 45.0522C26.3942 44.3922 26.8542 44.2122 26.8542 44.2122C26.8542 44.2122 27.3142 44.4122 27.3142 45.0522H26.3942ZM25.2342 43.2522H28.4942C28.5542 43.2522 28.6142 43.3322 28.6142 43.4122C28.6142 43.4722 28.5542 43.5322 28.4942 43.5322H25.2342C25.1742 43.5322 25.1142 43.4722 25.1142 43.3922C25.1142 43.3322 25.1742 43.2722 25.2342 43.2722V43.2522ZM25.3142 43.5522H28.3942C28.4542 43.5522 28.5142 43.6122 28.5142 43.6922C28.5142 43.7722 28.4542 43.8322 28.3942 43.8322H25.2942C25.2142 43.8322 25.1742 43.7722 25.1742 43.6922C25.1742 43.6122 25.2142 43.5522 25.2942 43.5522H25.3142ZM26.3142 41.4322H26.5542V41.5922H26.7342V41.4322H26.9942V41.6122H27.1742V41.4122H27.4142V41.8122C27.4142 41.8922 27.3742 41.9322 27.3142 41.9322H26.4342C26.3742 41.9322 26.3142 41.8922 26.3142 41.8322V41.4322Z" stroke="black" stroke-width="0.0711113"/>
<path d="M26.1942 42.5723V43.2523H25.3942V42.5723H26.1942Z" fill="#FFFF00" stroke="black" stroke-width="0.0711113"/>
<path d="M28.3142 42.5723V43.2523H27.5142V42.5723H28.3142Z" fill="#FFFF00" stroke="black" stroke-width="0.0711113"/>
<path d="M25.2542 42.0522H25.4942V42.2522H25.6741V42.0522H25.9142V42.2522H26.0942V42.0522H26.3342V42.4522C26.3342 42.5322 26.2942 42.5722 26.2342 42.5722H25.3741C25.3423 42.5722 25.3118 42.5596 25.2893 42.5371C25.2668 42.5146 25.2542 42.4841 25.2542 42.4522V42.0522Z" fill="#FFFF00" stroke="black" stroke-width="0.0711113"/>
<path d="M27.3742 42.0522H27.6142V42.2522H27.7942V42.0522H28.0342V42.2522H28.2142V42.0522H28.4542V42.4522C28.4542 42.5322 28.4142 42.5722 28.3542 42.5722H27.4942C27.4624 42.5722 27.4319 42.5596 27.4094 42.5371C27.3868 42.5146 27.3742 42.4841 27.3742 42.4522V42.0522Z" fill="#FFFF00" stroke="black" stroke-width="0.0711113"/>
<path d="M26.7742 42.3722C26.7742 42.2522 26.9542 42.2522 26.9542 42.3722V42.6922H26.7742V42.3722Z" fill="#000001"/>
<path d="M25.7142 42.8123C25.7142 42.6923 25.8742 42.6923 25.8742 42.8123V43.0523H25.7142V42.8123Z" fill="#000001"/>
<path d="M27.8342 42.8123C27.8342 42.6923 27.9942 42.6923 27.9942 42.8123V43.0523H27.8342V42.8123Z" fill="#000001"/>
<path d="M29.6435 54.7833C28.8771 53.994 29.2422 53.2573 29.2422 53.2573C29.2563 53.2431 30.0469 52.8444 30.8274 53.6195L29.6435 54.7833Z" fill="#FFFF00"/>
<path d="M28.2136 54.3216L29.009 55.3088L29.6009 54.7127C28.863 53.9799 29.3131 53.2995 29.3131 53.2995C29.3272 53.2853 30.033 52.8869 30.7424 53.5632L31.3343 52.9672L30.3133 52.1788L28.2136 54.3216ZM28.9809 55.3654L31.3767 52.9529C31.419 52.9103 31.5038 52.91 31.5606 52.9664C31.6316 53.0368 31.6318 53.1217 31.5896 53.1643L29.1938 55.5768C29.1515 55.6194 29.0667 55.6197 28.9957 55.5492C28.939 55.4928 28.9387 55.408 28.995 55.3512L28.9809 55.3654Z" fill="#FFFF00" stroke="black" stroke-width="0.0711113"/>
<path d="M29.8405 54.4714C29.3722 54.0064 29.5686 53.5531 29.5686 53.5531C29.5686 53.5531 30.0346 53.3677 30.4888 53.8186L29.8405 54.4714ZM27.7459 54.0262L30.043 51.713C30.0853 51.6704 30.1843 51.6842 30.2411 51.7406C30.2837 51.7829 30.2839 51.8677 30.2417 51.9103L27.9446 54.2235C27.9023 54.2661 27.8174 54.2664 27.7607 54.21C27.7181 54.1677 27.7178 54.0829 27.7601 54.0403L27.7459 54.0262ZM28.0151 54.1808L30.1854 51.9953C30.2277 51.9528 30.3125 51.9525 30.3693 52.0088C30.4261 52.0652 30.4264 52.1501 30.3841 52.1926L28.1997 54.3923C28.1433 54.4491 28.0726 54.4352 28.0158 54.3788C27.959 54.3224 27.9447 54.2518 28.001 54.195L28.0151 54.1808ZM27.2155 51.9774L27.3846 51.8071L27.4981 51.9199L27.6249 51.7921L27.5114 51.6794L27.6946 51.4949L27.8223 51.6218L27.9492 51.494L27.8073 51.3531L27.9764 51.1828L28.2602 51.4647C28.317 51.521 28.3172 51.5776 28.2749 51.6202L27.6548 52.2446C27.6125 52.2872 27.5419 52.3016 27.4993 52.2593L27.2155 51.9774ZM28.2469 51.7051L29.1974 52.5645L28.5914 53.1747L27.7113 52.2161L28.2327 51.691" fill="#FFFF00"/>
<path d="M28.2469 51.7051L29.1974 52.5645L28.5914 53.1747L27.7113 52.2161L28.2327 51.691M29.8405 54.4714C29.3722 54.0064 29.5686 53.5531 29.5686 53.5531C29.5686 53.5531 30.0346 53.3677 30.4888 53.8186L29.8405 54.4714ZM27.7459 54.0262L30.043 51.713C30.0853 51.6704 30.1843 51.6842 30.2411 51.7406C30.2837 51.7829 30.2839 51.8677 30.2417 51.9103L27.9446 54.2235C27.9023 54.2661 27.8174 54.2664 27.7607 54.21C27.7181 54.1677 27.7178 54.0829 27.7601 54.0403L27.7459 54.0262ZM28.0151 54.1808L30.1854 51.9953C30.2277 51.9528 30.3125 51.9525 30.3693 52.0088C30.4261 52.0652 30.4264 52.1501 30.3841 52.1926L28.1997 54.3923C28.1433 54.4491 28.0726 54.4352 28.0158 54.3788C27.959 54.3224 27.9447 54.2518 28.001 54.195L28.0151 54.1808ZM27.2155 51.9774L27.3846 51.8071L27.4981 51.9199L27.6249 51.7921L27.5114 51.6794L27.6946 51.4949L27.8223 51.6218L27.9492 51.494L27.8073 51.3531L27.9764 51.1828L28.2602 51.4647C28.317 51.521 28.3172 51.5776 28.2749 51.6202L27.6548 52.2446C27.6125 52.2872 27.5419 52.3016 27.4993 52.2593L27.2155 51.9774Z" stroke="black" stroke-width="0.0711113"/>
<path d="M27.9398 52.8658L28.4223 53.345L27.8586 53.9126L27.3761 53.4335L27.9398 52.8658Z" fill="#FFFF00" stroke="black" stroke-width="0.0711113"/>
<path d="M29.4336 51.3615L29.9162 51.8407L29.3524 52.4084L28.8699 51.9292L29.4336 51.3615Z" fill="#FFFF00" stroke="black" stroke-width="0.0711113"/>
<path d="M26.9084 53.1665L27.0776 52.9962L27.2195 53.1371L27.3463 53.0094L27.2044 52.8685L27.3735 52.6982L27.5154 52.8391L27.6423 52.7114L27.5003 52.5705L27.6695 52.4002L27.9533 52.682C28.01 52.7384 28.0102 52.795 27.968 52.8375L27.362 53.4478C27.3396 53.4704 27.3091 53.4831 27.2773 53.4832C27.2454 53.4833 27.2149 53.4708 27.1923 53.4484L26.9084 53.1665Z" fill="#FFFF00" stroke="black" stroke-width="0.0711113"/>
<path d="M28.4023 51.6621L28.5714 51.4918L28.7133 51.6327L28.8401 51.505L28.6982 51.3641L28.8673 51.1938L29.0093 51.3347L29.1361 51.207L28.9942 51.0661L29.1633 50.8958L29.4471 51.1776C29.5039 51.234 29.5041 51.2906 29.4618 51.3331L28.8558 51.9434C28.8334 51.966 28.8029 51.9787 28.7711 51.9788C28.7393 51.9789 28.7087 51.9664 28.6861 51.944L28.4023 51.6621Z" fill="#FFFF00" stroke="black" stroke-width="0.0711113"/>
<path d="M28.2066 52.3134C28.1214 52.2289 28.2482 52.1011 28.3334 52.1857L28.5605 52.4112L28.4336 52.5389L28.2066 52.3134Z" fill="#000001"/>
<path d="M27.7719 53.3756C27.6867 53.291 27.7995 53.1775 27.8846 53.262L28.0549 53.4311L27.9422 53.5447L27.7719 53.3756Z" fill="#000001"/>
<path d="M29.2657 51.8713C29.1806 51.7867 29.2933 51.6732 29.3784 51.7577L29.5487 51.9269L29.436 52.0404L29.2657 51.8713Z" fill="#000001"/>
<path d="M35.1742 35.8722C35.1942 34.7722 35.9742 34.5122 35.9742 34.5122C35.9942 34.5122 36.8342 34.7922 36.8342 35.8922L35.1742 35.8722Z" fill="#FFFF00"/>
<path d="M34.4942 34.5322L34.3542 35.7922H35.1942C35.1942 34.7522 35.9942 34.5922 35.9942 34.5922C36.0142 34.5922 36.7942 34.8122 36.8142 35.7922H37.6542L37.4942 34.5122L34.4942 34.5322ZM34.2942 35.8122H37.6942C37.7542 35.8122 37.8142 35.8722 37.8142 35.9522C37.8142 36.0522 37.7542 36.1122 37.6942 36.1122H34.2942C34.2342 36.1122 34.1742 36.0522 34.1742 35.9522C34.1742 35.8722 34.2342 35.8122 34.3142 35.8122H34.2942Z" fill="#FFFF00" stroke="black" stroke-width="0.0711113"/>
<path d="M35.5342 35.7922C35.5342 35.1322 35.9942 34.9522 35.9942 34.9522C35.9942 34.9522 36.4542 35.1522 36.4542 35.7922H35.5342ZM34.3742 33.9922H37.6342C37.6942 33.9922 37.7542 34.0722 37.7542 34.1522C37.7542 34.2122 37.6942 34.2722 37.6342 34.2722H34.3742C34.3142 34.2722 34.2542 34.2122 34.2542 34.1322C34.2542 34.0722 34.3142 34.0122 34.3742 34.0122V33.9922ZM34.4542 34.2922H37.5342C37.5942 34.2922 37.6542 34.3522 37.6542 34.4322C37.6542 34.5122 37.5942 34.5722 37.5342 34.5722H34.4342C34.3542 34.5722 34.3142 34.5122 34.3142 34.4322C34.3142 34.3522 34.3542 34.2922 34.4342 34.2922H34.4542ZM35.4542 32.1722H35.6942V32.3322H35.8742V32.1722H36.1342V32.3522H36.3142V32.1522H36.5542V32.5522C36.5542 32.6322 36.5142 32.6722 36.4542 32.6722H35.5742C35.5142 32.6722 35.4542 32.6322 35.4542 32.5722V32.1722ZM36.3742 32.7122L36.4342 33.9922H35.5742L35.6342 32.6922H36.3742" fill="#FFFF00"/>
<path d="M36.3742 32.7122L36.4342 33.9922H35.5742L35.6342 32.6922H36.3742M35.5342 35.7922C35.5342 35.1322 35.9942 34.9522 35.9942 34.9522C35.9942 34.9522 36.4542 35.1522 36.4542 35.7922H35.5342ZM34.3742 33.9922H37.6342C37.6942 33.9922 37.7542 34.0722 37.7542 34.1522C37.7542 34.2122 37.6942 34.2722 37.6342 34.2722H34.3742C34.3142 34.2722 34.2542 34.2122 34.2542 34.1322C34.2542 34.0722 34.3142 34.0122 34.3742 34.0122V33.9922ZM34.4542 34.2922H37.5342C37.5942 34.2922 37.6542 34.3522 37.6542 34.4322C37.6542 34.5122 37.5942 34.5722 37.5342 34.5722H34.4342C34.3542 34.5722 34.3142 34.5122 34.3142 34.4322C34.3142 34.3522 34.3542 34.2922 34.4342 34.2922H34.4542ZM35.4542 32.1722H35.6942V32.3322H35.8742V32.1722H36.1342V32.3522H36.3142V32.1522H36.5542V32.5522C36.5542 32.6322 36.5142 32.6722 36.4542 32.6722H35.5742C35.5142 32.6722 35.4542 32.6322 35.4542 32.5722V32.1722Z" stroke="black" stroke-width="0.0711113"/>
<path d="M35.3342 33.3123V33.9923H34.5342V33.3123H35.3342Z" fill="#FFFF00" stroke="black" stroke-width="0.0711113"/>
<path d="M37.4542 33.3123V33.9923H36.6542V33.3123H37.4542Z" fill="#FFFF00" stroke="black" stroke-width="0.0711113"/>
<path d="M34.3942 32.7922H34.6342V32.9922H34.8142V32.7922H35.0542V32.9922H35.2342V32.7922H35.4742V33.1922C35.4742 33.2722 35.4342 33.3122 35.3742 33.3122H34.5142C34.4824 33.3122 34.4519 33.2996 34.4294 33.2771C34.4069 33.2546 34.3942 33.2241 34.3942 33.1922V32.7922Z" fill="#FFFF00" stroke="black" stroke-width="0.0711113"/>
<path d="M36.5142 32.7922H36.7542V32.9922H36.9342V32.7922H37.1742V32.9922H37.3542V32.7922H37.5942V33.1922C37.5942 33.2722 37.5542 33.3122 37.4942 33.3122H36.6342C36.6024 33.3122 36.5719 33.2996 36.5494 33.2771C36.5269 33.2546 36.5142 33.2241 36.5142 33.1922V32.7922Z" fill="#FFFF00" stroke="black" stroke-width="0.0711113"/>
<path d="M35.9142 33.1122C35.9142 32.9922 36.0942 32.9922 36.0942 33.1122V33.4322H35.9142V33.1122Z" fill="#000001"/>
<path d="M34.8542 33.5523C34.8542 33.4323 35.0142 33.4323 35.0142 33.5523V33.7923H34.8542V33.5523Z" fill="#000001"/>
<path d="M36.9742 33.5523C36.9742 33.4323 37.1342 33.4323 37.1342 33.5523V33.7923H36.9742V33.5523Z" fill="#000001"/>
<path d="M45.9142 35.8722C45.8942 34.7722 45.1142 34.5122 45.1142 34.5122C45.0942 34.5122 44.2542 34.7922 44.2542 35.8922L45.9142 35.8722Z" fill="#FFFF00"/>
<path d="M46.5942 34.5322L46.7342 35.7922H45.8942C45.8942 34.7522 45.0942 34.5922 45.0942 34.5922C45.0742 34.5922 44.2942 34.8122 44.2742 35.7922H43.4342L43.5942 34.5122L46.5942 34.5322ZM46.7942 35.8122H43.3942C43.3342 35.8122 43.2742 35.8722 43.2742 35.9522C43.2742 36.0522 43.3342 36.1122 43.3942 36.1122H46.7942C46.8542 36.1122 46.9142 36.0522 46.9142 35.9522C46.9142 35.8722 46.8542 35.8122 46.7742 35.8122H46.7942Z" fill="#FFFF00" stroke="black" stroke-width="0.0711113"/>
<path d="M45.5542 35.7922C45.5542 35.1322 45.0942 34.9522 45.0942 34.9522C45.0942 34.9522 44.6342 35.1522 44.6342 35.7922H45.5542ZM46.7142 33.9922H43.4542C43.3942 33.9922 43.3342 34.0722 43.3342 34.1522C43.3342 34.2122 43.3942 34.2722 43.4542 34.2722H46.7142C46.7742 34.2722 46.8342 34.2122 46.8342 34.1322C46.8342 34.0722 46.7742 34.0122 46.7142 34.0122V33.9922ZM46.6342 34.2922H43.5542C43.4942 34.2922 43.4342 34.3522 43.4342 34.4322C43.4342 34.5122 43.4942 34.5722 43.5542 34.5722H46.6542C46.7342 34.5722 46.7742 34.5122 46.7742 34.4322C46.7742 34.3522 46.7342 34.2922 46.6542 34.2922H46.6342ZM45.6342 32.1722H45.3942V32.3322H45.2142V32.1722H44.9542V32.3522H44.7742V32.1522H44.5342V32.5522C44.5342 32.6322 44.5742 32.6722 44.6342 32.6722H45.5142C45.5742 32.6722 45.6342 32.6322 45.6342 32.5722V32.1722ZM44.7142 32.7122L44.6542 33.9922H45.5142L45.4542 32.6922H44.7142" fill="#FFFF00"/>
<path d="M44.7142 32.7122L44.6542 33.9922H45.5142L45.4542 32.6922H44.7142M45.5542 35.7922C45.5542 35.1322 45.0942 34.9522 45.0942 34.9522C45.0942 34.9522 44.6342 35.1522 44.6342 35.7922H45.5542ZM46.7142 33.9922H43.4542C43.3942 33.9922 43.3342 34.0722 43.3342 34.1522C43.3342 34.2122 43.3942 34.2722 43.4542 34.2722H46.7142C46.7742 34.2722 46.8342 34.2122 46.8342 34.1322C46.8342 34.0722 46.7742 34.0122 46.7142 34.0122V33.9922ZM46.6342 34.2922H43.5542C43.4942 34.2922 43.4342 34.3522 43.4342 34.4322C43.4342 34.5122 43.4942 34.5722 43.5542 34.5722H46.6542C46.7342 34.5722 46.7742 34.5122 46.7742 34.4322C46.7742 34.3522 46.7342 34.2922 46.6542 34.2922H46.6342ZM45.6342 32.1722H45.3942V32.3322H45.2142V32.1722H44.9542V32.3522H44.7742V32.1522H44.5342V32.5522C44.5342 32.6322 44.5742 32.6722 44.6342 32.6722H45.5142C45.5742 32.6722 45.6342 32.6322 45.6342 32.5722V32.1722Z" stroke="black" stroke-width="0.0711113"/>
<path d="M45.7543 33.3123V33.9923H46.5543V33.3123H45.7543Z" fill="#FFFF00" stroke="black" stroke-width="0.0711113"/>
<path d="M43.6343 33.3123V33.9923H44.4343V33.3123H43.6343Z" fill="#FFFF00" stroke="black" stroke-width="0.0711113"/>
<path d="M46.6943 32.7922H46.4543V32.9922H46.2743V32.7922H46.0343V32.9922H45.8543V32.7922H45.6143V33.1922C45.6143 33.2722 45.6543 33.3122 45.7143 33.3122H46.5743C46.6061 33.3122 46.6366 33.2996 46.6591 33.2771C46.6816 33.2546 46.6943 33.2241 46.6943 33.1922V32.7922Z" fill="#FFFF00" stroke="black" stroke-width="0.0711113"/>
<path d="M44.5742 32.7922H44.3342V32.9922H44.1542V32.7922H43.9142V32.9922H43.7342V32.7922H43.4942V33.1922C43.4942 33.2722 43.5342 33.3122 43.5942 33.3122H44.4542C44.486 33.3122 44.5166 33.2996 44.5391 33.2771C44.5616 33.2546 44.5742 33.2241 44.5742 33.1922V32.7922Z" fill="#FFFF00" stroke="black" stroke-width="0.0711113"/>
<path d="M45.1743 33.1122C45.1743 32.9922 44.9943 32.9922 44.9943 33.1122V33.4322H45.1743V33.1122Z" fill="#000001"/>
<path d="M46.2343 33.5523C46.2343 33.4323 46.0743 33.4323 46.0743 33.5523V33.7923H46.2343V33.5523Z" fill="#000001"/>
<path d="M44.1143 33.5523C44.1143 33.4323 43.9543 33.4323 43.9543 33.5523V33.7923H44.1143V33.5523Z" fill="#000001"/>
<path d="M45.9142 45.1322C45.8942 44.0322 45.1142 43.7722 45.1142 43.7722C45.0942 43.7722 44.2542 44.0522 44.2542 45.1522L45.9142 45.1322Z" fill="#FFFF00"/>
<path d="M46.5942 43.7922L46.7342 45.0522H45.8942C45.8942 44.0122 45.0942 43.8522 45.0942 43.8522C45.0742 43.8522 44.2942 44.0722 44.2742 45.0522H43.4342L43.5942 43.7722L46.5942 43.7922ZM46.7942 45.0722H43.3942C43.3342 45.0722 43.2742 45.1322 43.2742 45.2122C43.2742 45.3122 43.3342 45.3722 43.3942 45.3722H46.7942C46.8542 45.3722 46.9142 45.3122 46.9142 45.2122C46.9142 45.1322 46.8542 45.0722 46.7742 45.0722H46.7942Z" fill="#FFFF00" stroke="black" stroke-width="0.0711113"/>
<path d="M45.5542 45.0522C45.5542 44.3922 45.0942 44.2122 45.0942 44.2122C45.0942 44.2122 44.6342 44.4122 44.6342 45.0522H45.5542ZM46.7142 43.2522H43.4542C43.3942 43.2522 43.3342 43.3322 43.3342 43.4122C43.3342 43.4722 43.3942 43.5322 43.4542 43.5322H46.7142C46.7742 43.5322 46.8342 43.4722 46.8342 43.3922C46.8342 43.3322 46.7742 43.2722 46.7142 43.2722V43.2522ZM46.6342 43.5522H43.5542C43.4942 43.5522 43.4342 43.6122 43.4342 43.6922C43.4342 43.7722 43.4942 43.8322 43.5542 43.8322H46.6542C46.7342 43.8322 46.7742 43.7722 46.7742 43.6922C46.7742 43.6122 46.7342 43.5522 46.6542 43.5522H46.6342ZM45.6342 41.4322H45.3942V41.5922H45.2142V41.4322H44.9542V41.6122H44.7742V41.4122H44.5342V41.8122C44.5342 41.8922 44.5742 41.9322 44.6342 41.9322H45.5142C45.5742 41.9322 45.6342 41.8922 45.6342 41.8322V41.4322ZM44.7142 41.9722L44.6542 43.2522H45.5142L45.4542 41.9522H44.7142" fill="#FFFF00"/>
<path d="M44.7142 41.9722L44.6542 43.2522H45.5142L45.4542 41.9522H44.7142M45.5542 45.0522C45.5542 44.3922 45.0942 44.2122 45.0942 44.2122C45.0942 44.2122 44.6342 44.4122 44.6342 45.0522H45.5542ZM46.7142 43.2522H43.4542C43.3942 43.2522 43.3342 43.3322 43.3342 43.4122C43.3342 43.4722 43.3942 43.5322 43.4542 43.5322H46.7142C46.7742 43.5322 46.8342 43.4722 46.8342 43.3922C46.8342 43.3322 46.7742 43.2722 46.7142 43.2722V43.2522ZM46.6342 43.5522H43.5542C43.4942 43.5522 43.4342 43.6122 43.4342 43.6922C43.4342 43.7722 43.4942 43.8322 43.5542 43.8322H46.6542C46.7342 43.8322 46.7742 43.7722 46.7742 43.6922C46.7742 43.6122 46.7342 43.5522 46.6542 43.5522H46.6342ZM45.6342 41.4322H45.3942V41.5922H45.2142V41.4322H44.9542V41.6122H44.7742V41.4122H44.5342V41.8122C44.5342 41.8922 44.5742 41.9322 44.6342 41.9322H45.5142C45.5742 41.9322 45.6342 41.8922 45.6342 41.8322V41.4322Z" stroke="black" stroke-width="0.0711113"/>
<path d="M45.7543 42.5723V43.2523H46.5543V42.5723H45.7543Z" fill="#FFFF00" stroke="black" stroke-width="0.0711113"/>
<path d="M43.6343 42.5723V43.2523H44.4343V42.5723H43.6343Z" fill="#FFFF00" stroke="black" stroke-width="0.0711113"/>
<path d="M46.6943 42.0522H46.4543V42.2522H46.2743V42.0522H46.0343V42.2522H45.8543V42.0522H45.6143V42.4522C45.6143 42.5322 45.6543 42.5722 45.7143 42.5722H46.5743C46.6061 42.5722 46.6366 42.5596 46.6591 42.5371C46.6816 42.5146 46.6943 42.4841 46.6943 42.4522V42.0522Z" fill="#FFFF00" stroke="black" stroke-width="0.0711113"/>
<path d="M44.5742 42.0522H44.3342V42.2522H44.1542V42.0522H43.9142V42.2522H43.7342V42.0522H43.4942V42.4522C43.4942 42.5322 43.5342 42.5722 43.5942 42.5722H44.4542C44.486 42.5722 44.5166 42.5596 44.5391 42.5371C44.5616 42.5146 44.5742 42.4841 44.5742 42.4522V42.0522Z" fill="#FFFF00" stroke="black" stroke-width="0.0711113"/>
<path d="M45.1743 42.3722C45.1743 42.2522 44.9943 42.2522 44.9943 42.3722V42.6922H45.1743V42.3722Z" fill="#000001"/>
<path d="M46.2343 42.8123C46.2343 42.6923 46.0743 42.6923 46.0743 42.8123V43.0523H46.2343V42.8123Z" fill="#000001"/>
<path d="M44.1143 42.8123C44.1143 42.6923 43.9543 42.6923 43.9543 42.8123V43.0523H44.1143V42.8123Z" fill="#000001"/>
<path d="M42.3049 54.7833C43.0713 53.994 42.7062 53.2573 42.7062 53.2573C42.6921 53.2431 41.9015 52.8444 41.121 53.6195L42.3049 54.7833Z" fill="#FFFF00"/>
<path d="M43.7349 54.3216L42.9395 55.3088L42.3476 54.7127C43.0855 53.9799 42.6353 53.2995 42.6353 53.2995C42.6213 53.2853 41.9155 52.8869 41.2061 53.5632L40.6142 52.9672L41.6352 52.1788L43.7349 54.3216ZM42.9675 55.3654L40.5718 52.9529C40.5295 52.9103 40.4447 52.91 40.3879 52.9664C40.3169 53.0368 40.3166 53.1217 40.3589 53.1643L42.7547 55.5768C42.797 55.6194 42.8818 55.6197 42.9528 55.5492C43.0095 55.4928 43.0098 55.408 42.9535 55.3512L42.9675 55.3654Z" fill="#FFFF00" stroke="black" stroke-width="0.0711113"/>
<path d="M42.1079 54.4714C42.5763 54.0064 42.3798 53.5531 42.3798 53.5531C42.3798 53.5531 41.9138 53.3677 41.4597 53.8186L42.1079 54.4714ZM44.2025 54.0262L41.9054 51.713C41.8632 51.6704 41.7641 51.6842 41.7073 51.7406C41.6648 51.7829 41.6645 51.8677 41.7068 51.9103L44.0039 54.2235C44.0461 54.2661 44.131 54.2664 44.1878 54.21C44.2303 54.1677 44.2306 54.0829 44.1884 54.0403L44.2025 54.0262ZM43.9333 54.1808L41.763 51.9953C41.7207 51.9528 41.6359 51.9525 41.5791 52.0088C41.5224 52.0652 41.5221 52.1501 41.5643 52.1926L43.7487 54.3923C43.8051 54.4491 43.8758 54.4352 43.9326 54.3788C43.9894 54.3224 44.0038 54.2518 43.9474 54.195L43.9333 54.1808ZM44.733 51.9774L44.5638 51.8071L44.4503 51.9199L44.3235 51.7921L44.437 51.6794L44.2538 51.4949L44.1261 51.6218L43.9993 51.494L44.1412 51.3531L43.9721 51.1828L43.6882 51.4647C43.6315 51.521 43.6313 51.5776 43.6735 51.6202L44.2936 52.2446C44.3359 52.2872 44.4066 52.3016 44.4491 52.2593L44.733 51.9774ZM43.7015 51.7051L42.751 52.5645L43.357 53.1747L44.2371 52.2161L43.7157 51.691" fill="#FFFF00"/>
<path d="M43.7015 51.7051L42.751 52.5645L43.357 53.1747L44.2371 52.2161L43.7157 51.691M42.1079 54.4714C42.5763 54.0064 42.3798 53.5531 42.3798 53.5531C42.3798 53.5531 41.9138 53.3677 41.4597 53.8186L42.1079 54.4714ZM44.2025 54.0262L41.9054 51.713C41.8632 51.6704 41.7641 51.6842 41.7073 51.7406C41.6648 51.7829 41.6645 51.8677 41.7068 51.9103L44.0039 54.2235C44.0461 54.2661 44.131 54.2664 44.1878 54.21C44.2303 54.1677 44.2306 54.0829 44.1884 54.0403L44.2025 54.0262ZM43.9333 54.1808L41.763 51.9953C41.7207 51.9528 41.6359 51.9525 41.5791 52.0088C41.5224 52.0652 41.5221 52.1501 41.5643 52.1926L43.7487 54.3923C43.8051 54.4491 43.8758 54.4352 43.9326 54.3788C43.9894 54.3224 44.0038 54.2518 43.9474 54.195L43.9333 54.1808ZM44.733 51.9774L44.5638 51.8071L44.4503 51.9199L44.3235 51.7921L44.437 51.6794L44.2538 51.4949L44.1261 51.6218L43.9993 51.494L44.1412 51.3531L43.9721 51.1828L43.6882 51.4647C43.6315 51.521 43.6313 51.5776 43.6735 51.6202L44.2936 52.2446C44.3359 52.2872 44.4066 52.3016 44.4491 52.2593L44.733 51.9774Z" stroke="black" stroke-width="0.0711113"/>
<path d="M44.0086 52.8658L43.5261 53.345L44.0898 53.9126L44.5723 53.4335L44.0086 52.8658Z" fill="#FFFF00" stroke="black" stroke-width="0.0711113"/>
<path d="M42.5148 51.3615L42.0323 51.8407L42.596 52.4084L43.0785 51.9292L42.5148 51.3615Z" fill="#FFFF00" stroke="black" stroke-width="0.0711113"/>
<path d="M45.04 53.1664L44.8709 52.9961L44.729 53.137L44.6021 53.0093L44.744 52.8684L44.5749 52.6981L44.433 52.839L44.3062 52.7113L44.4481 52.5703L44.279 52.4L43.9951 52.6819C43.9384 52.7383 43.9382 52.7948 43.9805 52.8374L44.5864 53.4476C44.6089 53.4702 44.6393 53.483 44.6712 53.4831C44.703 53.4832 44.7336 53.4707 44.7561 53.4482L45.04 53.1664Z" fill="#FFFF00" stroke="black" stroke-width="0.0711113"/>
<path d="M43.5461 51.6621L43.377 51.4918L43.2351 51.6327L43.1083 51.505L43.2502 51.3641L43.0811 51.1938L42.9392 51.3347L42.8123 51.207L42.9542 51.0661L42.7851 50.8958L42.5013 51.1776C42.4445 51.234 42.4443 51.2906 42.4866 51.3331L43.0926 51.9434C43.115 51.966 43.1455 51.9787 43.1773 51.9788C43.2092 51.9789 43.2397 51.9664 43.2623 51.944L43.5461 51.6621Z" fill="#FFFF00" stroke="black" stroke-width="0.0711113"/>
<path d="M43.7419 52.3134C43.827 52.2289 43.7002 52.1011 43.615 52.1857L43.388 52.4112L43.5148 52.5389L43.7419 52.3134Z" fill="#000001"/>
<path d="M44.1766 53.3756C44.2617 53.291 44.149 53.1775 44.0638 53.262L43.8935 53.4311L44.0063 53.5447L44.1766 53.3756Z" fill="#000001"/>
<path d="M42.6827 51.8713C42.7679 51.7867 42.6551 51.6732 42.57 51.7577L42.3997 51.9269L42.5124 52.0404L42.6827 51.8713Z" fill="#000001"/>
<path d="M34.5142 45.4723C34.5106 45.8944 34.6679 46.302 34.9542 46.6123C35.0878 46.7616 35.2511 46.8814 35.4336 46.9641C35.6161 47.0467 35.8139 47.0904 36.0142 47.0923C36.4342 47.0923 36.8142 46.8923 37.0742 46.6123C37.3605 46.302 37.5178 45.8944 37.5142 45.4723V43.3123H34.5142V45.4723Z" fill="#003399"/>
<path d="M35.2142 44.4323C35.3799 44.4323 35.5142 44.298 35.5142 44.1323C35.5142 43.9666 35.3799 43.8323 35.2142 43.8323C35.0486 43.8323 34.9142 43.9666 34.9142 44.1323C34.9142 44.298 35.0486 44.4323 35.2142 44.4323Z" fill="white"/>
<path d="M36.8742 44.4323C37.0399 44.4323 37.1742 44.298 37.1742 44.1323C37.1742 43.9666 37.0399 43.8323 36.8742 43.8323C36.7085 43.8323 36.5742 43.9666 36.5742 44.1323C36.5742 44.298 36.7085 44.4323 36.8742 44.4323Z" fill="white"/>
<path d="M36.0342 45.2322C36.1999 45.2322 36.3342 45.0979 36.3342 44.9322C36.3342 44.7665 36.1999 44.6322 36.0342 44.6322C35.8685 44.6322 35.7342 44.7665 35.7342 44.9322C35.7342 45.0979 35.8685 45.2322 36.0342 45.2322Z" fill="white"/>
<path d="M35.2142 46.0723C35.3799 46.0723 35.5142 45.938 35.5142 45.7723C35.5142 45.6066 35.3799 45.4723 35.2142 45.4723C35.0486 45.4723 34.9142 45.6066 34.9142 45.7723C34.9142 45.938 35.0486 46.0723 35.2142 46.0723Z" fill="white"/>
<path d="M36.8742 46.0723C37.0399 46.0723 37.1742 45.938 37.1742 45.7723C37.1742 45.6066 37.0399 45.4723 36.8742 45.4723C36.7085 45.4723 36.5742 45.6066 36.5742 45.7723C36.5742 45.938 36.7085 46.0723 36.8742 46.0723Z" fill="white"/>
<path d="M34.5142 40.2723C34.5106 40.6944 34.6679 41.1021 34.9542 41.4123C35.0878 41.5617 35.2511 41.6815 35.4336 41.7641C35.6161 41.8468 35.8139 41.8905 36.0142 41.8923C36.4342 41.8923 36.8142 41.6923 37.0742 41.4123C37.3605 41.1021 37.5178 40.6944 37.5142 40.2723V38.1123H34.5142V40.2723Z" fill="#003399"/>
<path d="M35.2142 39.2323C35.3799 39.2323 35.5142 39.098 35.5142 38.9323C35.5142 38.7666 35.3799 38.6323 35.2142 38.6323C35.0486 38.6323 34.9142 38.7666 34.9142 38.9323C34.9142 39.098 35.0486 39.2323 35.2142 39.2323Z" fill="white"/>
<path d="M36.8742 39.2323C37.0399 39.2323 37.1742 39.098 37.1742 38.9323C37.1742 38.7666 37.0399 38.6323 36.8742 38.6323C36.7085 38.6323 36.5742 38.7666 36.5742 38.9323C36.5742 39.098 36.7085 39.2323 36.8742 39.2323Z" fill="white"/>
<path d="M36.0342 40.0323C36.1999 40.0323 36.3342 39.8979 36.3342 39.7323C36.3342 39.5666 36.1999 39.4323 36.0342 39.4323C35.8685 39.4323 35.7342 39.5666 35.7342 39.7323C35.7342 39.8979 35.8685 40.0323 36.0342 40.0323Z" fill="white"/>
<path d="M35.2142 40.8723C35.3799 40.8723 35.5142 40.738 35.5142 40.5723C35.5142 40.4067 35.3799 40.2723 35.2142 40.2723C35.0486 40.2723 34.9142 40.4067 34.9142 40.5723C34.9142 40.738 35.0486 40.8723 35.2142 40.8723Z" fill="white"/>
<path d="M36.8742 40.8723C37.0399 40.8723 37.1742 40.738 37.1742 40.5723C37.1742 40.4067 37.0399 40.2723 36.8742 40.2723C36.7085 40.2723 36.5742 40.4067 36.5742 40.5723C36.5742 40.738 36.7085 40.8723 36.8742 40.8723Z" fill="white"/>
<path d="M30.3542 45.4723C30.3506 45.8944 30.5079 46.302 30.7942 46.6123C30.9278 46.7616 31.091 46.8814 31.2735 46.9641C31.4561 47.0467 31.6538 47.0904 31.8542 47.0923C32.2742 47.0923 32.6542 46.8923 32.9142 46.6123C33.2005 46.302 33.3578 45.8944 33.3542 45.4723V43.3123H30.3542V45.4723Z" fill="#003399"/>
<path d="M31.0542 44.4323C31.2199 44.4323 31.3542 44.298 31.3542 44.1323C31.3542 43.9666 31.2199 43.8323 31.0542 43.8323C30.8885 43.8323 30.7542 43.9666 30.7542 44.1323C30.7542 44.298 30.8885 44.4323 31.0542 44.4323Z" fill="white"/>
<path d="M32.7142 44.4323C32.8799 44.4323 33.0142 44.298 33.0142 44.1323C33.0142 43.9666 32.8799 43.8323 32.7142 43.8323C32.5485 43.8323 32.4142 43.9666 32.4142 44.1323C32.4142 44.298 32.5485 44.4323 32.7142 44.4323Z" fill="white"/>
<path d="M31.8742 45.2322C32.0398 45.2322 32.1742 45.0979 32.1742 44.9322C32.1742 44.7665 32.0398 44.6322 31.8742 44.6322C31.7085 44.6322 31.5742 44.7665 31.5742 44.9322C31.5742 45.0979 31.7085 45.2322 31.8742 45.2322Z" fill="white"/>
<path d="M31.0542 46.0723C31.2199 46.0723 31.3542 45.938 31.3542 45.7723C31.3542 45.6066 31.2199 45.4723 31.0542 45.4723C30.8885 45.4723 30.7542 45.6066 30.7542 45.7723C30.7542 45.938 30.8885 46.0723 31.0542 46.0723Z" fill="white"/>
<path d="M32.7142 46.0723C32.8799 46.0723 33.0142 45.938 33.0142 45.7723C33.0142 45.6066 32.8799 45.4723 32.7142 45.4723C32.5485 45.4723 32.4142 45.6066 32.4142 45.7723C32.4142 45.938 32.5485 46.0723 32.7142 46.0723Z" fill="white"/>
<path d="M38.6743 45.4723C38.6706 45.8944 38.828 46.302 39.1143 46.6123C39.2478 46.7616 39.4111 46.8814 39.5936 46.9641C39.7761 47.0467 39.9739 47.0904 40.1743 47.0923C40.5943 47.0923 40.9743 46.8923 41.2343 46.6123C41.5205 46.302 41.6779 45.8944 41.6743 45.4723V43.3123H38.6743V45.4723Z" fill="#003399"/>
<path d="M39.3743 44.4323C39.54 44.4323 39.6743 44.298 39.6743 44.1323C39.6743 43.9666 39.54 43.8323 39.3743 43.8323C39.2086 43.8323 39.0743 43.9666 39.0743 44.1323C39.0743 44.298 39.2086 44.4323 39.3743 44.4323Z" fill="white"/>
<path d="M41.0343 44.4323C41.1999 44.4323 41.3343 44.298 41.3343 44.1323C41.3343 43.9666 41.1999 43.8323 41.0343 43.8323C40.8686 43.8323 40.7343 43.9666 40.7343 44.1323C40.7343 44.298 40.8686 44.4323 41.0343 44.4323Z" fill="white"/>
<path d="M40.1942 45.2322C40.3599 45.2322 40.4942 45.0979 40.4942 44.9322C40.4942 44.7665 40.3599 44.6322 40.1942 44.6322C40.0285 44.6322 39.8942 44.7665 39.8942 44.9322C39.8942 45.0979 40.0285 45.2322 40.1942 45.2322Z" fill="white"/>
<path d="M39.3743 46.0723C39.54 46.0723 39.6743 45.938 39.6743 45.7723C39.6743 45.6066 39.54 45.4723 39.3743 45.4723C39.2086 45.4723 39.0743 45.6066 39.0743 45.7723C39.0743 45.938 39.2086 46.0723 39.3743 46.0723Z" fill="white"/>
<path d="M41.0343 46.0723C41.1999 46.0723 41.3343 45.938 41.3343 45.7723C41.3343 45.6066 41.1999 45.4723 41.0343 45.4723C40.8686 45.4723 40.7343 45.6066 40.7343 45.7723C40.7343 45.938 40.8686 46.0723 41.0343 46.0723Z" fill="white"/>
<path d="M34.5142 50.6323C34.5106 51.0544 34.6679 51.4621 34.9542 51.7723C35.0878 51.9216 35.2511 52.0415 35.4336 52.1241C35.6161 52.2068 35.8139 52.2504 36.0142 52.2523C36.4342 52.2523 36.8142 52.0523 37.0742 51.7723C37.3605 51.4621 37.5178 51.0544 37.5142 50.6323V48.4723H34.5142V50.6323Z" fill="#003399"/>
<path d="M35.2142 49.5923C35.3799 49.5923 35.5142 49.458 35.5142 49.2923C35.5142 49.1266 35.3799 48.9923 35.2142 48.9923C35.0486 48.9923 34.9142 49.1266 34.9142 49.2923C34.9142 49.458 35.0486 49.5923 35.2142 49.5923Z" fill="white"/>
<path d="M36.8742 49.5923C37.0399 49.5923 37.1742 49.458 37.1742 49.2923C37.1742 49.1266 37.0399 48.9923 36.8742 48.9923C36.7085 48.9923 36.5742 49.1266 36.5742 49.2923C36.5742 49.458 36.7085 49.5923 36.8742 49.5923Z" fill="white"/>
<path d="M36.0342 50.3922C36.1999 50.3922 36.3342 50.2579 36.3342 50.0922C36.3342 49.9266 36.1999 49.7922 36.0342 49.7922C35.8685 49.7922 35.7342 49.9266 35.7342 50.0922C35.7342 50.2579 35.8685 50.3922 36.0342 50.3922Z" fill="white"/>
<path d="M35.2142 51.2323C35.3799 51.2323 35.5142 51.098 35.5142 50.9323C35.5142 50.7666 35.3799 50.6323 35.2142 50.6323C35.0486 50.6323 34.9142 50.7666 34.9142 50.9323C34.9142 51.098 35.0486 51.2323 35.2142 51.2323Z" fill="white"/>
<path d="M36.8742 51.2323C37.0399 51.2323 37.1742 51.098 37.1742 50.9323C37.1742 50.7666 37.0399 50.6323 36.8742 50.6323C36.7085 50.6323 36.5742 50.7666 36.5742 50.9323C36.5742 51.098 36.7085 51.2323 36.8742 51.2323Z" fill="white"/>
</g>
<defs>
<clipPath id="clip0_14_3119">
<rect width="90" height="90" rx="45" fill="white"/>
</clipPath>
</defs>
</svg>
